<svg width="24" height="24" viewBox="0 0 24 24" fill="none" xmlns="http://www.w3.org/2000/svg">
<path d="M5 23V21C5.55 21 6.021 21.196 6.413 21.588C6.805 21.98 7.00067 22.4507 7 23H5ZM9 23C9 21.9 8.60833 20.9583 7.825 20.175C7.04167 19.3917 6.1 19 5 19V17C6.66667 17 8.08333 17.5833 9.25 18.75C10.4167 19.9167 11 21.3333 11 23H9ZM13 23C13 20.7667 12.225 18.875 10.675 17.325C9.125 15.775 7.23333 15 5 15V13C6.38333 13 7.68333 13.2627 8.9 13.788C10.1167 14.3133 11.175 15.0257 12.075 15.925C12.975 16.8243 13.6877 17.8827 14.213 19.1C14.7383 20.3173 15.0007 21.6173 15 23H13ZM19 3V6.1C19.3 6.21667 19.5417 6.4 19.725 6.65C19.9083 6.9 20 7.18333 20 7.5V9.5C20 9.81667 19.9083 10.1 19.725 10.35C19.5417 10.6 19.3 10.7833 19 10.9V21C19 21.55 18.8043 22.021 18.413 22.413C18.0217 22.805 17.5507 23.0007 17 23V3H7V11H5V3C5 2.45 5.196 1.97933 5.588 1.588C5.98 1.19667 6.45067 1.00067 7 1H17C17.55 1 18.021 1.196 18.413 1.588C18.805 1.98 19.0007 2.45067 19 3ZM12 6C12.2833 6 12.521 5.904 12.713 5.712C12.905 5.52 13.0007 5.28267 13 5C12.9993 4.71733 12.9033 4.48 12.712 4.288C12.5207 4.096 12.2833 4 12 4C11.7167 4 11.4793 4.096 11.288 4.288C11.0967 4.48 11.0007 4.71733 11 5C10.9993 5.28267 11.0953 5.52033 11.288 5.713C11.4807 5.90567 11.718 6.00133 12 6Z" fill="#625BFF"/>
</svg>
