<svg width="24" height="24" viewBox="0 0 24 24" fill="none" xmlns="http://www.w3.org/2000/svg">
<path d="M11.1589 3.01074C11.3875 3.01514 11.6136 3.0595 11.827 3.14185L11.8724 3.16003L11.9174 3.17944C12.1264 3.27233 12.3174 3.40106 12.482 3.55981L12.5169 3.59424L12.5508 3.62964C12.7154 3.80515 12.8463 4.00956 12.9369 4.23267L17.8576 16.1266C18.0623 16.6093 18.0693 17.1531 17.877 17.6409C17.6847 18.1286 17.3086 18.5214 16.8296 18.7346C16.8272 18.7357 16.8248 18.7367 16.8224 18.7378L9.68536 21.8468C9.68386 21.8475 9.68235 21.8481 9.68084 21.8488C9.44026 21.9521 9.18135 22.0063 8.91949 22.0079C8.65766 22.0096 8.39817 21.9588 8.15631 21.8585C7.91442 21.7582 7.69501 21.6104 7.51117 21.424C7.3305 21.2407 7.18777 21.0236 7.091 20.7853L2.16693 8.8822L2.16705 8.88208C1.96577 8.40147 1.95979 7.8612 2.15094 7.37622C2.34391 6.88664 2.7212 6.49586 3.19842 6.28345L3.20575 6.28015L10.3437 3.17114L10.3491 3.16882C10.5895 3.06576 10.8482 3.0119 11.1098 3.01038L11.1589 3.01074ZM4.0119 8.11035C4.01294 8.11282 4.01405 8.11532 4.01507 8.1178L8.92828 19.995L16.0163 16.9072C16.0152 16.9046 16.0141 16.9019 16.013 16.8993L11.0997 5.02332L4.0119 8.11035ZM19.0804 5.6095C19.2961 5.10108 19.8831 4.86378 20.3915 5.07947C20.5842 5.16122 20.7721 5.2389 20.9551 5.31262L21.1365 5.38501L21.1596 5.39441C21.6478 5.60158 22.0338 5.99425 22.2326 6.48596C22.4314 6.97767 22.4267 7.52822 22.2197 8.01648C22.2193 8.01738 22.2188 8.01826 22.2184 8.01917L19.9205 13.3932C19.7033 13.901 19.1156 14.1366 18.6078 13.9194C18.1 13.7023 17.8645 13.1146 18.0816 12.6068L20.3782 7.23572C20.1293 7.13711 19.8733 7.03205 19.6104 6.92053C19.102 6.70482 18.8647 6.11789 19.0804 5.6095ZM16.001 8.5V5H15.001C14.4487 5 14.001 4.55228 14.001 4C14.001 3.44772 14.4487 3 15.001 3H16.001C16.5315 3.00001 17.0401 3.21075 17.4152 3.58582C17.7903 3.96089 18.001 4.46957 18.001 5V8.5C18.001 9.05228 17.5533 9.49999 17.001 9.5C16.4487 9.5 16.001 9.05228 16.001 8.5Z" fill="#625BFF"/>
</svg>
