<svg width="24" height="24" viewBox="0 0 24 24" fill="none" xmlns="http://www.w3.org/2000/svg">
<path d="M21.25 11V9.75H6C5.58579 9.75 5.25 9.41421 5.25 9C5.25 8.58579 5.58579 8.25 6 8.25H21.25V7C21.25 6.66848 21.1183 6.35051 20.8839 6.11609C20.6641 5.89633 20.371 5.76692 20.062 5.75159L20 5.75H4C3.66848 5.75 3.35051 5.88167 3.11609 6.11609C2.88167 6.35051 2.75 6.66848 2.75 7V17C2.75 17.3315 2.88167 17.6495 3.11609 17.8839C3.35051 18.1183 3.66848 18.25 4 18.25H12C12.4142 18.25 12.75 18.5858 12.75 19C12.75 19.4142 12.4142 19.75 12 19.75H4C3.27065 19.75 2.57114 19.4603 2.05542 18.9446C1.53969 18.4289 1.25 17.7293 1.25 17V7C1.25 6.27065 1.53969 5.57115 2.05542 5.05542C2.57115 4.53969 3.27065 4.25 4 4.25H20C20.7293 4.25 21.4289 4.53969 21.9446 5.05542C22.4603 5.57114 22.75 6.27065 22.75 7V11C22.75 11.4142 22.4142 11.75 22 11.75C21.5858 11.75 21.25 11.4142 21.25 11Z" fill="#625BFF"/>
<path d="M18.6939 22.7248C18.5675 22.7585 18.4344 22.7585 18.308 22.7248L18.501 22.0001L18.6939 22.7248ZM17.8244 13.3982C18.2685 13.2854 18.7334 13.2854 19.1775 13.3982L21.7336 14.0471L21.7348 14.0475C22.3314 14.2 22.7622 14.7458 22.7437 15.38V15.3805C22.6531 18.4121 21.7265 20.2509 20.7389 21.3416C20.2505 21.8811 19.7617 22.2212 19.3842 22.429C19.1957 22.5328 19.035 22.6035 18.9157 22.6499C18.856 22.6731 18.8066 22.6902 18.7691 22.7024C18.7503 22.7084 18.7346 22.7132 18.722 22.7169C18.7157 22.7187 18.7102 22.7203 18.7055 22.7216C18.7031 22.7223 18.7009 22.7229 18.699 22.7235C18.6981 22.7237 18.6972 22.724 18.6963 22.7242C18.6959 22.7243 18.6954 22.7244 18.6951 22.7245C18.6948 22.7245 18.6945 22.7247 18.6702 22.6341L18.501 22.0001L18.3318 22.6341C18.3094 22.7175 18.3073 22.724 18.3069 22.7245C18.3067 22.7244 18.306 22.7243 18.3056 22.7242C18.3047 22.724 18.3038 22.7237 18.3029 22.7235C18.301 22.7229 18.2988 22.7223 18.2964 22.7216C18.2917 22.7203 18.2862 22.7187 18.2799 22.7169C18.2673 22.7132 18.2516 22.7084 18.2328 22.7024C18.1954 22.6902 18.146 22.673 18.0863 22.6499C17.9671 22.6035 17.8062 22.5328 17.6177 22.429C17.2402 22.2212 16.7514 21.8811 16.263 21.3416C15.2754 20.2509 14.3489 18.4121 14.2583 15.3805C14.2583 15.3781 14.2581 15.3757 14.2581 15.3734C14.2519 15.0706 14.3485 14.7748 14.532 14.5339L14.5673 14.4895C14.748 14.272 14.9934 14.1171 15.2683 14.0473V14.0471L17.8244 13.3982ZM18.8084 14.852C18.6065 14.8008 18.3954 14.8008 18.1935 14.852L15.7622 15.4692C15.866 18.1105 16.6708 19.5572 17.3749 20.3349C17.7382 20.7362 18.0905 20.9771 18.341 21.115C18.4004 21.1476 18.4541 21.1744 18.5009 21.1963C18.5477 21.1744 18.6015 21.1477 18.6609 21.115C18.9115 20.9771 19.2637 20.7362 19.627 20.3349C20.3312 19.5572 21.1358 18.1105 21.2395 15.4692L18.8084 14.852Z" fill="#625BFF"/>
</svg>
