<svg width="24" height="24" viewBox="0 0 24 24" fill="none" xmlns="http://www.w3.org/2000/svg">
<path d="M4.75818 21.5V18.1174C2.60266 16.3779 1.22072 13.7248 1.2207 10.75C1.2207 7.34718 3.02697 4.3671 5.73315 2.69047C6.08527 2.47232 6.5476 2.58091 6.76575 2.93302C6.98388 3.28513 6.87528 3.74734 6.52319 3.96549C4.23541 5.38288 2.7207 7.89293 2.7207 10.75C2.72072 13.3633 3.98862 15.6862 5.95557 17.148C6.14597 17.2895 6.25818 17.5128 6.25818 17.75V21.5C6.25819 21.5663 6.28458 21.6298 6.33142 21.6767C6.37828 21.7236 6.44179 21.75 6.50806 21.75H15.1205C15.1867 21.75 15.2503 21.7235 15.2971 21.6767C15.3439 21.6298 15.3702 21.5663 15.3702 21.5V19.719C15.3702 19.5041 15.4624 19.2995 15.6234 19.1571C15.7844 19.0148 15.9988 18.9483 16.2122 18.9747L17.6122 19.1476C17.7124 19.16 17.8142 19.1521 17.9113 19.1243C18.0083 19.0965 18.0987 19.0494 18.1771 18.9858C18.2555 18.9221 18.3202 18.8433 18.3674 18.7541C18.4146 18.6649 18.4434 18.567 18.4519 18.4665L18.7349 15.1076L18.738 15.0776C18.7765 14.7692 19.0018 14.515 19.3059 14.4414C20.0586 14.2595 20.603 13.9998 20.9575 13.7868C20.9574 13.7707 20.9525 13.7352 20.9213 13.6916L19.0479 11.0802C18.9582 10.9553 18.9091 10.8059 18.9072 10.6521C18.873 7.83622 17.3672 5.3664 15.1057 3.96562C14.9924 3.89545 14.8768 3.82793 14.759 3.7631L15.4823 2.44889C15.5874 2.50674 15.6912 2.5665 15.7936 2.62809L15.8956 2.69035L16.0204 2.76896C18.5632 4.39853 20.2811 7.19172 20.4008 10.3929L22.1401 12.8173C22.6158 13.4805 22.6095 14.5437 21.7357 15.0693L21.7356 15.0691C21.3562 15.2976 20.8424 15.549 20.1857 15.7537L19.9465 18.5924C19.9211 18.8942 19.835 19.1879 19.6934 19.4556C19.5517 19.7233 19.3575 19.9596 19.1223 20.1504C18.8871 20.3413 18.6158 20.4827 18.3247 20.5662C18.0336 20.6497 17.7287 20.6735 17.4282 20.6363L16.8702 20.5673V21.5C16.8702 21.9639 16.6861 22.4087 16.3583 22.7369C16.0305 23.065 15.5858 23.2496 15.1219 23.25H6.50732C6.04335 23.2498 5.5985 23.0653 5.27051 22.7371C4.94252 22.409 4.75819 21.964 4.75818 21.5ZM14.4636 2.7443C14.6633 2.38147 15.1194 2.24921 15.4823 2.44889L14.759 3.7631C14.3962 3.56338 14.2639 3.10718 14.4636 2.7443Z" fill="#625BFF"/>
<path d="M10.5 0.750122C10.7882 0.749805 11.0764 0.759111 11.3639 0.77832L11.4873 0.787231L11.4912 0.787476C12.5249 0.872174 13.1711 1.73029 13.2045 2.64966C13.2279 3.27958 13.25 4.21592 13.25 5.5V5.50085C13.2495 5.90826 13.2474 6.28206 13.2438 6.62207C13.9695 7.13562 14.5393 7.84443 14.8839 8.67053C15.287 9.6368 15.3595 10.7092 15.0902 11.7209C14.8209 12.7327 14.2249 13.6272 13.3948 14.2653C12.5647 14.9033 11.547 15.2493 10.5 15.2493C9.45303 15.2493 8.43534 14.9033 7.60524 14.2653C6.77515 13.6272 6.17911 12.7327 5.90981 11.7209C5.64052 10.7092 5.71304 9.6368 6.11611 8.67053C6.46067 7.84451 7.0304 7.13573 7.756 6.62219C7.7523 6.28211 7.75025 5.90815 7.75002 5.50049V5.5C7.75002 4.21628 7.77165 3.27968 7.79555 2.64905C7.8292 1.72991 8.47536 0.872156 9.50881 0.787476H9.5099C9.78487 0.76537 10.1137 0.750145 10.4992 0.750122V0.75L10.4995 0.750122C10.4997 0.750122 10.4999 0.75 10.5 0.75V0.750122ZM10.5 2.25C10.154 2.25 9.86517 2.2636 9.63039 2.28247C9.46872 2.29613 9.3046 2.42461 9.29457 2.70435L9.29445 2.70593C9.27135 3.3153 9.25002 4.23274 9.25002 5.5C9.25035 6.07665 9.25412 6.58182 9.26137 7.01599C9.26593 7.28926 9.12156 7.54345 8.88442 7.67932C8.26285 8.03544 7.77629 8.5869 7.50051 9.24805C7.22473 9.90919 7.17513 10.643 7.35939 11.3352C7.54365 12.0274 7.95148 12.6394 8.51943 13.0759C9.08739 13.5125 9.78366 13.7493 10.5 13.7493C11.2164 13.7493 11.9126 13.5125 12.4806 13.0759C13.0486 12.6394 13.4564 12.0274 13.6406 11.3352C13.8249 10.643 13.7753 9.90919 13.4995 9.24805C13.2237 8.5869 12.7372 8.03544 12.1156 7.67932C11.8787 7.54355 11.7343 7.28966 11.7387 7.0166C11.7456 6.58178 11.7494 6.07637 11.75 5.5C11.75 4.2331 11.7282 3.3154 11.7056 2.70532L11.7055 2.70435C11.6954 2.42489 11.5316 2.29647 11.3701 2.28259C11.0809 2.26052 10.7909 2.24966 10.5009 2.25H10.5Z" fill="#625BFF"/>
<path d="M9.96967 13.9697C10.2626 13.6768 10.7373 13.6768 11.0302 13.9697C12.3945 15.3339 14.5057 16.2499 16.4999 16.2499C16.9142 16.2499 17.2499 16.5857 17.2499 16.9999C17.2499 17.4142 16.9142 17.7499 16.4999 17.7499C14.0942 17.7499 11.6054 16.666 9.96967 15.0302C9.67678 14.7373 9.67678 14.2626 9.96967 13.9697Z" fill="#625BFF"/>
</svg>
