<svg width="68" height="68" viewBox="0 0 68 68" fill="none" xmlns="http://www.w3.org/2000/svg">
<circle cx="34" cy="34" r="34" fill="#EFEFFF"/>
<path d="M37.3333 41.3333L22 26V22H26L41.3333 37.3333" fill="#625BFF"/>
<path d="M37.3333 26.6667L42 22H46V26L41.3333 30.6667" fill="#625BFF"/>
<path d="M37.3333 41.3333L22 26V22H26L41.3333 37.3333M35.3333 43.3333L43.3333 35.3333M39.3333 39.3333L44.6667 44.6667M43.3333 46L46 43.3333M37.3333 26.6667L42 22H46V26L41.3333 30.6667M24.6667 36.6667L30 42M27.3333 40.6667L23.3333 44.6667M22 43.3333L24.6667 46" stroke="#625BFF" stroke-width="2" stroke-linecap="round" stroke-linejoin="round"/>
</svg>
