<svg width="68" height="68" viewBox="0 0 68 68" fill="none" xmlns="http://www.w3.org/2000/svg">
<circle cx="34" cy="34" r="34" fill="#EFEFFF"/>
<path d="M32.6641 34.0004H35.3307C36.038 34.0004 36.7162 33.7194 37.2163 33.2193C37.7164 32.7192 37.9974 32.0409 37.9974 31.3337C37.9974 30.6265 37.7164 29.9482 37.2163 29.4481C36.7162 28.948 36.038 28.667 35.3307 28.667H31.3307C30.5307 28.667 29.8641 28.9337 29.4641 29.467L21.9974 36.667M27.3307 42.0004L29.4641 40.1337C29.8641 39.6004 30.5307 39.3337 31.3307 39.3337H36.6641C38.1307 39.3337 39.4641 38.8004 40.3974 37.7337L46.5307 31.867C47.0452 31.3808 47.3455 30.7101 47.3655 30.0025C47.3855 29.2948 47.1236 28.6082 46.6374 28.0937C46.1512 27.5792 45.4805 27.2789 44.7728 27.2589C44.0652 27.2389 43.3786 27.5008 42.8641 27.987L37.2641 33.187M20.6641 35.3337L28.6641 43.3337" stroke="#625BFF" stroke-width="2" stroke-linecap="round" stroke-linejoin="round"/>
</svg>
