<svg width="37" height="38" viewBox="0 0 37 38" fill="none" xmlns="http://www.w3.org/2000/svg">
<path fill-rule="evenodd" clip-rule="evenodd" d="M18.5 36.5C28.165 36.5 36 28.665 36 19C36 9.33502 28.165 1.5 18.5 1.5C8.83502 1.5 1 9.33502 1 19C1 28.665 8.83502 36.5 18.5 36.5Z" stroke="#625BFF" stroke-width="1.5"/>
<path fill-rule="evenodd" clip-rule="evenodd" d="M23.6599 16.6336C23.6053 16.2191 23.447 15.825 23.1996 15.4879C22.8931 15.1791 22.4774 15.0033 22.0423 14.9985C20.4282 14.8818 18.0021 14.8818 18.0021 14.8818C18.0021 14.8818 15.5772 14.8818 13.9608 14.9985C13.5259 15.0035 13.1105 15.1793 12.8041 15.4879C12.5551 15.8244 12.3964 16.219 12.3432 16.6342C12.271 17.255 12.232 17.8793 12.2266 18.5043V19.3793C12.232 20.0044 12.271 20.6286 12.3432 21.2495C12.3981 21.6648 12.5556 22.0603 12.8006 22.3998C13.1529 22.7125 13.6056 22.8881 14.0763 22.8945C14.9997 22.9826 18.0027 23.0112 18.0027 23.0112C18.0027 23.0112 20.43 23.0112 22.0441 22.8945C22.4794 22.8897 22.8954 22.7136 23.202 22.4045C23.4481 22.0666 23.6059 21.6726 23.6611 21.2583C23.7333 20.6374 23.7723 20.0131 23.7777 19.3881V18.5038C23.7708 17.8787 23.7315 17.2545 23.6599 16.6336ZM16.8396 20.4568V17.1784L19.9896 18.8228L16.8396 20.4568Z" fill="#625BFF"/>
</svg>
