<svg width="46" height="46" viewBox="0 0 46 46" fill="none" xmlns="http://www.w3.org/2000/svg">
<circle cx="23" cy="23" r="23" fill="#EFEFFF"/>
<g clip-path="url(#clip0_3860_4082)">
<path d="M32 18.28V16C32 14.9 31.1 14 30 14H16C14.89 14 14 14.9 14 16V30C14 31.1 14.89 32 16 32H30C31.1 32 32 31.1 32 30V27.72C32.59 27.37 33 26.74 33 26V20C33 19.26 32.59 18.63 32 18.28ZM31 20V26H24V20H31ZM16 30V16H30V18H24C22.9 18 22 18.9 22 20V26C22 27.1 22.9 28 24 28H30V30H16Z" fill="#625BFF"/>
<path d="M27 24.5C27.8284 24.5 28.5 23.8284 28.5 23C28.5 22.1716 27.8284 21.5 27 21.5C26.1716 21.5 25.5 22.1716 25.5 23C25.5 23.8284 26.1716 24.5 27 24.5Z" fill="#323232"/>
</g>
<defs>
<clipPath id="clip0_3860_4082">
<rect width="24" height="24" fill="white" transform="translate(11 11)"/>
</clipPath>
</defs>
</svg>
