<svg width="46" height="46" viewBox="0 0 46 46" fill="none" xmlns="http://www.w3.org/2000/svg">
<circle cx="23" cy="23" r="23" fill="#EFEFFF"/>
<g clip-path="url(#clip0_3860_4073)">
<path d="M28.81 15.47C28.73 15.47 28.65 15.45 28.58 15.41C26.66 14.42 25 14 23.01 14C21.03 14 19.15 14.47 17.44 15.41C17.2 15.54 16.9 15.45 16.76 15.21C16.63 14.97 16.72 14.66 16.96 14.53C18.82 13.52 20.86 13 23.01 13C25.14 13 27 13.47 29.04 14.52C29.29 14.65 29.38 14.95 29.25 15.19C29.16 15.37 28.99 15.47 28.81 15.47ZM14.5 20.72C14.4 20.72 14.3 20.69 14.21 20.63C13.98 20.47 13.93 20.16 14.09 19.93C15.08 18.53 16.34 17.43 17.84 16.66C20.98 15.04 25 15.03 28.15 16.65C29.65 17.42 30.91 18.51 31.9 19.9C32.06 20.12 32.01 20.44 31.78 20.6C31.55 20.76 31.24 20.71 31.08 20.48C30.18 19.22 29.04 18.23 27.69 17.54C24.82 16.07 21.15 16.07 18.29 17.55C16.93 18.25 15.79 19.25 14.89 20.51C14.81 20.65 14.66 20.72 14.5 20.72ZM20.75 32.79C20.62 32.79 20.49 32.74 20.4 32.64C19.53 31.77 19.06 31.21 18.39 30C17.7 28.77 17.34 27.27 17.34 25.66C17.34 22.69 19.88 20.27 23 20.27C26.12 20.27 28.66 22.69 28.66 25.66C28.66 25.94 28.44 26.16 28.16 26.16C27.88 26.16 27.66 25.94 27.66 25.66C27.66 23.24 25.57 21.27 23 21.27C20.43 21.27 18.34 23.24 18.34 25.66C18.34 27.1 18.66 28.43 19.27 29.51C19.91 30.66 20.35 31.15 21.12 31.93C21.31 32.13 21.31 32.44 21.12 32.64C21.01 32.74 20.88 32.79 20.75 32.79ZM27.92 30.94C26.73 30.94 25.68 30.64 24.82 30.05C23.33 29.04 22.44 27.4 22.44 25.66C22.44 25.38 22.66 25.16 22.94 25.16C23.22 25.16 23.44 25.38 23.44 25.66C23.44 27.07 24.16 28.4 25.38 29.22C26.09 29.7 26.92 29.93 27.92 29.93C28.16 29.93 28.56 29.9 28.96 29.83C29.23 29.78 29.49 29.96 29.54 30.24C29.59 30.51 29.41 30.77 29.13 30.82C28.56 30.93 28.06 30.94 27.92 30.94ZM25.91 33C25.87 33 25.82 32.99 25.78 32.98C24.19 32.54 23.15 31.95 22.06 30.88C20.66 29.49 19.89 27.64 19.89 25.66C19.89 24.04 21.27 22.72 22.97 22.72C24.67 22.72 26.05 24.04 26.05 25.66C26.05 26.73 26.98 27.6 28.13 27.6C29.28 27.6 30.21 26.73 30.21 25.66C30.21 21.89 26.96 18.83 22.96 18.83C20.12 18.83 17.52 20.41 16.35 22.86C15.96 23.67 15.76 24.62 15.76 25.66C15.76 26.44 15.83 27.67 16.43 29.27C16.53 29.53 16.4 29.82 16.14 29.91C15.88 30.01 15.59 29.87 15.5 29.62C15.01 28.31 14.77 27.01 14.77 25.66C14.77 24.46 15 23.37 15.45 22.42C16.78 19.63 19.73 17.82 22.96 17.82C27.51 17.82 31.21 21.33 31.21 25.65C31.21 27.27 29.83 28.59 28.13 28.59C26.43 28.59 25.05 27.27 25.05 25.65C25.05 24.58 24.12 23.71 22.97 23.71C21.82 23.71 20.89 24.58 20.89 25.65C20.89 27.36 21.55 28.96 22.76 30.16C23.71 31.1 24.62 31.62 26.03 32.01C26.3 32.08 26.45 32.36 26.38 32.62C26.33 32.85 26.12 33 25.91 33Z" fill="#625BFF"/>
</g>
<defs>
<clipPath id="clip0_3860_4073">
<rect width="24" height="24" fill="white" transform="translate(11 11)"/>
</clipPath>
</defs>
</svg>
