<svg width="46" height="46" viewBox="0 0 46 46" fill="none" xmlns="http://www.w3.org/2000/svg">
<circle cx="23" cy="23" r="23" fill="#EFEFFF"/>
<g clip-path="url(#clip0_3860_4085)">
<path d="M31 29C32.1 29 32.99 28.1 32.99 27L33 17C33 15.89 32.1 15 31 15H15C13.89 15 13 15.89 13 17V27C13 28.1 13.89 29 15 29H11V31H35V29H31ZM15 27V17H31V27V27.01L15 27ZM20.0967 20.9531C20.0967 19.9261 20.9327 19.0891 21.9607 19.0891C22.9877 19.0891 23.8247 19.9261 23.8247 20.9531C23.8247 21.9801 22.9877 22.8171 21.9607 22.8171C20.9327 22.8171 20.0967 21.9801 20.0967 20.9531ZM27.1287 25.1891L24.6467 22.7071C24.9777 22.2021 25.1737 21.6001 25.1737 20.9531C25.1737 19.1811 23.7327 17.7401 21.9607 17.7401C20.1887 17.7401 18.7467 19.1811 18.7467 20.9531C18.7467 22.7251 20.1887 24.1671 21.9607 24.1671C22.5967 24.1671 23.1857 23.9751 23.6847 23.6561L26.1737 26.1441L27.1287 25.1891Z" fill="#625BFF"/>
</g>
<defs>
<clipPath id="clip0_3860_4085">
<rect width="24" height="24" fill="white" transform="translate(11 11)"/>
</clipPath>
</defs>
</svg>
