<svg width="46" height="46" viewBox="0 0 46 46" fill="none" xmlns="http://www.w3.org/2000/svg">
<circle cx="23" cy="23" r="23" fill="#EFEFFF"/>
<g clip-path="url(#clip0_3860_4088)">
<path d="M22.99 13C17.47 13 13 17.48 13 23C13 28.52 17.47 33 22.99 33C28.52 33 33 28.52 33 23C33 17.48 28.52 13 22.99 13ZM29.92 19H26.97C26.65 17.75 26.19 16.55 25.59 15.44C27.43 16.07 28.96 17.35 29.92 19ZM23 15.04C23.83 16.24 24.48 17.57 24.91 19H21.09C21.52 17.57 22.17 16.24 23 15.04ZM15.26 25C15.1 24.36 15 23.69 15 23C15 22.31 15.1 21.64 15.26 21H18.64C18.56 21.66 18.5 22.32 18.5 23C18.5 23.68 18.56 24.34 18.64 25H15.26ZM16.08 27H19.03C19.35 28.25 19.81 29.45 20.41 30.56C18.57 29.93 17.04 28.66 16.08 27ZM19.03 19H16.08C17.04 17.34 18.57 16.07 20.41 15.44C19.81 16.55 19.35 17.75 19.03 19ZM23 30.96C22.17 29.76 21.52 28.43 21.09 27H24.91C24.48 28.43 23.83 29.76 23 30.96ZM25.34 25H20.66C20.57 24.34 20.5 23.68 20.5 23C20.5 22.32 20.57 21.65 20.66 21H25.34C25.43 21.65 25.5 22.32 25.5 23C25.5 23.68 25.43 24.34 25.34 25ZM25.59 30.56C26.19 29.45 26.65 28.25 26.97 27H29.92C28.96 28.65 27.43 29.93 25.59 30.56ZM27.36 25C27.44 24.34 27.5 23.68 27.5 23C27.5 22.32 27.44 21.66 27.36 21H30.74C30.9 21.64 31 22.31 31 23C31 23.69 30.9 24.36 30.74 25H27.36Z" fill="#625BFF"/>
</g>
<defs>
<clipPath id="clip0_3860_4088">
<rect width="24" height="24" fill="white" transform="translate(11 11)"/>
</clipPath>
</defs>
</svg>
