<svg width="46" height="46" viewBox="0 0 46 46" fill="none" xmlns="http://www.w3.org/2000/svg">
<circle cx="23" cy="23" r="23" fill="#EFEFFF"/>
<g clip-path="url(#clip0_3860_4076)">
<path d="M30 25V17C30 15.9 29.1 15 28 15H14C12.9 15 12 15.9 12 17V25C12 26.1 12.9 27 14 27H28C29.1 27 30 26.1 30 25ZM28 25H14V17H28V25ZM21 18C19.34 18 18 19.34 18 21C18 22.66 19.34 24 21 24C22.66 24 24 22.66 24 21C24 19.34 22.66 18 21 18ZM34 18V29C34 30.1 33.1 31 32 31H15C15 30 15 30.1 15 29H32V18C33.1 18 33 18 34 18Z" fill="#625BFF"/>
</g>
<defs>
<clipPath id="clip0_3860_4076">
<rect width="24" height="24" fill="white" transform="translate(11 11)"/>
</clipPath>
</defs>
</svg>
