<svg width="242" height="48" viewBox="0 0 242 48" fill="none" xmlns="http://www.w3.org/2000/svg">
<g clip-path="url(#clip0_3507_6980)">
<path d="M79.5366 40.3069H73.8945V11.5957H92.1164V16.8991H79.4961V23.9861H90.7059V29.128H79.5366V40.3069Z" fill="#2F323A"/>
<path d="M101.624 40.3072H96.2244V20.3857H101.624V40.3072Z" fill="#2F323A"/>
<path d="M101.624 11.5957H96.2245V16.9126H101.624V11.5957Z" fill="#2F323A"/>
<path d="M112.792 28.8455V40.2869H107.393V20.3856H112.63V22.8825C113.194 21.909 114.045 21.1315 115.066 20.6548C116.101 20.1459 117.239 19.881 118.393 19.8809C120.749 19.8809 122.544 20.6212 123.792 22.0884C125.074 23.7035 125.73 25.7244 125.642 27.7821V40.3071H120.243V28.684C120.293 27.6471 119.967 26.6268 119.325 25.8102C118.958 25.455 118.525 25.1754 118.051 24.9872C117.576 24.7991 117.069 24.7061 116.558 24.7136C116.047 24.7211 115.543 24.8289 115.074 25.0309C114.605 25.233 114.18 25.5252 113.824 25.891C113.127 26.7152 112.759 27.7674 112.792 28.8455Z" fill="#2F323A"/>
<path d="M150.886 18.4412L145.844 19.9757C145.631 18.9093 145.094 17.9341 144.305 17.1827C143.804 16.7386 143.218 16.399 142.583 16.184C141.948 15.969 141.276 15.883 140.607 15.9309C139.43 15.8805 138.276 16.2611 137.361 17.001C136.97 17.3074 136.654 17.6977 136.436 18.1428C136.217 18.5879 136.102 19.0764 136.099 19.5719C136.099 21.3285 137.145 22.4054 139.23 22.8159L143.246 23.5562C145.497 23.9062 147.571 24.9818 149.151 26.6185C150.529 28.0884 151.285 30.0312 151.263 32.043C151.266 33.2173 151.02 34.3787 150.539 35.4507C150.059 36.5228 149.355 37.4809 148.476 38.2618C146.591 40.0296 144.065 40.9135 140.897 40.9135C139.224 40.9364 137.561 40.6629 135.984 40.1059C134.662 39.6509 133.457 38.911 132.454 37.9387C131.608 37.0984 130.901 36.1281 130.362 35.0649C129.871 34.0805 129.563 33.0157 129.451 31.9219L134.648 30.5758C134.745 32.038 135.391 33.4101 136.456 34.4188C137.065 34.9571 137.774 35.3703 138.543 35.6348C139.312 35.8992 140.126 36.0098 140.938 35.96C142.156 36.0315 143.364 35.6925 144.366 34.9976C144.76 34.7007 145.078 34.3145 145.293 33.871C145.507 33.4274 145.613 32.9393 145.601 32.4469C145.606 32.0427 145.528 31.6418 145.371 31.2691C145.214 30.8963 144.982 30.5596 144.69 30.2797C143.976 29.6165 143.077 29.1847 142.112 29.0414L138.063 28.2337C135.968 27.8694 134.039 26.8652 132.542 25.3599C131.866 24.6397 131.339 23.7933 130.991 22.8693C130.644 21.9453 130.483 20.9619 130.517 19.9757C130.501 18.759 130.756 17.5538 131.265 16.4478C131.774 15.3418 132.524 14.3628 133.46 13.582C135.41 11.8581 137.941 10.9326 140.546 10.9909C142.05 10.9627 143.547 11.1903 144.974 11.6639C146.14 12.0395 147.207 12.6694 148.098 13.508C148.828 14.1977 149.445 14.997 149.927 15.877C150.364 16.6835 150.686 17.5465 150.886 18.4412Z" fill="#2F323A"/>
<path d="M160.421 48H155.021V20.4061H160.259V22.8155C160.839 21.9364 161.655 21.237 162.614 20.7964C163.789 20.2217 165.085 19.9355 166.393 19.9619C167.665 19.9039 168.933 20.1349 170.103 20.6374C171.272 21.1399 172.311 21.9008 173.142 22.8626C174.838 24.958 175.716 27.5951 175.612 30.286C175.716 33.0348 174.781 35.7223 172.994 37.8172C172.15 38.782 171.103 39.5476 169.926 40.0586C168.749 40.5696 167.473 40.8132 166.191 40.7717C163.536 40.7717 161.613 39.9619 160.421 38.3421V48ZM168.89 34.4588C169.867 33.3172 170.367 31.8452 170.287 30.3466C170.372 28.8515 169.871 27.3821 168.89 26.2479C168.429 25.7699 167.875 25.3898 167.263 25.1301C166.651 24.8704 165.992 24.7365 165.327 24.7365C164.662 24.7365 164.003 24.8704 163.391 25.1301C162.779 25.3898 162.225 25.7699 161.764 26.2479C160.777 27.3694 160.266 28.8296 160.34 30.3197C160.268 31.8136 160.779 33.2771 161.764 34.4049C162.223 34.8872 162.775 35.2712 163.388 35.5336C164 35.796 164.66 35.9314 165.327 35.9314C165.994 35.9314 166.653 35.796 167.266 35.5336C167.879 35.2712 168.431 34.8872 168.89 34.4049V34.4588Z" fill="#2F323A"/>
<path d="M178.654 34.8832C178.62 34.1217 178.751 33.3619 179.039 32.6557C179.327 31.9495 179.764 31.3135 180.321 30.7913C181.523 29.7231 183.022 29.0447 184.62 28.8462L189.533 28.1194C190.538 27.9848 191.038 27.5136 191.038 26.6993C191.045 26.3438 190.971 25.9913 190.82 25.6692C190.669 25.347 190.446 25.0639 190.167 24.8417C189.388 24.3303 188.468 24.0748 187.536 24.111C186.604 24.1472 185.707 24.4733 184.971 25.0436C184.314 25.6412 183.913 26.4677 183.85 27.3521L179.059 26.3359C179.285 24.5376 180.202 22.8971 181.616 21.7593C183.302 20.3816 185.439 19.6744 187.616 19.7739C190.595 19.7739 192.786 20.4828 194.189 21.9006C194.894 22.6188 195.445 23.4725 195.808 24.4097C196.171 25.3469 196.339 26.3481 196.302 27.3521V37.1513C196.292 38.2085 196.373 39.2646 196.545 40.3078H191.591C191.439 39.5209 191.371 38.7199 191.389 37.9186C190.12 39.8883 188.158 40.8732 185.504 40.8732C183.674 40.9587 181.886 40.3173 180.53 39.0896C179.936 38.5614 179.461 37.9131 179.138 37.1879C178.814 36.4626 178.649 35.677 178.654 34.8832ZM186.651 36.8619C187.798 36.9054 188.921 36.5242 189.803 35.7918C190.626 35.0784 191.038 33.8939 191.038 32.2517V31.3566L186.53 32.0296C184.876 32.2786 184.053 33.1132 184.053 34.5467C184.045 34.8512 184.101 35.1539 184.217 35.4355C184.333 35.7171 184.507 35.9714 184.728 36.1822C184.987 36.4168 185.291 36.5978 185.621 36.7144C185.951 36.8311 186.301 36.8813 186.651 36.8619Z" fill="#2F323A"/>
<path d="M210.651 24.7541C209.978 24.739 209.31 24.8641 208.688 25.1214C208.066 25.3787 207.505 25.7625 207.041 26.2482C206.536 26.7988 206.146 27.4443 205.895 28.147C205.643 28.8496 205.535 29.5953 205.576 30.3402C205.536 31.0897 205.647 31.8396 205.902 32.5458C206.157 33.2519 206.551 33.9002 207.061 34.4524C207.527 34.943 208.091 35.3312 208.716 35.5919C209.341 35.8527 210.014 35.9804 210.692 35.9667C211.792 36.0301 212.876 35.6848 213.735 34.9975C214.474 34.371 215.014 33.543 215.288 32.615L220.012 34.1899C219.492 36.0588 218.382 37.7109 216.847 38.9011C215.088 40.269 212.9 40.9723 210.671 40.8865C209.277 40.9115 207.892 40.6546 206.599 40.1314C205.307 39.6082 204.134 38.8295 203.152 37.8422C202.169 36.8549 201.397 35.6794 200.883 34.3866C200.368 33.0938 200.121 31.7105 200.157 30.32C200.116 28.9266 200.359 27.5394 200.872 26.2425C201.385 24.9457 202.156 23.7662 203.14 22.7754C204.102 21.7909 205.259 21.016 206.536 20.4993C207.814 19.9827 209.185 19.7357 210.563 19.7738C212.815 19.6815 215.028 20.3766 216.82 21.739C218.364 22.9338 219.463 24.6084 219.944 26.4973L215.112 28.1192C214.442 25.8803 212.955 24.7586 210.651 24.7541Z" fill="#2F323A"/>
<path d="M237.21 33.261L241.718 34.607C241.186 36.4257 240.066 38.018 238.532 39.1365C236.815 40.3681 234.735 40.9955 232.62 40.92C231.27 40.9482 229.928 40.7067 228.673 40.2097C227.417 39.7127 226.275 38.9702 225.311 38.026C223.309 36.0877 222.308 33.5077 222.308 30.2862C222.255 28.8955 222.487 27.5086 222.989 26.2103C223.492 24.9119 224.254 23.7294 225.231 22.7349C226.12 21.7932 227.195 21.0443 228.387 20.5348C229.579 20.0254 230.864 19.7662 232.162 19.7736C235.244 19.7736 237.66 20.6934 239.41 22.533C241.16 24.3726 242.033 26.8964 242.028 30.1045C242.028 30.3199 242.028 30.5622 242.028 30.8314C242.028 31.1006 242.028 31.3249 242.028 31.5044L241.988 31.7871H227.626C227.646 32.3998 227.794 33.0018 228.06 33.5545C228.326 34.1072 228.705 34.5986 229.172 34.9974C230.129 35.8526 231.376 36.3144 232.661 36.2896C234.96 36.2941 236.476 35.2845 237.21 33.261ZM227.761 28.0787H236.683C236.656 27.0287 236.226 26.0291 235.482 25.2856C235.044 24.8835 234.529 24.575 233.967 24.3794C233.405 24.1838 232.809 24.1051 232.216 24.1482C231.632 24.1242 231.051 24.2199 230.506 24.4294C229.962 24.639 229.466 24.9579 229.05 25.3664C228.282 26.0695 227.816 27.0411 227.748 28.0787H227.761Z" fill="#2F323A"/>
<path d="M187.503 7.67886C187.503 6.09725 186.639 5.32328 185.06 5.32328C184.055 5.31798 183.087 5.70158 182.36 6.39338L181.618 5.51172C182.603 4.62927 183.892 4.16134 185.215 4.20606C187.193 4.20606 188.772 5.30309 188.772 7.52406V11.5151C188.77 12.1911 188.822 12.8663 188.927 13.5342H187.739C187.65 13.0455 187.602 12.5502 187.598 12.0535H187.564C187.218 12.614 186.727 13.0715 186.143 13.3781C185.559 13.6848 184.903 13.8293 184.243 13.7966C182.894 13.7966 181.078 13.0563 181.078 11.0305C181.078 8.22401 184.189 7.96826 187.53 7.96826L187.503 7.67886ZM187.112 9.0249C184.938 9.0249 182.421 9.26046 182.421 10.9901C182.421 12.2958 183.535 12.7265 184.567 12.7265C184.964 12.7385 185.359 12.6678 185.727 12.5189C186.095 12.3701 186.428 12.1463 186.704 11.8619C186.98 11.5775 187.194 11.2387 187.332 10.8673C187.469 10.4958 187.528 10.0999 187.503 9.70466V9.03163L187.112 9.0249Z" fill="#2F323A"/>
<path d="M192.092 4.4422H193.367C193.401 4.93351 193.442 5.61326 193.442 6.00362H193.482C193.752 5.46468 194.167 5.01124 194.681 4.69393C195.195 4.37661 195.787 4.2079 196.391 4.20664C196.689 4.19711 196.987 4.23113 197.275 4.3076L197.099 5.55269C196.793 5.47604 196.478 5.43761 196.161 5.43828C194.751 5.43828 193.462 6.44781 193.462 8.88415V13.5953H192.112V6.44781C192.173 5.96323 192.153 5.06811 192.092 4.4422Z" fill="#2F323A"/>
<path d="M199.893 1.871C199.645 1.86752 199.409 1.76785 199.234 1.59315C199.059 1.41846 198.959 1.18253 198.955 0.935502C198.955 0.687391 199.054 0.449443 199.23 0.274002C199.406 0.0985615 199.644 0 199.893 0C200.142 0 200.381 0.0985615 200.557 0.274002C200.732 0.449443 200.831 0.687391 200.831 0.935502C200.828 1.18253 200.728 1.41846 200.553 1.59315C200.377 1.76785 200.141 1.86752 199.893 1.871ZM200.568 13.5614H199.218V4.44195H200.568V13.5614Z" fill="#2F323A"/>
<path d="M208.409 4.20672C209.028 4.17554 209.639 4.34763 210.15 4.69657C210.661 5.04551 211.043 5.55201 211.237 6.1383C211.521 5.53659 211.976 5.03202 212.547 4.68826C213.117 4.3445 213.777 4.17694 214.443 4.20672C216.771 4.20672 217.925 5.70757 217.925 7.96892V13.5617H216.576V8.51407C216.576 6.60942 215.901 5.32394 214.207 5.32394C212.297 5.32394 211.608 7.01323 211.608 8.68906V13.5416H210.259V8.22467C210.259 6.44789 209.833 5.30375 208.052 5.30375C206.783 5.30375 205.393 6.4277 205.393 8.86404V13.5752H204.043V6.44789C204.043 5.96331 204.043 5.10184 203.969 4.42882H205.238C205.278 4.92013 205.319 5.59988 205.319 5.99023H205.352C205.646 5.43961 206.088 4.98125 206.627 4.66631C207.167 4.35138 207.784 4.19226 208.409 4.20672Z" fill="#2F323A"/>
<path d="M227.117 7.67886C227.117 6.09725 226.253 5.32328 224.674 5.32328C223.669 5.31798 222.702 5.70158 221.975 6.39338L221.232 5.51172C222.217 4.62927 223.506 4.16134 224.829 4.20606C226.807 4.20606 228.386 5.30309 228.386 7.52406V11.5151C228.384 12.1911 228.436 12.8663 228.541 13.5342H227.353C227.264 13.0455 227.216 12.5502 227.212 12.0535H227.178C226.828 12.6101 226.335 13.0628 225.749 13.3647C225.164 13.6665 224.509 13.8064 223.851 13.7697C222.467 13.7697 220.686 13.0294 220.686 11.0036C220.686 8.19708 223.797 7.94134 227.137 7.94134L227.117 7.67886ZM226.726 9.0249C224.553 9.0249 222.035 9.26046 222.035 10.9901C222.035 12.2958 223.149 12.7265 224.181 12.7265C224.578 12.7385 224.973 12.6678 225.341 12.5189C225.709 12.3701 226.042 12.1463 226.318 11.8619C226.595 11.5775 226.808 11.2387 226.946 10.8673C227.083 10.4958 227.142 10.0999 227.117 9.70466V9.03163L226.726 9.0249Z" fill="#2F323A"/>
<path d="M238.377 6.52864C238.116 6.15027 237.765 5.84227 237.355 5.63208C236.945 5.42189 236.49 5.31603 236.029 5.32393C233.903 5.32393 232.533 6.919 232.533 9.00537C232.533 11.0917 233.883 12.6666 236.009 12.6666C236.488 12.6855 236.965 12.5875 237.398 12.3811C237.83 12.1747 238.206 11.8661 238.492 11.4821L239.491 12.2224C239.074 12.7375 238.542 13.1481 237.937 13.4215C237.332 13.695 236.672 13.8237 236.009 13.7973C235.365 13.8324 234.72 13.7331 234.117 13.5058C233.514 13.2785 232.964 12.9281 232.505 12.4771C232.045 12.0262 231.684 11.4844 231.446 10.8866C231.208 10.2888 231.098 9.6481 231.122 9.00537C231.098 8.36235 231.208 7.72133 231.446 7.1232C231.684 6.52506 232.045 5.98295 232.504 5.53144C232.964 5.07993 233.513 4.72894 234.117 4.50085C234.72 4.27276 235.364 4.17258 236.009 4.20671C236.654 4.20177 237.292 4.34131 237.876 4.61504C238.46 4.88877 238.975 5.28972 239.383 5.78832L238.377 6.52864Z" fill="#2F323A"/>
<path d="M38.4668 47.8988H25.2863C25.0134 47.9012 24.7448 47.8314 24.5077 47.6966C24.2706 47.5619 24.0736 47.3669 23.9365 47.1316L20.002 40.2937L28.3435 25.8506L39.8166 45.6038C39.9529 45.8378 40.0244 46.1038 40.0239 46.3744C40.0233 46.6451 39.9507 46.9107 39.8134 47.1442C39.6761 47.3776 39.479 47.5705 39.2424 47.7031C39.0058 47.8357 38.7382 47.9033 38.4668 47.8988Z" fill="url(#paint0_linear_3507_6980)"/>
<path d="M32.7586 18.273L28.3448 25.8512L20.0033 40.2943L16.0552 47.112C15.9187 47.3478 15.7218 47.5432 15.4846 47.678C15.2474 47.8128 14.9785 47.8823 14.7054 47.8793H1.5317C1.26034 47.8837 0.992662 47.8162 0.756064 47.6836C0.519465 47.551 0.322434 47.3581 0.185129 47.1246C0.0478245 46.8912 -0.0248252 46.6255 -0.0253873 46.3549C-0.0259494 46.0842 0.0455963 45.8183 0.18193 45.5843L11.6415 25.8512L20.0033 11.4014L23.9581 4.57696C24.0941 4.34068 24.2909 4.14495 24.5282 4.01005C24.7655 3.87515 25.0347 3.80598 25.3079 3.80971C25.2165 3.81018 25.127 3.83463 25.0481 3.88062C24.9693 3.92661 24.904 3.9925 24.8588 4.07166C24.8137 4.15082 24.7902 4.24045 24.7909 4.33152C24.7915 4.42259 24.8162 4.51189 24.8624 4.59042L32.7586 18.273Z" fill="#1EC677"/>
<path d="M63.9738 47.8994H50.7933C50.5203 47.9024 50.2514 47.8329 50.0142 47.6981C49.777 47.5633 49.58 47.3679 49.4435 47.1321L32.7604 18.2729L24.8372 4.59033C24.791 4.51181 24.7663 4.42251 24.7656 4.33143C24.765 4.24036 24.7885 4.15073 24.8336 4.07157C24.8788 3.99241 24.9441 3.92652 25.0229 3.88053C25.1017 3.83455 25.1913 3.81009 25.2826 3.80963H40.2246C40.4975 3.80729 40.7661 3.87705 41.0032 4.01181C41.2402 4.14658 41.4373 4.34154 41.5743 4.57687L65.3235 45.6313C65.4531 45.8646 65.5192 46.1276 65.5153 46.3943C65.5113 46.661 65.4374 46.922 65.3009 47.1513C65.1644 47.3807 64.9701 47.5704 64.7372 47.7017C64.5044 47.8329 64.2412 47.9011 63.9738 47.8994Z" fill="url(#paint1_linear_3507_6980)"/>
</g>
<defs>
<linearGradient id="paint0_linear_3507_6980" x1="58.3556" y1="39.2168" x2="7.28869" y2="35.4068" gradientUnits="userSpaceOnUse">
<stop stop-color="#625BFF"/>
<stop offset="1" stop-color="#020032"/>
</linearGradient>
<linearGradient id="paint1_linear_3507_6980" x1="59.2833" y1="26.8741" x2="8.21637" y2="23.0641" gradientUnits="userSpaceOnUse">
<stop stop-color="#625BFF"/>
<stop offset="1" stop-color="#020032"/>
</linearGradient>
<clipPath id="clip0_3507_6980">
<rect width="242" height="48" fill="white"/>
</clipPath>
</defs>
</svg>
