<svg width="346" height="320" viewBox="0 0 346 320" fill="none" xmlns="http://www.w3.org/2000/svg">
<path d="M308.144 16.2627V302.824C308.144 311.807 300.865 319.087 291.881 319.087H149.18C144.666 319.087 140.586 317.251 137.638 314.284C134.721 311.341 132.917 307.294 132.917 302.824V16.2627C132.917 7.27921 140.196 0 149.18 0H291.881C294.537 0 297.043 0.635728 299.258 1.76557C304.535 4.45409 308.144 9.93459 308.144 16.2627Z" fill="#3B3E7D"/>
<path d="M302.083 16.2627V302.824C302.083 311.807 294.804 319.087 285.821 319.087H143.119C138.606 319.087 134.525 317.251 131.578 314.284C128.66 311.341 126.856 307.294 126.856 302.824V16.2627C126.856 7.27921 134.136 0 143.119 0H285.821C288.476 0 290.983 0.635728 293.197 1.76557C298.473 4.45409 302.083 9.93459 302.083 16.2627Z" fill="#18285D"/>
<path d="M305.179 70.4795H307.429C309.528 70.4795 311.23 68.7782 311.23 66.6792V48.3999C311.23 46.3009 309.528 44.5996 307.429 44.5996H305.179V70.4795Z" fill="#18285D"/>
<path d="M126.864 70.4776H125.101C123.456 70.4776 122.123 69.1439 122.123 67.4998V47.5754C122.123 45.9314 123.456 44.5977 125.101 44.5977H126.864V70.4776Z" fill="#18285D"/>
<path d="M126.864 104.429H125.101C123.456 104.429 122.123 103.095 122.123 101.451V81.5266C122.123 79.8816 123.456 78.5488 125.101 78.5488H126.864V104.429Z" fill="#18285D"/>
<path d="M293.973 15.276V303.805C293.973 307.771 290.762 310.969 286.808 310.969H142.139C139.178 310.969 136.639 309.178 135.543 306.61C135.177 305.745 134.975 304.799 134.975 303.805V15.276C134.975 11.3221 138.183 8.11133 142.139 8.11133H286.808C287.279 8.11133 287.738 8.15551 288.181 8.24188C288.682 8.33729 289.164 8.48694 289.623 8.68278C291.832 9.63787 293.472 11.6626 293.876 14.1C293.941 14.4816 293.973 14.8753 293.973 15.276Z" fill="white"/>
<path d="M207.816 97.1113H135.432V225.189H207.816V97.1113Z" fill="#E9E2E8"/>
<path d="M230.38 87.1385V220.227C230.38 226.372 226.36 231.62 220.819 233.471C219.434 233.934 217.954 234.186 216.421 234.186C208.742 234.186 202.462 227.906 202.462 220.227V87.1385C202.462 79.4596 208.742 73.1797 216.421 73.1797C217.954 73.1797 219.435 73.4318 220.819 73.8948C222.895 74.5867 224.761 75.7608 226.28 77.2793C228.812 79.8111 230.38 83.2991 230.38 87.1385Z" fill="#18285D"/>
<path d="M230.377 87.1383V220.227C230.377 226.372 226.358 231.62 220.816 233.47C215.274 231.62 211.255 226.372 211.255 220.227V87.1383C211.255 80.993 215.274 75.7455 220.816 73.8945C222.893 74.5865 224.759 75.7605 226.277 77.279C228.809 79.8109 230.377 83.2988 230.377 87.1383Z" fill="#3B3E7D"/>
<path d="M224.52 90.6735V200.82C224.52 205.772 220.501 209.788 215.548 209.788H28.4938C26.2643 209.788 24.2185 208.97 22.6498 207.624C20.7376 205.98 19.5254 203.539 19.5254 200.821V90.6735C19.5254 85.7213 23.5406 81.7051 28.4938 81.7051H215.548C220.5 81.7051 224.52 85.7213 224.52 90.6735Z" fill="#4641B5"/>
<path d="M224.516 104.354H19.5234V128.766H224.516V104.354Z" fill="#3B3E7D"/>
<path d="M205.451 193.239H165.753C163.4 193.239 161.493 191.332 161.493 188.979V180.608C161.493 178.255 163.4 176.348 165.753 176.348H205.451C207.804 176.348 209.711 178.255 209.711 180.608V188.979C209.711 191.332 207.804 193.239 205.451 193.239Z" fill="#D5EFCB"/>
<path d="M46.0094 157.723H32.4965C31.9029 157.723 31.4219 157.242 31.4219 156.649V149.584C31.4219 148.991 31.9029 148.51 32.4965 148.51H46.0094C46.6029 148.51 47.084 148.991 47.084 149.584V156.649C47.085 157.242 46.6029 157.723 46.0094 157.723Z" fill="#C1E8B1"/>
<path d="M73.5963 157.723H60.0834C59.4899 157.723 59.0088 157.242 59.0088 156.649V149.584C59.0088 148.991 59.4899 148.51 60.0834 148.51H73.5963C74.1899 148.51 74.6709 148.991 74.6709 149.584V156.649C74.6709 157.242 74.1899 157.723 73.5963 157.723Z" fill="#C1E8B1"/>
<path d="M101.191 157.723H87.6781C87.0846 157.723 86.6035 157.242 86.6035 156.649V149.584C86.6035 148.991 87.0846 148.51 87.6781 148.51H101.191C101.785 148.51 102.266 148.991 102.266 149.584V156.649C102.266 157.242 101.785 157.723 101.191 157.723Z" fill="#C1E8B1"/>
<path d="M128.778 157.723H115.265C114.671 157.723 114.19 157.242 114.19 156.649V149.584C114.19 148.991 114.671 148.51 115.265 148.51H128.778C129.372 148.51 129.853 148.991 129.853 149.584V156.649C129.853 157.242 129.372 157.723 128.778 157.723Z" fill="#C1E8B1"/>
<path d="M156.365 157.723H142.852C142.258 157.723 141.777 157.242 141.777 156.649V149.584C141.777 148.991 142.258 148.51 142.852 148.51H156.365C156.958 148.51 157.439 148.991 157.439 149.584V156.649C157.44 157.242 156.958 157.723 156.365 157.723Z" fill="#C1E8B1"/>
<path d="M183.96 157.723H170.447C169.853 157.723 169.372 157.242 169.372 156.649V149.584C169.372 148.991 169.853 148.51 170.447 148.51H183.96C184.553 148.51 185.034 148.991 185.034 149.584V156.649C185.034 157.242 184.553 157.723 183.96 157.723Z" fill="#C1E8B1"/>
<path d="M211.546 157.723H198.034C197.44 157.723 196.959 157.242 196.959 156.649V149.584C196.959 148.991 197.44 148.51 198.034 148.51H211.546C212.14 148.51 212.621 148.991 212.621 149.584V156.649C212.621 157.242 212.14 157.723 211.546 157.723Z" fill="#C1E8B1"/>
<path d="M224.518 91.418H19.5254V96.098H224.518V91.418Z" fill="#D5EFCB"/>
<path d="M52.0513 195.645H38.3787C34.5353 195.645 31.4199 192.53 31.4199 188.686V175.013C31.4199 171.17 34.5353 168.055 38.3787 168.055H52.0513C55.8948 168.055 59.0102 171.17 59.0102 175.013V188.686C59.0102 192.53 55.8948 195.645 52.0513 195.645Z" fill="#D5EFCB"/>
<path d="M152.519 188.594H67.9771C66.6584 188.594 65.5898 187.525 65.5898 186.207V183.379C65.5898 182.061 66.6584 180.992 67.9771 180.992H152.519C153.838 180.992 154.907 182.061 154.907 183.379V186.207C154.907 187.525 153.838 188.594 152.519 188.594Z" fill="#D5EFCB"/>
<path opacity="0.2" d="M148.567 81.7051L22.6498 207.623C20.7376 205.979 19.5254 203.538 19.5254 200.82V162.178L99.9983 81.7051H148.567Z" fill="white"/>
<path opacity="0.2" d="M215.161 81.7051L87.0793 209.788H63.3145L191.397 81.7051H215.161Z" fill="white"/>
<path d="M79.2045 307.114C79.2055 307.152 79.2055 307.188 79.2055 307.226C79.2055 308.598 78.4733 309.918 77.1235 311.15C76.7941 311.451 76.4276 311.746 76.0258 312.036C74.903 312.847 73.505 313.611 71.868 314.32C71.5135 314.474 71.1469 314.625 70.7703 314.772C69.5019 315.272 68.1119 315.739 66.6135 316.171C66.254 316.275 65.8884 316.377 65.5158 316.477C64.2032 316.828 62.8142 317.153 61.357 317.449C60.9954 317.523 60.6298 317.594 60.2593 317.664C58.9245 317.917 57.5366 318.146 56.1014 318.349C55.7389 318.401 55.3733 318.45 55.0037 318.499C53.654 318.674 52.267 318.829 50.8459 318.958C50.4814 318.991 50.1158 319.024 49.7482 319.053C48.3894 319.164 47.0024 319.253 45.5914 319.32C45.2268 319.337 44.8613 319.353 44.4937 319.366C43.1278 319.417 41.7419 319.448 40.3359 319.456C40.0918 319.457 39.8468 319.458 39.6017 319.458C39.4812 319.458 39.3597 319.458 39.2392 319.457C37.8341 319.454 36.4472 319.428 35.0803 319.38C34.7128 319.367 34.3472 319.353 33.9826 319.337C32.9432 319.292 31.9158 319.232 30.9034 319.163C30.5419 319.138 30.1824 319.112 29.8258 319.084C29.4583 319.056 29.0927 319.025 28.7281 318.991C27.308 318.867 25.9201 318.718 24.5713 318.547C24.2017 318.5 23.8372 318.453 23.4736 318.402C22.6139 318.283 21.7713 318.156 20.9438 318.019C20.3934 317.928 19.8511 317.833 19.3158 317.734C18.9462 317.666 18.5796 317.595 18.2181 317.523C16.7638 317.235 15.3749 316.917 14.0593 316.574C13.8001 316.507 13.543 316.437 13.2879 316.368C13.1785 316.338 13.07 316.308 12.9615 316.277C12.367 316.111 11.7875 315.937 11.2281 315.76C10.3795 315.489 9.57102 315.208 8.80473 314.917C8.42812 314.772 8.06255 314.627 7.70703 314.478C6.30402 313.89 5.06772 313.263 4.01922 312.601C3.85854 312.5 3.70086 312.397 3.54921 312.294C3.35839 312.165 3.17561 312.036 3.00086 311.904C2.80904 311.761 2.62726 311.617 2.45251 311.471C0.866712 310.149 0 308.718 0 307.226C0 307.122 0.00502091 307.017 0.015064 306.912L0.019079 298.458L2.45251 298.455L3.55022 298.453L7.70803 298.447L8.80574 298.445L12.0506 298.44L12.9636 298.439L14.0613 298.437L18.2201 298.431L19.3178 298.43L23.4756 298.423L24.5733 298.422L28.7301 298.415L29.8278 298.414L33.9847 298.408L35.0824 298.406L39.2412 298.4L40.3389 298.398L44.4967 298.392L45.5944 298.391L49.7512 298.384L50.8489 298.383L55.0068 298.376L56.1045 298.375L60.2623 298.369L61.36 298.367L65.5188 298.361L66.6165 298.359H66.8867L70.7733 298.353L71.871 298.352L76.0289 298.345L77.1266 298.344L79.1934 298.34L79.2085 307.113H79.2045V307.114Z" fill="#E1F3A8"/>
<path d="M3.55861 298.453V312.293C3.3678 312.165 3.18501 312.035 3.01026 311.904C2.81844 311.761 2.63666 311.617 2.46191 311.471V298.455L3.55861 298.453Z" fill="#4641B5"/>
<path d="M8.81645 298.445V314.917C8.43984 314.772 8.07427 314.627 7.71875 314.478V298.447L8.81645 298.445Z" fill="#4641B5"/>
<path d="M14.0655 298.436V316.572C13.8064 316.505 13.5493 316.436 13.2942 316.366C13.1847 316.336 13.0762 316.306 12.9678 316.275V298.438L14.0655 298.436Z" fill="#4641B5"/>
<path d="M19.3223 298.43V317.732C18.9527 317.664 18.5862 317.594 18.2246 317.522V298.43H19.3223Z" fill="#4641B5"/>
<path d="M24.5792 298.422V318.546C24.2096 318.499 23.845 318.452 23.4814 318.401V298.423L24.5792 298.422Z" fill="#4641B5"/>
<path d="M29.836 298.412V319.081C29.4684 319.053 29.1028 319.021 28.7383 318.988V298.413L29.836 298.412Z" fill="#4641B5"/>
<path d="M35.085 298.404V319.378C34.7174 319.365 34.3519 319.351 33.9873 319.335V298.407L35.085 298.404Z" fill="#4641B5"/>
<path d="M40.3486 298.398V319.457C40.1046 319.458 39.8596 319.459 39.6145 319.459C39.494 319.459 39.3725 319.459 39.252 319.458V298.4L40.3486 298.398Z" fill="#4641B5"/>
<path d="M45.5987 298.391V319.319C45.2341 319.336 44.8686 319.352 44.501 319.366V298.392L45.5987 298.391Z" fill="#4641B5"/>
<path d="M50.8555 298.383V318.958C50.491 318.991 50.1254 319.023 49.7578 319.052V298.384L50.8555 298.383Z" fill="#4641B5"/>
<path d="M56.1123 298.375V318.349C55.7498 318.401 55.3842 318.45 55.0146 318.499V298.376L56.1123 298.375Z" fill="#4641B5"/>
<path d="M61.3614 298.367V317.449C60.9998 317.523 60.6343 317.595 60.2637 317.664V298.369L61.3614 298.367Z" fill="#4641B5"/>
<path d="M66.6192 298.359V316.172C66.2597 316.275 65.8941 316.378 65.5215 316.477V298.361L66.6192 298.359Z" fill="#4641B5"/>
<path d="M71.876 298.352V314.32C71.5215 314.474 71.1549 314.624 70.7783 314.772V298.353L71.876 298.352Z" fill="#4641B5"/>
<path d="M77.1329 298.344V311.149C76.8034 311.45 76.4369 311.745 76.0352 312.034V298.344H77.1329Z" fill="#4641B5"/>
<path d="M79.196 298.447C79.196 304.656 61.474 309.69 39.6053 309.69C36.6175 309.69 33.707 309.596 30.909 309.418C27.3899 309.194 24.0476 308.838 20.9524 308.367C18.1885 307.947 15.6215 307.436 13.2996 306.849C12.5895 306.671 11.9026 306.484 11.2407 306.29C8.32926 305.441 5.88779 304.462 4.03385 303.387C3.67129 303.178 3.33083 302.965 3.01548 302.747C1.0822 301.422 0.015625 299.97 0.015625 298.447C0.015625 298.308 0.0256695 298.169 0.0477642 298.03C0.815053 292.014 18.2337 287.203 39.6063 287.203C44.8659 287.203 49.8854 287.494 54.476 288.024C55.3628 288.126 56.2336 288.237 57.0872 288.356C60.8162 288.878 64.2128 289.561 67.1644 290.375C67.8152 290.553 68.4439 290.739 69.0495 290.93C71.2057 291.611 73.0727 292.366 74.5973 293.182C76.168 294.022 77.3742 294.927 78.1565 295.877C78.727 296.572 79.0714 297.29 79.1649 298.029C79.187 298.169 79.196 298.309 79.196 298.447Z" fill="#79CC56"/>
<path opacity="0.3" d="M78.1534 295.88L30.9059 309.419C27.3868 309.195 24.0445 308.839 20.9492 308.368L74.5941 293.184C76.1639 294.025 77.371 294.929 78.1534 295.88Z" fill="white"/>
<path opacity="0.3" d="M57.0844 288.357L4.03106 303.387C3.66851 303.177 3.32805 302.964 3.0127 302.747L54.4723 288.023C55.3601 288.126 56.2308 288.237 57.0844 288.357Z" fill="white"/>
<path opacity="0.3" d="M69.0519 290.931L13.302 306.85C12.5919 306.671 11.905 306.484 11.2432 306.29L67.1669 290.375C67.8166 290.555 68.4453 290.741 69.0519 290.931Z" fill="white"/>
<path d="M71.2511 298.447C71.2511 298.585 71.2381 298.724 71.22 298.86C70.4567 303.625 56.5702 307.434 39.6075 307.434C22.6448 307.434 8.75928 303.625 7.995 298.86C7.97693 298.724 7.96387 298.585 7.96387 298.447C7.96387 293.492 22.1587 289.461 39.6065 289.461C57.0563 289.461 71.2511 293.492 71.2511 298.447Z" fill="#4641B5"/>
<path d="M71.2181 298.86C70.4548 303.624 56.5683 307.434 39.6056 307.434C39.226 307.434 38.8504 307.432 38.4758 307.428C34.6915 307.391 31.076 307.164 27.7387 306.778C24.4004 306.393 21.3453 305.851 18.6879 305.184C18.012 305.014 17.3633 304.838 16.7366 304.652C13.9024 303.808 11.6327 302.81 10.1182 301.704C9.75165 301.44 9.42927 301.168 9.1561 300.892C8.50229 300.241 8.10961 299.56 7.99512 298.859C8.75939 294.094 22.6449 290.283 39.6076 290.283C41.7538 290.283 43.8508 290.344 45.8815 290.461C46.9149 290.52 47.9343 290.594 48.9326 290.682C53.008 291.039 56.734 291.625 59.9257 292.386C60.6146 292.551 61.2815 292.724 61.9212 292.905C64.4069 293.607 66.4868 294.426 68.0445 295.331C69.563 296.213 70.5874 297.173 71.0202 298.185C71.1167 298.407 71.1829 298.632 71.2181 298.86Z" fill="#E1F3A8"/>
<path opacity="0.2" d="M71.0178 298.186L38.4733 307.429C34.6891 307.392 31.0736 307.165 27.7363 306.779L68.0421 295.332C69.5606 296.214 70.585 297.174 71.0178 298.186Z" fill="white"/>
<path opacity="0.2" d="M48.9317 290.684L10.1184 301.705C9.7518 301.441 9.42942 301.169 9.15625 300.893L45.8817 290.463C46.9141 290.522 47.9345 290.595 48.9317 290.684Z" fill="white"/>
<path opacity="0.2" d="M61.92 292.908L18.6867 305.187C18.0108 305.017 17.362 304.84 16.7354 304.654L59.9234 292.389C60.6134 292.552 61.2793 292.726 61.92 292.908Z" fill="white"/>
<path d="M43.9992 303.545V305.039H37.3206V303.613C32.5843 303.532 27.9906 303.169 25.1484 302.672L28.7479 300.358C31.8743 300.882 36.0421 301.218 39.6888 301.218C42.8624 301.218 43.9992 301.03 43.9992 300.707C43.9992 299.524 25.6697 300.478 25.6697 296.968C25.6697 295.449 29.5533 294.17 37.3206 293.861V292.395H43.9992V293.834C47.5042 293.928 50.9139 294.183 53.6134 294.614L50.251 296.914C46.983 296.443 43.9048 296.215 41.0154 296.215C37.7474 296.215 36.705 296.484 36.705 296.806C36.705 297.936 55.0345 296.995 55.0345 300.465C55.0345 301.918 51.3407 303.183 43.9992 303.545Z" fill="#4641B5"/>
<path d="M43.8059 303.05V304.544H37.1272V303.118C32.3909 303.037 27.7973 302.674 24.9551 302.175L28.5545 299.862C31.6809 300.386 35.8488 300.722 39.4954 300.722C42.669 300.722 43.8059 300.534 43.8059 300.211C43.8059 299.027 25.4763 299.982 25.4763 296.472C25.4763 294.952 29.36 293.674 37.1272 293.365V291.898H43.8059V293.338C47.3109 293.432 50.7205 293.687 53.4211 294.118L50.0587 296.418C46.7907 295.947 43.7125 295.718 40.8231 295.718C37.5551 295.718 36.5126 295.987 36.5126 296.309C36.5126 297.439 54.8422 296.498 54.8422 299.968C54.8422 301.422 51.1473 302.687 43.8059 303.05Z" fill="#79CC56"/>
<path d="M81.6996 293.242C81.7006 293.281 81.7006 293.317 81.7006 293.354C81.7006 294.727 80.9685 296.046 79.6187 297.278C79.2893 297.579 78.9217 297.874 78.521 298.163C77.3972 298.974 76.0002 299.738 74.3632 300.448C74.0087 300.602 73.6421 300.753 73.2655 300.9C71.997 301.4 70.6061 301.867 69.1077 302.299C68.7481 302.403 68.3826 302.505 68.01 302.604C66.6973 302.957 65.3084 303.281 63.8511 303.578C63.4896 303.652 63.124 303.723 62.7534 303.793C61.4187 304.046 60.0308 304.275 58.5956 304.478C58.2331 304.53 57.8675 304.579 57.4979 304.628C56.1481 304.804 54.7612 304.958 53.3401 305.087C52.9755 305.12 52.61 305.152 52.2424 305.182C50.8836 305.293 49.4966 305.381 48.0846 305.449C47.721 305.466 47.3544 305.482 46.9869 305.495C45.621 305.546 44.2341 305.577 42.829 305.585C42.585 305.586 42.3389 305.587 42.0949 305.587C41.9744 305.587 41.8529 305.587 41.7323 305.586C40.3273 305.583 38.9404 305.557 37.5735 305.509C37.2059 305.496 36.8404 305.482 36.4758 305.466C35.4364 305.421 34.409 305.361 33.3966 305.291C33.0351 305.266 32.6755 305.24 32.319 305.212C31.9514 305.184 31.5859 305.152 31.2213 305.119C29.8012 304.995 28.4133 304.846 27.0635 304.675C26.6939 304.628 26.3283 304.581 25.9658 304.53C25.1061 304.411 24.2625 304.284 23.4359 304.147C22.8856 304.056 22.3432 303.961 21.8079 303.862C21.4384 303.794 21.0718 303.722 20.7102 303.651C19.256 303.363 17.8671 303.045 16.5514 302.702C16.2923 302.635 16.0342 302.565 15.7801 302.496C15.6706 302.466 15.5622 302.436 15.4547 302.405C14.8602 302.238 14.2807 302.065 13.7213 301.887C12.8727 301.617 12.0642 301.336 11.2979 301.045C10.9213 300.9 10.5557 300.755 10.2002 300.606C8.79718 300.018 7.56088 299.391 6.51239 298.729C6.3507 298.627 6.19302 298.525 6.04238 298.422C5.85156 298.293 5.66877 298.162 5.49402 298.032C5.3022 297.889 5.11942 297.745 4.94568 297.599C3.35988 296.277 2.49316 294.846 2.49316 293.354C2.49316 293.249 2.49818 293.144 2.50823 293.04L2.51225 284.586L4.94568 284.583L6.04338 284.581L10.2012 284.575L11.2989 284.573L14.5438 284.568L15.4567 284.567L16.5544 284.565L20.7133 284.559L21.811 284.558L25.9678 284.551L27.0655 284.55L31.2233 284.543L32.321 284.542L36.4778 284.536L37.5755 284.534L41.7344 284.528L42.8321 284.526L46.9899 284.52L48.0876 284.519L52.2454 284.512L53.3431 284.511L57.5009 284.504L58.5986 284.503L62.7565 284.497L63.8542 284.495L68.013 284.489L69.1107 284.487H69.3819L73.2685 284.481L74.3662 284.48L78.524 284.473L79.6217 284.472L81.6886 284.469L81.6996 293.242Z" fill="#E1F3A8"/>
<path d="M6.04202 284.58V298.42C5.8512 298.292 5.66841 298.161 5.49366 298.031C5.30184 297.888 5.11906 297.744 4.94531 297.598V284.582L6.04202 284.58Z" fill="#4641B5"/>
<path d="M11.2999 284.572V301.044C10.9232 300.899 10.5577 300.754 10.2021 300.605V284.574L11.2999 284.572Z" fill="#4641B5"/>
<path d="M16.5557 284.564V302.701C16.2966 302.634 16.0385 302.565 15.7844 302.495C15.6749 302.465 15.5664 302.435 15.459 302.404V284.566L16.5557 284.564Z" fill="#4641B5"/>
<path d="M21.8057 284.559V303.862C21.4361 303.794 21.0696 303.723 20.708 303.651V284.56L21.8057 284.559Z" fill="#4641B5"/>
<path d="M27.0625 284.551V304.675C26.693 304.628 26.3274 304.581 25.9648 304.529V284.552L27.0625 284.551Z" fill="#4641B5"/>
<path d="M32.3194 284.541V305.21C31.9518 305.181 31.5862 305.15 31.2217 305.117V284.542L32.3194 284.541Z" fill="#4641B5"/>
<path d="M37.5762 284.533V305.507C37.2086 305.494 36.8431 305.48 36.4785 305.464V284.536L37.5762 284.533Z" fill="#4641B5"/>
<path d="M42.8321 284.525V305.584C42.588 305.585 42.342 305.586 42.0979 305.586C41.9774 305.586 41.8559 305.586 41.7354 305.585V284.527L42.8321 284.525Z" fill="#4641B5"/>
<path d="M48.0821 284.52V305.448C47.7185 305.465 47.352 305.481 46.9844 305.494V284.521L48.0821 284.52Z" fill="#4641B5"/>
<path d="M53.3389 284.512V305.087C52.9744 305.12 52.6088 305.152 52.2412 305.181V284.513L53.3389 284.512Z" fill="#4641B5"/>
<path d="M58.5958 284.504V304.478C58.2332 304.53 57.8676 304.579 57.498 304.628V284.505L58.5958 284.504Z" fill="#4641B5"/>
<path d="M63.8448 284.496V303.579C63.4832 303.653 63.1177 303.725 62.7471 303.794V284.499L63.8448 284.496Z" fill="#4641B5"/>
<path d="M69.1016 284.488V302.301C68.7421 302.404 68.3765 302.507 68.0039 302.606V284.49L69.1016 284.488Z" fill="#4641B5"/>
<path d="M74.3594 284.48V300.449C74.0049 300.603 73.6383 300.753 73.2617 300.901V284.481L74.3594 284.48Z" fill="#4641B5"/>
<path d="M79.6163 284.473V297.278C79.2868 297.579 78.9193 297.874 78.5186 298.163V284.473H79.6163Z" fill="#4641B5"/>
<path d="M81.6921 284.577C81.6921 290.786 63.9701 295.82 42.1014 295.82C39.1136 295.82 36.2031 295.726 33.4051 295.548C29.886 295.324 26.5447 294.968 23.4485 294.497C20.6846 294.077 18.1176 293.566 15.7957 292.979C15.0856 292.8 14.3987 292.614 13.7368 292.42C10.8253 291.571 8.38389 290.592 6.52994 289.517C6.16739 289.307 5.82592 289.095 5.51158 288.878C3.57829 287.553 2.51172 286.101 2.51172 284.578C2.51172 284.44 2.52176 284.3 2.54385 284.16C3.31114 278.145 20.7298 273.334 42.1024 273.334C47.3619 273.334 52.3815 273.625 56.9721 274.154C57.8589 274.256 58.7297 274.366 59.5833 274.486C63.3133 275.008 66.7089 275.691 69.6605 276.505C70.3113 276.683 70.94 276.869 71.5466 277.06C73.7028 277.741 75.5698 278.496 77.0944 279.312C78.6651 280.152 79.8713 281.057 80.6536 282.008C81.2241 282.702 81.5686 283.421 81.6619 284.159C81.683 284.299 81.6921 284.439 81.6921 284.577Z" fill="#79CC56"/>
<path opacity="0.3" d="M80.6495 282.009L33.402 295.548C29.8829 295.324 26.5416 294.968 23.4453 294.497L77.0902 279.312C78.661 280.154 79.8671 281.058 80.6495 282.009Z" fill="white"/>
<path opacity="0.3" d="M59.5805 274.487L6.52715 289.517C6.1646 289.307 5.82314 289.094 5.50879 288.877L56.9693 274.154C57.8561 274.256 58.7269 274.366 59.5805 274.487Z" fill="white"/>
<path opacity="0.3" d="M71.548 277.062L15.7981 292.98C15.088 292.802 14.4011 292.615 13.7393 292.421L69.6629 276.506C70.3127 276.686 70.9414 276.871 71.548 277.062Z" fill="white"/>
<path d="M73.7462 284.578C73.7462 284.716 73.7331 284.855 73.7151 284.991C72.9518 289.756 59.0663 293.565 42.1026 293.565C25.1399 293.565 11.2544 289.756 10.4901 284.991C10.473 284.855 10.46 284.717 10.46 284.578C10.46 279.623 24.6548 275.592 42.1026 275.592C59.5524 275.592 73.7462 279.622 73.7462 284.578Z" fill="#4641B5"/>
<path d="M73.7152 284.991C72.9519 289.755 59.0664 293.565 42.1027 293.565C41.7231 293.565 41.3475 293.562 40.9718 293.559C37.1886 293.52 33.5721 293.294 30.2348 292.909C26.8965 292.524 23.8414 291.982 21.184 291.315C20.5081 291.145 19.8594 290.968 19.2327 290.783C16.3985 289.939 14.1288 288.941 12.6143 287.835C12.2477 287.571 11.9254 287.299 11.6522 287.023C10.9984 286.372 10.6057 285.691 10.4912 284.99C11.2555 280.224 25.141 276.414 42.1037 276.414C44.2499 276.414 46.3469 276.475 48.3776 276.592C49.411 276.651 50.4304 276.724 51.4287 276.813C55.5041 277.17 59.2301 277.756 62.4218 278.517C63.1107 278.681 63.7776 278.855 64.4173 279.036C66.903 279.738 68.9829 280.557 70.5416 281.462C72.0601 282.343 73.0845 283.304 73.5173 284.316C73.6137 284.539 73.68 284.764 73.7152 284.991Z" fill="#E1F3A8"/>
<path opacity="0.2" d="M73.5139 284.315L40.9694 293.558C37.1862 293.52 33.5697 293.294 30.2324 292.908L70.5382 281.461C72.0567 282.343 73.0811 283.303 73.5139 284.315Z" fill="white"/>
<path opacity="0.2" d="M51.4278 276.815L12.6145 287.836C12.2479 287.572 11.9255 287.3 11.6523 287.023L48.3767 276.594C49.4102 276.653 50.4295 276.726 51.4278 276.815Z" fill="white"/>
<path opacity="0.2" d="M64.4151 279.037L21.1828 291.315C20.5069 291.146 19.8581 290.969 19.2314 290.783L62.4196 278.518C63.1085 278.682 63.7754 278.855 64.4151 279.037Z" fill="white"/>
<path d="M46.511 289.675V291.169H39.8323V289.743C35.096 289.662 30.5013 289.299 27.6602 288.8L31.2596 286.487C34.386 287.011 38.5539 287.347 42.2005 287.347C45.3741 287.347 46.511 287.158 46.511 286.836C46.511 285.653 28.1814 286.607 28.1814 283.097C28.1814 281.578 32.065 280.299 39.8323 279.99V278.523H46.511V279.963C50.016 280.057 53.4256 280.312 56.1262 280.743L52.7638 283.043C49.4957 282.572 46.4165 282.343 43.5282 282.343C40.2602 282.343 39.2187 282.612 39.2187 282.934C39.2187 284.064 57.5483 283.123 57.5483 286.593C57.5473 288.047 53.8524 289.312 46.511 289.675Z" fill="#4641B5"/>
<path d="M46.3117 289.179V290.673H39.6341V289.246C34.8978 289.166 30.3031 288.803 27.4619 288.304L31.0613 285.99C34.1877 286.515 38.3556 286.851 42.0022 286.851C45.1758 286.851 46.3127 286.663 46.3127 286.34C46.3127 285.156 27.9832 286.111 27.9832 282.601C27.9832 281.08 31.8668 279.803 39.6341 279.494V278.027H46.3117V279.466C49.8167 279.561 53.2273 279.816 55.9269 280.247L52.5645 282.547C49.2965 282.076 46.2183 281.847 43.3289 281.847C40.0609 281.847 39.0195 282.116 39.0195 282.438C39.0195 283.568 57.349 282.627 57.349 286.097C57.347 287.552 53.6532 288.817 46.3117 289.179Z" fill="#79CC56"/>
<path d="M81.3276 279.374C81.3286 279.411 81.3286 279.448 81.3286 279.486C81.3286 280.859 80.5965 282.178 79.2467 283.409C78.9173 283.711 78.5497 284.006 78.149 284.295C77.0262 285.107 75.6282 285.871 73.9911 286.58C73.6366 286.734 73.2701 286.884 72.8934 287.032C71.625 287.532 70.235 287.999 68.7356 288.431C68.3761 288.534 68.0115 288.637 67.6379 288.736C66.3253 289.089 64.9363 289.413 63.4791 289.709C63.1175 289.783 62.752 289.855 62.3814 289.924C61.0467 290.177 59.6587 290.406 58.2236 290.609C57.86 290.662 57.4954 290.711 57.1259 290.76C55.7761 290.935 54.3891 291.089 52.968 291.219C52.6035 291.252 52.2379 291.284 51.8703 291.313C50.5115 291.425 49.1236 291.514 47.7125 291.579C47.348 291.597 46.9824 291.613 46.6148 291.626C45.249 291.677 43.862 291.708 42.457 291.716C42.2129 291.717 41.9669 291.718 41.7229 291.718C41.6023 291.718 41.4808 291.718 41.3603 291.717C39.9553 291.714 38.5683 291.688 37.2015 291.64C36.8339 291.628 36.4683 291.613 36.1038 291.597C35.0643 291.551 34.0369 291.492 33.0236 291.423C32.662 291.398 32.3025 291.372 31.9459 291.342C31.5784 291.314 31.2128 291.283 30.8482 291.25C29.4282 291.126 28.0402 290.977 26.6914 290.806C26.3218 290.76 25.9573 290.712 25.5937 290.661C24.734 290.542 23.8904 290.414 23.0639 290.278C22.5135 290.187 21.9712 290.092 21.4359 289.994C21.0663 289.925 20.6997 289.854 20.3382 289.783C18.884 289.495 17.495 289.177 16.1794 288.834C15.9203 288.766 15.6632 288.697 15.4081 288.628C15.2986 288.599 15.1901 288.568 15.0817 288.536C14.4871 288.37 13.9076 288.197 13.3482 288.019C12.4996 287.749 11.6911 287.468 10.9249 287.177C10.5482 287.032 10.1827 286.886 9.82715 286.738C8.42414 286.15 7.18784 285.523 6.13934 284.861C5.97865 284.759 5.82098 284.657 5.66933 284.553C5.47851 284.425 5.29573 284.294 5.12098 284.164C4.92916 284.021 4.74637 283.876 4.57263 283.731C2.98683 282.409 2.12012 280.978 2.12012 279.486C2.12012 279.381 2.12514 279.277 2.13518 279.171L2.1392 270.718L4.57263 270.715L5.67033 270.713L9.82815 270.707L10.9259 270.705L14.1708 270.701L15.0837 270.7L16.1814 270.698L20.3402 270.692L21.4379 270.691L25.5947 270.684L26.6924 270.683L30.8492 270.676L31.947 270.675L36.1048 270.669L37.2025 270.667L41.3613 270.661L42.459 270.659L46.6168 270.653L47.7145 270.652L51.8723 270.645L52.9701 270.644L57.1279 270.637L58.2256 270.636L62.3834 270.63L63.4811 270.628L67.6399 270.622L68.7376 270.62H69.0088L72.8954 270.614L73.9932 270.613L78.151 270.606L79.2487 270.605L81.3155 270.602L81.3306 279.375L81.3276 279.374Z" fill="#E1F3A8"/>
<path d="M5.66506 270.713V284.553C5.47424 284.425 5.29146 284.294 5.11671 284.164C4.92489 284.021 4.7421 283.876 4.56836 283.731V270.715L5.66506 270.713Z" fill="#4641B5"/>
<path d="M10.9229 270.707V287.179C10.5463 287.034 10.1807 286.888 9.8252 286.74V270.709L10.9229 270.707Z" fill="#4641B5"/>
<path d="M16.1719 270.697V288.834C15.9128 288.767 15.6557 288.697 15.4006 288.628C15.2911 288.599 15.1827 288.568 15.0742 288.537V270.699L16.1719 270.697Z" fill="#4641B5"/>
<path d="M21.4288 270.691V289.994C21.0592 289.926 20.6926 289.855 20.3311 289.783V270.692L21.4288 270.691Z" fill="#4641B5"/>
<path d="M26.6856 270.684V290.808C26.316 290.762 25.9514 290.713 25.5879 290.662V270.685L26.6856 270.684Z" fill="#4641B5"/>
<path d="M31.9424 270.674V291.342C31.5749 291.314 31.2093 291.283 30.8447 291.25V270.675L31.9424 270.674Z" fill="#4641B5"/>
<path d="M37.1915 270.666V291.64C36.8239 291.628 36.4583 291.613 36.0938 291.597V270.668L37.1915 270.666Z" fill="#4641B5"/>
<path d="M42.4561 270.658V291.716C42.212 291.717 41.966 291.718 41.7219 291.718C41.6014 291.718 41.4799 291.718 41.3594 291.717V270.66L42.4561 270.658Z" fill="#4641B5"/>
<path d="M47.7061 270.652V291.581C47.3415 291.598 46.976 291.614 46.6084 291.627V270.653L47.7061 270.652Z" fill="#4641B5"/>
<path d="M52.9629 270.645V291.22C52.5984 291.253 52.2328 291.285 51.8652 291.314V270.646L52.9629 270.645Z" fill="#4641B5"/>
<path d="M58.2198 270.635V290.608C57.8562 290.661 57.4917 290.71 57.1221 290.759V270.636L58.2198 270.635Z" fill="#4641B5"/>
<path d="M63.4688 270.627V289.71C63.1072 289.783 62.7417 289.855 62.3711 289.925V270.63L63.4688 270.627Z" fill="#4641B5"/>
<path d="M68.7256 270.619V288.431C68.3661 288.535 68.0015 288.637 67.6279 288.737V270.621L68.7256 270.619Z" fill="#4641B5"/>
<path d="M73.9825 270.613V286.582C73.628 286.735 73.2614 286.886 72.8848 287.034V270.614L73.9825 270.613Z" fill="#4641B5"/>
<path d="M79.2393 270.605V283.41C78.9099 283.712 78.5423 284.007 78.1416 284.296V270.605H79.2393Z" fill="#4641B5"/>
<path d="M81.3249 270.708C81.3249 276.918 63.6029 281.951 41.7342 281.951C38.7464 281.951 35.8359 281.858 33.0379 281.679C29.5189 281.455 26.1765 281.099 23.0813 280.628C20.3174 280.208 17.7504 279.697 15.4285 279.11C14.7184 278.931 14.0315 278.744 13.3696 278.551C10.4582 277.702 8.0167 276.723 6.16275 275.648C5.8002 275.438 5.45974 275.225 5.14439 275.007C3.2111 273.683 2.14453 272.231 2.14453 270.708C2.14453 270.569 2.15457 270.43 2.17667 270.291C2.94396 264.275 20.3626 259.465 41.7352 259.465C46.9948 259.465 52.0143 259.756 56.6049 260.284C57.4917 260.387 58.3625 260.497 59.2161 260.618C62.9451 261.14 66.3417 261.823 69.2933 262.636C69.9441 262.815 70.5728 263.001 71.1794 263.192C73.3357 263.873 75.2027 264.628 76.7272 265.443C78.2979 266.284 79.5051 267.189 80.2864 268.14C80.8569 268.834 81.2014 269.553 81.2948 270.291C81.3159 270.43 81.3249 270.568 81.3249 270.708Z" fill="#79CC56"/>
<path opacity="0.3" d="M80.2823 268.14L33.0348 281.679C29.5157 281.455 26.1734 281.098 23.0781 280.627L76.723 265.443C78.2928 266.284 79.4999 267.189 80.2823 268.14Z" fill="white"/>
<path opacity="0.3" d="M59.2143 260.617L6.16094 275.647C5.79839 275.437 5.45793 275.224 5.14258 275.006L56.6031 260.283C57.4899 260.387 58.3607 260.497 59.2143 260.617Z" fill="white"/>
<path opacity="0.3" d="M71.1818 263.191L15.4319 279.109C14.7218 278.931 14.0349 278.744 13.373 278.55L69.2967 262.635C69.9465 262.815 70.5752 262.999 71.1818 263.191Z" fill="white"/>
<path d="M73.38 270.707C73.38 270.845 73.367 270.983 73.3489 271.12C72.5856 275.884 58.7001 279.694 41.7364 279.694C24.7737 279.694 10.8882 275.884 10.1239 271.12C10.1058 270.983 10.0928 270.845 10.0928 270.707C10.0928 265.752 24.2876 261.721 41.7354 261.721C59.1832 261.721 73.38 265.752 73.38 270.707Z" fill="#4641B5"/>
<path d="M73.347 271.121C72.5837 275.885 58.6982 279.694 41.7345 279.694C41.3549 279.694 40.9793 279.691 40.6047 279.688C36.8214 279.651 33.2049 279.424 29.8676 279.039C26.5293 278.654 23.4742 278.112 20.8169 277.445C20.141 277.276 19.4922 277.099 18.8655 276.914C16.0313 276.07 13.7616 275.072 12.2471 273.966C11.8806 273.701 11.5582 273.429 11.285 273.153C10.6312 272.503 10.2385 271.822 10.124 271.121C10.8883 266.356 24.7738 262.545 41.7365 262.545C43.8827 262.545 45.9797 262.606 48.0104 262.723C49.0438 262.782 50.0632 262.855 51.0615 262.944C55.1369 263.301 58.8629 263.887 62.0556 264.648C62.7446 264.812 63.4114 264.985 64.0512 265.167C66.5368 265.869 68.6157 266.688 70.1744 267.593C71.6929 268.474 72.7173 269.434 73.1501 270.447C73.2456 270.668 73.3118 270.894 73.347 271.121Z" fill="#E1F3A8"/>
<path opacity="0.2" d="M73.1467 270.446L40.6023 279.689C36.819 279.651 33.2025 279.425 29.8652 279.039L70.171 267.592C71.6895 268.474 72.7139 269.435 73.1467 270.446Z" fill="white"/>
<path opacity="0.2" d="M51.0616 262.944L12.2483 273.965C11.8817 273.7 11.5593 273.428 11.2861 273.152L48.0105 262.723C49.044 262.783 50.0643 262.856 51.0616 262.944Z" fill="white"/>
<path opacity="0.2" d="M64.0499 265.168L20.8166 277.445C20.1407 277.277 19.4919 277.1 18.8652 276.914L62.0543 264.648C62.7433 264.813 63.4101 264.986 64.0499 265.168Z" fill="white"/>
<path d="M46.134 275.808V277.301H39.4554V275.875C34.7191 275.795 30.1254 275.431 27.2832 274.933L30.8826 272.619C34.009 273.144 38.1759 273.48 41.8235 273.48C44.9971 273.48 46.134 273.291 46.134 272.969C46.134 271.786 27.8044 272.741 27.8044 269.23C27.8044 267.709 31.6881 266.432 39.4554 266.123V264.656H46.134V266.095C49.639 266.19 53.0496 266.445 55.7492 266.876L52.3858 269.176C49.1178 268.705 46.0396 268.476 43.1502 268.476C39.8822 268.476 38.8397 268.745 38.8397 269.067C38.8397 270.197 57.1693 269.256 57.1693 272.726C57.1693 274.18 53.4755 275.444 46.134 275.808Z" fill="#4641B5"/>
<path d="M45.9357 275.31V276.803H39.2581V275.377C34.5218 275.297 29.9271 274.933 27.0859 274.435L30.6854 272.121C33.8118 272.647 37.9796 272.982 41.6263 272.982C44.7999 272.982 45.9357 272.793 45.9357 272.471C45.9357 271.287 27.6062 272.242 27.6062 268.732C27.6062 267.212 31.4898 265.934 39.2571 265.624V264.158H45.9347V265.597C49.4398 265.692 52.8494 265.947 55.5499 266.378L52.1875 268.678C48.9195 268.207 45.8403 267.979 42.9509 267.979C39.6829 267.979 38.6405 268.248 38.6405 268.57C38.6405 269.7 56.97 268.759 56.97 272.229C56.972 273.683 53.2772 274.947 45.9357 275.31Z" fill="#79CC56"/>
<path d="M79.3588 266.968C79.3599 267.005 79.3599 267.042 79.3599 267.079C79.3599 268.452 78.6277 269.772 77.2779 271.003C76.9485 271.306 76.5819 271.6 76.1802 271.889C75.0574 272.7 73.6594 273.464 72.0224 274.174C71.6679 274.328 71.3013 274.478 70.9247 274.626C69.6563 275.126 68.2663 275.593 66.7669 276.025C66.4073 276.128 66.0418 276.231 65.6692 276.33C64.3565 276.682 62.9676 277.007 61.5103 277.302C61.1488 277.377 60.7832 277.448 60.4126 277.518C59.0779 277.771 57.69 278 56.2548 278.203C55.8923 278.255 55.5267 278.305 55.1571 278.354C53.8073 278.53 52.4204 278.683 50.9993 278.813C50.6347 278.846 50.2702 278.878 49.9016 278.907C48.5438 279.019 47.1558 279.108 45.7438 279.173C45.3792 279.19 45.0146 279.206 44.6461 279.219C43.2802 279.271 41.8933 279.302 40.4883 279.31C40.2442 279.311 39.9992 279.312 39.7541 279.312C39.6336 279.312 39.5121 279.312 39.3915 279.311C37.9865 279.308 36.5996 279.281 35.2327 279.234C34.8652 279.22 34.4996 279.206 34.135 279.19C33.0956 279.145 32.0682 279.086 31.0558 279.016C30.6943 278.99 30.3347 278.964 29.9782 278.936C29.6106 278.907 29.2451 278.877 28.8805 278.844C27.4604 278.719 26.0725 278.571 24.7227 278.4C24.3531 278.353 23.9885 278.306 23.625 278.254C22.7653 278.136 21.9217 278.008 21.0951 277.872C20.5448 277.78 20.0024 277.686 19.4672 277.586C19.0976 277.518 18.732 277.448 18.3694 277.376C16.9152 277.087 15.5263 276.77 14.2106 276.427C13.9515 276.359 13.6934 276.29 13.4393 276.221C13.3299 276.192 13.2214 276.16 13.1129 276.129C12.5194 275.964 11.9399 275.79 11.3795 275.612C10.5309 275.342 9.72239 275.061 8.95611 274.769C8.57949 274.625 8.21392 274.479 7.8584 274.331C6.45539 273.743 5.21909 273.115 4.1706 272.453C4.00991 272.352 3.85223 272.25 3.70058 272.146C3.50976 272.018 3.32698 271.888 3.15223 271.756C2.96041 271.614 2.77762 271.469 2.60388 271.324C1.01808 270.002 0.151367 268.571 0.151367 267.078C0.151367 266.974 0.156388 266.869 0.166431 266.764L0.17045 258.311L2.60388 258.307L3.70158 258.305L7.85941 258.299L8.95711 258.297L12.202 258.293L13.1149 258.292L14.2126 258.29L18.3715 258.284L19.4692 258.283L23.627 258.276L24.7247 258.275L28.8825 258.268L29.9802 258.267L34.138 258.261L35.2357 258.259L39.3946 258.253L40.4923 258.251L44.6501 258.245L45.7478 258.244L49.9056 258.237L51.0033 258.236L55.1611 258.229L56.2588 258.228L60.4167 258.221L61.5144 258.219L65.6732 258.213L66.7709 258.211H67.0411L70.9277 258.205L72.0254 258.204L76.1832 258.197L77.2809 258.196L79.3478 258.193L79.3629 266.967H79.3588V266.968Z" fill="#E1F3A8"/>
<path d="M3.709 258.307V272.147C3.51819 272.018 3.3354 271.889 3.16065 271.757C2.96883 271.615 2.78605 271.47 2.6123 271.324V258.309L3.709 258.307Z" fill="#4641B5"/>
<path d="M8.96782 258.299V274.77C8.59121 274.626 8.22564 274.48 7.87012 274.332V258.301L8.96782 258.299Z" fill="#4641B5"/>
<path d="M14.2168 258.291V276.428C13.9577 276.36 13.6996 276.291 13.4455 276.222C13.3361 276.193 13.2276 276.162 13.1191 276.13V258.293L14.2168 258.291Z" fill="#4641B5"/>
<path d="M19.4737 258.285V277.588C19.1041 277.52 18.7385 277.449 18.376 277.377V258.285H19.4737Z" fill="#4641B5"/>
<path d="M24.7305 258.277V278.402C24.3609 278.354 23.9964 278.307 23.6328 278.256V258.278L24.7305 258.277Z" fill="#4641B5"/>
<path d="M29.9874 258.268V278.936C29.6198 278.907 29.2542 278.877 28.8896 278.844V258.269L29.9874 258.268Z" fill="#4641B5"/>
<path d="M35.2442 258.26V279.234C34.8766 279.221 34.511 279.207 34.1465 279.19V258.262L35.2442 258.26Z" fill="#4641B5"/>
<path d="M40.5 258.252V279.31C40.256 279.311 40.0109 279.312 39.7659 279.312C39.6454 279.312 39.5238 279.312 39.4033 279.311V258.255L40.5 258.252Z" fill="#4641B5"/>
<path d="M45.7501 258.246V279.175C45.3855 279.192 45.0209 279.208 44.6523 279.221V258.247L45.7501 258.246Z" fill="#4641B5"/>
<path d="M51.0069 258.238V278.813C50.6423 278.847 50.2778 278.879 49.9092 278.908V258.239L51.0069 258.238Z" fill="#4641B5"/>
<path d="M56.2637 258.23V278.204C55.9012 278.256 55.5356 278.306 55.166 278.355V258.231L56.2637 258.23Z" fill="#4641B5"/>
<path d="M61.5127 258.223V277.304C61.1512 277.379 60.7856 277.45 60.415 277.52V258.226L61.5127 258.223Z" fill="#4641B5"/>
<path d="M66.7696 258.215V276.027C66.41 276.131 66.0445 276.233 65.6719 276.332V258.217L66.7696 258.215Z" fill="#4641B5"/>
<path d="M72.0264 258.207V274.175C71.6719 274.329 71.3053 274.48 70.9287 274.627V258.208L72.0264 258.207Z" fill="#4641B5"/>
<path d="M77.2832 258.199V271.004C76.9538 271.306 76.5873 271.601 76.1855 271.89V258.199H77.2832Z" fill="#4641B5"/>
<path d="M79.3483 258.302C79.3483 264.511 61.6264 269.546 39.7577 269.546C36.7698 269.546 33.8594 269.452 31.0614 269.274C27.5423 269.05 24.201 268.693 21.1047 268.222C18.3409 267.802 15.7739 267.292 13.4519 266.705C12.7419 266.526 12.0549 266.339 11.3931 266.145C8.4816 265.297 6.04014 264.318 4.18619 263.243C3.82364 263.033 3.48217 262.819 3.16783 262.602C1.23454 261.278 0.167969 259.825 0.167969 258.303C0.167969 258.164 0.178013 258.025 0.200108 257.885C0.967397 251.869 18.3861 247.059 39.7587 247.059C45.0182 247.059 50.0377 247.35 54.6284 247.878C55.5152 247.981 56.3859 248.091 57.2396 248.211C60.9686 248.733 64.3651 249.416 67.3168 250.229C67.9676 250.408 68.5963 250.594 69.2019 250.785C71.3581 251.466 73.2251 252.221 74.7496 253.036C76.3204 253.877 77.5265 254.782 78.3089 255.733C78.8793 256.427 79.2238 257.146 79.3172 257.883C79.3403 258.024 79.3483 258.163 79.3483 258.302Z" fill="#79CC56"/>
<path opacity="0.3" d="M78.3057 255.734L31.0582 269.273C27.5392 269.049 24.1978 268.692 21.1016 268.221L74.7465 253.037C76.3172 253.879 77.5244 254.783 78.3057 255.734Z" fill="white"/>
<path opacity="0.3" d="M57.2368 248.211L4.1834 263.243C3.82085 263.033 3.47939 262.819 3.16504 262.602L54.6246 247.879C55.5124 247.98 56.3831 248.091 57.2368 248.211Z" fill="white"/>
<path opacity="0.3" d="M69.2043 250.785L13.4543 266.703C12.7443 266.524 12.0573 266.338 11.3955 266.144L67.3192 250.229C67.97 250.408 68.5987 250.593 69.2043 250.785Z" fill="white"/>
<path d="M71.4035 258.301C71.4035 258.439 71.3904 258.577 71.3723 258.714C70.608 263.478 56.7235 267.287 39.7598 267.287C22.7971 267.287 8.91162 263.478 8.14734 258.714C8.12927 258.577 8.11621 258.44 8.11621 258.301C8.11621 253.346 22.3111 249.314 39.7588 249.314C57.2086 249.314 71.4035 253.346 71.4035 258.301Z" fill="#4641B5"/>
<path d="M71.3704 258.714C70.6062 263.479 56.7216 267.288 39.7579 267.288C39.3783 267.288 39.0027 267.285 38.6281 267.282C34.8439 267.244 31.2284 267.018 27.8911 266.632C24.5528 266.248 21.4977 265.705 18.8403 265.039C18.1644 264.869 17.5156 264.693 16.8889 264.507C14.0548 263.664 11.7851 262.665 10.2706 261.56C9.90399 261.294 9.58161 261.023 9.30844 260.747C8.65464 260.096 8.26195 259.415 8.14746 258.714C8.91174 253.95 22.7973 250.139 39.76 250.139C41.9062 250.139 44.0031 250.2 46.0338 250.316C47.0673 250.376 48.0866 250.449 49.0849 250.537C53.1604 250.895 56.8864 251.48 60.078 252.242C60.767 252.406 61.4338 252.579 62.0736 252.761C64.5592 253.463 66.6382 254.282 68.1968 255.186C69.7153 256.068 70.7397 257.028 71.1726 258.041C71.269 258.262 71.3353 258.487 71.3704 258.714Z" fill="#E1F3A8"/>
<path opacity="0.2" d="M71.1682 258.04L38.6247 267.282C34.8405 267.244 31.225 267.018 27.8877 266.633L68.1934 255.186C69.712 256.068 70.7353 257.028 71.1682 258.04Z" fill="white"/>
<path opacity="0.2" d="M49.0841 250.539L10.2707 261.561C9.90415 261.295 9.58176 261.024 9.30859 260.748L46.034 250.318C47.0664 250.378 48.0858 250.451 49.0841 250.539Z" fill="white"/>
<path opacity="0.2" d="M62.0723 252.761L18.8391 265.039C18.1632 264.869 17.5144 264.694 16.8877 264.508L60.0768 252.242C60.7647 252.407 61.4316 252.58 62.0723 252.761Z" fill="white"/>
<path d="M44.1603 263.4V264.893H37.4827V263.467C32.7464 263.386 28.1517 263.023 25.3105 262.525L28.91 260.211C32.0364 260.735 36.2042 261.072 39.8509 261.072C43.0245 261.072 44.1613 260.884 44.1613 260.561C44.1613 259.378 25.8318 260.332 25.8318 256.822C25.8318 255.302 29.7154 254.024 37.4827 253.714V252.248H44.1603V253.687C47.6654 253.782 51.075 254.037 53.7755 254.468L50.4131 256.767C47.1451 256.296 44.0669 256.068 41.1776 256.068C37.9095 256.068 36.8671 256.338 36.8671 256.66C36.8671 257.79 55.1966 256.849 55.1966 260.319C55.1956 261.772 51.5008 263.036 44.1603 263.4Z" fill="#4641B5"/>
<path d="M43.964 262.904V264.396H37.2864V262.97C32.5501 262.89 27.9554 262.526 25.1143 262.029L28.7137 259.715C31.8401 260.239 36.0079 260.576 39.6546 260.576C42.8282 260.576 43.964 260.387 43.964 260.065C43.964 258.882 25.6345 259.836 25.6345 256.326C25.6345 254.806 29.5181 253.528 37.2854 253.218V251.752H43.963V253.191C47.4681 253.286 50.8777 253.541 53.5773 253.971L50.2148 256.271C46.9468 255.8 43.8676 255.571 40.9793 255.571C37.7112 255.571 36.6688 255.84 36.6688 256.163C36.6688 257.293 54.9983 256.352 54.9983 259.822C55.0003 261.276 51.3055 262.54 43.964 262.904Z" fill="#79CC56"/>
<path d="M149.203 307.114C149.204 307.152 149.204 307.188 149.204 307.226C149.204 308.598 148.472 309.918 147.123 311.15C146.793 311.451 146.427 311.746 146.025 312.036C144.902 312.847 143.504 313.611 141.868 314.32C141.514 314.474 141.147 314.625 140.77 314.772C139.502 315.272 138.112 315.739 136.613 316.171C136.253 316.275 135.887 316.377 135.515 316.477C134.202 316.828 132.813 317.153 131.356 317.449C130.994 317.523 130.629 317.594 130.258 317.664C128.924 317.917 127.536 318.146 126.1 318.349C125.738 318.401 125.372 318.45 125.003 318.499C123.653 318.674 122.266 318.829 120.846 318.958C120.481 318.991 120.116 319.024 119.748 319.053C118.389 319.164 117.002 319.253 115.59 319.32C115.226 319.337 114.86 319.353 114.493 319.366C113.127 319.417 111.741 319.448 110.335 319.456C110.091 319.457 109.846 319.458 109.601 319.458C109.48 319.458 109.359 319.458 109.238 319.457C107.833 319.454 106.446 319.428 105.079 319.38C104.712 319.367 104.346 319.353 103.982 319.337C102.942 319.292 101.915 319.232 100.902 319.163C100.541 319.138 100.181 319.112 99.8249 319.084C99.4573 319.056 99.0917 319.025 98.7271 318.991C97.3071 318.867 95.9191 318.718 94.5703 318.547C94.2008 318.5 93.8362 318.453 93.4726 318.402C92.6129 318.283 91.7703 318.156 90.9428 318.019C90.3924 317.928 89.8501 317.833 89.3148 317.734C88.9452 317.666 88.5787 317.595 88.2171 317.523C86.7629 317.235 85.3739 316.917 84.0583 316.574C83.7992 316.507 83.5421 316.437 83.287 316.368C83.1775 316.338 83.069 316.308 82.9606 316.277C82.366 316.111 81.7865 315.937 81.2271 315.76C80.3785 315.489 79.57 315.208 78.8038 314.917C78.4271 314.772 78.0616 314.627 77.7061 314.478C76.303 313.89 75.0667 313.263 74.0182 312.601C73.8576 312.5 73.6999 312.397 73.5482 312.294C73.3574 312.165 73.1746 312.036 72.9999 311.904C72.8081 311.761 72.6263 311.617 72.4515 311.471C70.8657 310.149 69.999 308.718 69.999 307.226C69.999 307.122 70.004 307.017 70.0141 306.912L70.0181 298.458L72.4515 298.455L73.5492 298.453L77.7071 298.447L78.8048 298.445L82.0497 298.44L82.9626 298.439L84.0603 298.437L88.2191 298.431L89.3168 298.43L93.4736 298.423L94.5713 298.422L98.7282 298.415L99.8259 298.414L103.983 298.408L105.08 298.406L109.239 298.4L110.337 298.398L114.495 298.392L115.592 298.391L119.75 298.384L120.848 298.383L125.005 298.376L126.102 298.375L130.26 298.369L131.358 298.367L135.517 298.361L136.615 298.359H136.886L140.772 298.353L141.87 298.352L146.027 298.345L147.125 298.344L149.191 298.34L149.206 307.113H149.203V307.114Z" fill="#E1F3A8"/>
<path d="M73.5479 298.453V312.293C73.357 312.165 73.1743 312.035 72.9995 311.904C72.8077 311.761 72.6259 311.617 72.4512 311.471V298.455L73.5479 298.453Z" fill="#4641B5"/>
<path d="M78.8057 298.445V314.917C78.4291 314.772 78.0635 314.627 77.708 314.478V298.447L78.8057 298.445Z" fill="#4641B5"/>
<path d="M84.0547 298.436V316.572C83.7956 316.505 83.5385 316.436 83.2834 316.366C83.174 316.336 83.0655 316.306 82.957 316.275V298.438L84.0547 298.436Z" fill="#4641B5"/>
<path d="M89.3116 298.43V317.732C88.942 317.664 88.5754 317.594 88.2139 317.522V298.43H89.3116Z" fill="#4641B5"/>
<path d="M94.5684 298.422V318.546C94.1988 318.499 93.8343 318.452 93.4707 318.401V298.423L94.5684 298.422Z" fill="#4641B5"/>
<path d="M99.8252 298.412V319.081C99.4577 319.053 99.0921 319.021 98.7275 318.988V298.413L99.8252 298.412Z" fill="#4641B5"/>
<path d="M105.074 298.404V319.378C104.707 319.365 104.341 319.351 103.977 319.335V298.407L105.074 298.404Z" fill="#4641B5"/>
<path d="M110.338 298.398V319.457C110.094 319.458 109.849 319.459 109.604 319.459C109.483 319.459 109.362 319.459 109.241 319.458V298.4L110.338 298.398Z" fill="#4641B5"/>
<path d="M115.588 298.391V319.319C115.223 319.336 114.858 319.352 114.49 319.366V298.392L115.588 298.391Z" fill="#4641B5"/>
<path d="M120.846 298.383V318.958C120.481 318.991 120.116 319.023 119.748 319.052V298.384L120.846 298.383Z" fill="#4641B5"/>
<path d="M126.103 298.375V318.349C125.74 318.401 125.374 318.45 125.005 318.499V298.376L126.103 298.375Z" fill="#4641B5"/>
<path d="M131.352 298.367V317.449C130.99 317.523 130.624 317.595 130.254 317.664V298.369L131.352 298.367Z" fill="#4641B5"/>
<path d="M136.608 298.359V316.172C136.249 316.275 135.883 316.378 135.511 316.477V298.361L136.608 298.359Z" fill="#4641B5"/>
<path d="M141.865 298.352V314.32C141.511 314.474 141.144 314.624 140.768 314.772V298.353L141.865 298.352Z" fill="#4641B5"/>
<path d="M147.122 298.344V311.149C146.793 311.45 146.426 311.745 146.024 312.034V298.344H147.122Z" fill="#4641B5"/>
<path d="M149.198 298.447C149.198 304.656 131.476 309.69 109.607 309.69C106.619 309.69 103.709 309.596 100.911 309.418C97.3919 309.194 94.0496 308.838 90.9543 308.367C88.1905 307.947 85.6235 307.436 83.3015 306.849C82.5915 306.671 81.9045 306.484 81.2427 306.29C78.3312 305.441 75.8897 304.462 74.0358 303.387C73.6732 303.178 73.3328 302.965 73.0174 302.747C71.0841 301.422 70.0176 299.97 70.0176 298.447C70.0176 298.308 70.0276 298.169 70.0497 298.03C70.817 292.014 88.2357 287.203 109.608 287.203C114.868 287.203 119.887 287.494 124.478 288.024C125.365 288.126 126.236 288.237 127.089 288.356C130.818 288.878 134.215 289.561 137.166 290.375C137.817 290.553 138.446 290.739 139.051 290.93C141.208 291.611 143.075 292.366 144.599 293.182C146.17 294.022 147.376 294.927 148.158 295.877C148.729 296.572 149.073 297.29 149.167 298.029C149.189 298.169 149.198 298.309 149.198 298.447Z" fill="#79CC56"/>
<path opacity="0.3" d="M148.155 295.88L100.908 309.419C97.3888 309.195 94.0464 308.839 90.9512 308.368L144.596 293.184C146.166 294.025 147.373 294.929 148.155 295.88Z" fill="white"/>
<path opacity="0.3" d="M127.086 288.357L74.033 303.387C73.6705 303.177 73.33 302.964 73.0146 302.747L124.474 288.023C125.362 288.126 126.233 288.237 127.086 288.357Z" fill="white"/>
<path opacity="0.3" d="M139.055 290.931L83.3049 306.85C82.5949 306.671 81.9079 306.484 81.2461 306.29L137.17 290.375C137.82 290.555 138.448 290.741 139.055 290.931Z" fill="white"/>
<path d="M141.253 298.447C141.253 298.585 141.24 298.724 141.222 298.86C140.459 303.625 126.572 307.434 109.609 307.434C92.6467 307.434 78.7612 303.625 77.997 298.86C77.9789 298.724 77.9658 298.585 77.9658 298.447C77.9658 293.492 92.1607 289.461 109.608 289.461C127.058 289.461 141.253 293.492 141.253 298.447Z" fill="#4641B5"/>
<path d="M141.22 298.86C140.457 303.624 126.57 307.434 109.608 307.434C109.228 307.434 108.852 307.432 108.478 307.428C104.694 307.391 101.078 307.164 97.7407 306.778C94.4024 306.393 91.3473 305.851 88.6899 305.184C88.014 305.014 87.3652 304.838 86.7385 304.652C83.9044 303.808 81.6347 302.81 80.1202 301.704C79.7536 301.44 79.4312 301.168 79.158 300.892C78.5042 300.241 78.1116 299.56 77.9971 298.859C78.7613 294.094 92.6469 290.283 109.61 290.283C111.756 290.283 113.853 290.344 115.883 290.461C116.917 290.52 117.936 290.594 118.935 290.682C123.01 291.039 126.736 291.625 129.929 292.386C130.618 292.551 131.284 292.724 131.924 292.905C134.41 293.607 136.49 294.426 138.048 295.331C139.567 296.213 140.591 297.173 141.024 298.185C141.119 298.407 141.185 298.632 141.22 298.86Z" fill="#E1F3A8"/>
<path opacity="0.2" d="M141.02 298.186L108.475 307.429C104.692 307.392 101.076 307.165 97.7383 306.779L138.044 295.332C139.563 296.214 140.587 297.174 141.02 298.186Z" fill="white"/>
<path opacity="0.2" d="M118.934 290.684L80.1203 301.705C79.7538 301.441 79.4314 301.169 79.1582 300.893L115.884 290.463C116.916 290.522 117.936 290.595 118.934 290.684Z" fill="white"/>
<path opacity="0.2" d="M131.923 292.908L88.6896 305.187C88.0137 305.017 87.365 304.84 86.7383 304.654L129.927 292.389C130.616 292.552 131.282 292.726 131.923 292.908Z" fill="white"/>
<path d="M114.013 303.545V305.039H107.334V303.613C102.598 303.532 98.0043 303.169 95.1621 302.672L98.7615 300.358C101.888 300.882 106.056 301.218 109.702 301.218C112.876 301.218 114.013 301.03 114.013 300.707C114.013 299.524 95.6833 300.478 95.6833 296.968C95.6833 295.449 99.567 294.17 107.334 293.861V292.395H114.013V293.834C117.518 293.928 120.928 294.183 123.627 294.614L120.265 296.914C116.997 296.443 113.918 296.215 111.029 296.215C107.761 296.215 106.719 296.484 106.719 296.806C106.719 297.936 125.048 296.995 125.048 300.465C125.048 301.918 121.354 303.183 114.013 303.545Z" fill="#4641B5"/>
<path d="M113.814 303.05V304.544H107.135V303.118C102.399 303.037 97.8051 302.674 94.9629 302.175L98.5623 299.862C101.689 300.386 105.857 300.722 109.503 300.722C112.677 300.722 113.814 300.534 113.814 300.211C113.814 299.027 95.4841 299.982 95.4841 296.472C95.4841 294.952 99.3678 293.674 107.135 293.365V291.898H113.814V293.338C117.319 293.432 120.728 293.687 123.429 294.118L120.066 296.418C116.798 295.947 113.719 295.718 110.831 295.718C107.563 295.718 106.521 295.987 106.521 296.309C106.521 297.439 124.851 296.498 124.851 299.968C124.85 301.422 121.155 302.687 113.814 303.05Z" fill="#79CC56"/>
<path d="M151.683 293.242C151.684 293.281 151.684 293.317 151.684 293.354C151.684 294.727 150.952 296.046 149.602 297.278C149.273 297.579 148.905 297.874 148.504 298.163C147.381 298.974 145.984 299.738 144.347 300.448C143.992 300.602 143.625 300.753 143.249 300.9C141.98 301.4 140.589 301.867 139.091 302.299C138.732 302.403 138.366 302.505 137.993 302.604C136.681 302.957 135.292 303.281 133.835 303.578C133.473 303.652 133.107 303.723 132.737 303.793C131.402 304.046 130.014 304.275 128.579 304.478C128.216 304.53 127.851 304.579 127.481 304.628C126.132 304.804 124.745 304.958 123.323 305.087C122.959 305.12 122.593 305.152 122.226 305.182C120.868 305.293 119.48 305.381 118.068 305.449C117.703 305.466 117.338 305.482 116.97 305.495C115.604 305.546 114.217 305.577 112.812 305.585C112.568 305.586 112.322 305.587 112.078 305.587C111.958 305.587 111.836 305.587 111.716 305.586C110.311 305.583 108.924 305.557 107.557 305.509C107.189 305.496 106.824 305.482 106.459 305.466C105.42 305.421 104.392 305.361 103.38 305.291C103.018 305.266 102.659 305.24 102.302 305.212C101.935 305.184 101.569 305.152 101.205 305.119C99.7846 304.995 98.3966 304.846 97.0479 304.675C96.6783 304.628 96.3127 304.581 95.9502 304.53C95.0905 304.411 94.2469 304.284 93.4203 304.147C92.87 304.056 92.3276 303.961 91.7923 303.862C91.4228 303.794 91.0562 303.722 90.6946 303.651C89.2404 303.363 87.8515 303.045 86.5358 302.702C86.2767 302.635 86.0196 302.565 85.7645 302.496C85.655 302.466 85.5466 302.436 85.4391 302.405C84.8446 302.238 84.2651 302.065 83.7057 301.887C82.8571 301.617 82.0486 301.336 81.2813 301.045C80.9047 300.9 80.5391 300.755 80.1836 300.606C78.7806 300.018 77.5443 299.391 76.4958 298.729C76.3351 298.627 76.1774 298.525 76.0258 298.422C75.835 298.293 75.6522 298.162 75.4774 298.032C75.2856 297.889 75.1028 297.745 74.9291 297.599C73.3433 296.277 72.4766 294.846 72.4766 293.354C72.4766 293.249 72.4816 293.144 72.4916 293.04L72.4956 284.586L74.9291 284.583L76.0268 284.581L80.1846 284.575L81.2823 284.573L84.5272 284.568L85.4401 284.567L86.5368 284.565L90.6956 284.559L91.7934 284.558L95.9512 284.551L97.0489 284.55L101.206 284.543L102.303 284.542L106.461 284.536L107.559 284.534L111.718 284.528L112.815 284.526L116.973 284.52L118.071 284.519L122.229 284.512L123.326 284.511L127.484 284.504L128.582 284.503L132.74 284.497L133.838 284.495L137.996 284.489L139.094 284.487H139.365L143.252 284.481L144.35 284.48L148.507 284.473L149.605 284.472L151.672 284.469L151.687 293.242H151.683Z" fill="#E1F3A8"/>
<path d="M76.0313 284.58V298.42C75.8405 298.292 75.6577 298.161 75.4829 298.031C75.2911 297.888 75.1083 297.744 74.9346 297.598V284.582L76.0313 284.58Z" fill="#4641B5"/>
<path d="M81.2891 284.572V301.044C80.9125 300.899 80.5469 300.754 80.1914 300.605V284.574L81.2891 284.572Z" fill="#4641B5"/>
<path d="M86.5449 284.564V302.701C86.2858 302.634 86.0287 302.565 85.7736 302.495C85.6642 302.465 85.5557 302.435 85.4482 302.404V284.566L86.5449 284.564Z" fill="#4641B5"/>
<path d="M91.795 284.559V303.862C91.4254 303.794 91.0588 303.723 90.6973 303.651V284.56L91.795 284.559Z" fill="#4641B5"/>
<path d="M97.0518 284.551V304.675C96.6822 304.628 96.3167 304.581 95.9541 304.529V284.552L97.0518 284.551Z" fill="#4641B5"/>
<path d="M102.309 284.541V305.21C101.941 305.181 101.576 305.15 101.211 305.117V284.542L102.309 284.541Z" fill="#4641B5"/>
<path d="M107.565 284.533V305.507C107.198 305.494 106.832 305.48 106.468 305.464V284.536L107.565 284.533Z" fill="#4641B5"/>
<path d="M112.821 284.525V305.584C112.577 305.585 112.331 305.586 112.087 305.586C111.967 305.586 111.845 305.586 111.725 305.585V284.527L112.821 284.525Z" fill="#4641B5"/>
<path d="M118.071 284.52V305.448C117.707 305.465 117.341 305.481 116.974 305.494V284.521L118.071 284.52Z" fill="#4641B5"/>
<path d="M123.328 284.512V305.087C122.964 305.12 122.598 305.152 122.23 305.181V284.513L123.328 284.512Z" fill="#4641B5"/>
<path d="M128.585 284.504V304.478C128.222 304.53 127.857 304.579 127.487 304.628V284.505L128.585 284.504Z" fill="#4641B5"/>
<path d="M133.835 284.496V303.579C133.473 303.653 133.108 303.725 132.737 303.794V284.499L133.835 284.496Z" fill="#4641B5"/>
<path d="M139.092 284.488V302.301C138.732 302.404 138.367 302.507 137.994 302.606V284.49L139.092 284.488Z" fill="#4641B5"/>
<path d="M144.349 284.48V300.449C143.994 300.603 143.628 300.753 143.251 300.901V284.481L144.349 284.48Z" fill="#4641B5"/>
<path d="M149.606 284.473V297.278C149.276 297.579 148.909 297.874 148.508 298.163V284.473H149.606Z" fill="#4641B5"/>
<path d="M151.671 284.577C151.671 290.786 133.949 295.82 112.08 295.82C109.092 295.82 106.182 295.726 103.384 295.548C99.8646 295.324 96.5232 294.968 93.427 294.497C90.6631 294.077 88.0961 293.566 85.7742 292.979C85.0651 292.8 84.3772 292.614 83.7153 292.42C80.8039 291.571 78.3624 290.592 76.5085 289.517C76.1459 289.307 75.8044 289.095 75.4901 288.878C73.5568 287.553 72.4902 286.101 72.4902 284.578C72.4902 284.44 72.5003 284.3 72.5224 284.16C73.2897 278.145 90.7083 273.334 112.081 273.334C117.34 273.334 122.36 273.625 126.951 274.154C127.837 274.256 128.708 274.366 129.562 274.486C133.292 275.008 136.687 275.691 139.639 276.505C140.29 276.683 140.919 276.869 141.525 277.06C143.681 277.741 145.548 278.496 147.073 279.312C148.644 280.152 149.851 281.057 150.632 282.008C151.203 282.702 151.547 283.421 151.64 284.159C151.663 284.299 151.671 284.439 151.671 284.577Z" fill="#79CC56"/>
<path opacity="0.3" d="M150.628 282.009L103.381 295.548C99.8614 295.324 96.5201 294.968 93.4238 294.497L147.069 279.312C148.639 280.154 149.846 281.058 150.628 282.009Z" fill="white"/>
<path opacity="0.3" d="M129.559 274.487L76.5057 289.517C76.1431 289.307 75.8017 289.094 75.4873 288.877L126.948 274.154C127.835 274.256 128.705 274.366 129.559 274.487Z" fill="white"/>
<path opacity="0.3" d="M141.527 277.062L85.7766 292.98C85.0676 292.802 84.3796 292.615 83.7178 292.421L139.641 276.506C140.292 276.686 140.92 276.871 141.527 277.062Z" fill="white"/>
<path d="M143.725 284.578C143.725 284.716 143.712 284.855 143.694 284.991C142.93 289.756 129.045 293.565 112.081 293.565C95.1184 293.565 81.2329 289.756 80.4686 284.991C80.4515 284.855 80.4385 284.717 80.4385 284.578C80.4385 279.623 94.6333 275.592 112.081 275.592C129.53 275.592 143.725 279.622 143.725 284.578Z" fill="#4641B5"/>
<path d="M143.694 284.991C142.93 289.755 129.045 293.565 112.081 293.565C111.702 293.565 111.326 293.562 110.95 293.559C107.167 293.52 103.551 293.294 100.213 292.909C96.875 292.524 93.8199 291.982 91.1626 291.315C90.4867 291.145 89.8379 290.968 89.2112 290.783C86.376 289.939 84.1073 288.941 82.5928 287.835C82.2263 287.571 81.9039 287.299 81.6307 287.023C80.9769 286.372 80.5842 285.691 80.4697 284.99C81.234 280.224 95.1195 276.414 112.082 276.414C114.228 276.414 116.325 276.475 118.356 276.592C119.39 276.651 120.409 276.724 121.407 276.813C125.483 277.17 129.209 277.756 132.4 278.517C133.089 278.681 133.756 278.855 134.396 279.036C136.882 279.738 138.961 280.557 140.52 281.462C142.039 282.343 143.063 283.304 143.496 284.316C143.592 284.539 143.659 284.764 143.694 284.991Z" fill="#E1F3A8"/>
<path opacity="0.2" d="M143.492 284.315L110.948 293.558C107.165 293.52 103.548 293.294 100.211 292.908L140.517 281.461C142.035 282.343 143.06 283.303 143.492 284.315Z" fill="white"/>
<path opacity="0.2" d="M121.406 276.815L82.593 287.836C82.2264 287.572 81.904 287.3 81.6309 287.023L118.356 276.594C119.389 276.653 120.408 276.726 121.406 276.815Z" fill="white"/>
<path opacity="0.2" d="M134.396 279.037L91.1623 291.315C90.4864 291.146 89.8376 290.969 89.2109 290.783L132.399 278.518C133.089 278.682 133.756 278.855 134.396 279.037Z" fill="white"/>
<path d="M116.487 289.675V291.169H109.808V289.743C105.072 289.662 100.477 289.299 97.6357 288.8L101.235 286.487C104.362 287.011 108.529 287.347 112.176 287.347C115.35 287.347 116.487 287.158 116.487 286.836C116.487 285.653 98.157 286.607 98.157 283.097C98.157 281.578 102.041 280.299 109.808 279.99V278.523H116.487V279.963C119.992 280.057 123.401 280.312 126.101 280.743L122.738 283.043C119.47 282.572 116.392 282.343 113.503 282.343C110.235 282.343 109.193 282.612 109.193 282.934C109.193 284.064 127.523 283.123 127.523 286.593C127.523 288.047 123.828 289.312 116.487 289.675Z" fill="#4641B5"/>
<path d="M116.299 289.179V290.673H109.621V289.246C104.885 289.166 100.29 288.803 97.4492 288.304L101.049 285.99C104.175 286.515 108.343 286.851 111.99 286.851C115.163 286.851 116.3 286.663 116.3 286.34C116.3 285.156 97.9705 286.111 97.9705 282.601C97.9705 281.08 101.854 279.803 109.621 279.494V278.027H116.299V279.466C119.804 279.561 123.214 279.816 125.914 280.247L122.552 282.547C119.284 282.076 116.206 281.847 113.316 281.847C110.048 281.847 109.007 282.116 109.007 282.438C109.007 283.568 127.336 282.627 127.336 286.097C127.334 287.552 123.64 288.817 116.299 289.179Z" fill="#79CC56"/>
<path d="M346.227 241.066L282.713 240.906V319.793L346.227 319.999V241.066Z" fill="#56913D"/>
<path d="M299.01 250.834C299.648 250.861 300.196 250.385 300.257 249.748C300.635 245.779 302.366 232.505 308.891 227.71C310.679 226.395 312.636 225.86 314.878 226.069C326.334 227.144 328.075 245.109 328.335 249.855C328.371 250.494 328.902 250.993 329.543 250.99C330.229 250.987 330.774 250.412 330.74 249.727C330.48 244.52 328.606 225.28 315.135 224.016C312.241 223.742 309.615 224.459 307.328 226.14C300.071 231.476 298.258 245.246 297.864 249.52C297.799 250.206 298.322 250.805 299.01 250.834Z" fill="#B7B4FF"/>
<path d="M340.704 241.066L277.189 240.906V319.793L340.704 319.999V241.066Z" fill="#4641B5"/>
<path d="M296.105 250.437C296.105 251.695 295.085 252.716 293.827 252.716C292.568 252.716 291.548 251.695 291.548 250.437C291.548 249.179 292.568 248.158 293.827 248.158C295.085 248.158 296.105 249.179 296.105 250.437Z" fill="#56913D"/>
<path d="M326.697 250.437C326.697 251.695 325.677 252.716 324.418 252.716C323.16 252.716 322.14 251.695 322.14 250.437C322.14 249.179 323.16 248.158 324.418 248.158C325.677 248.158 326.697 249.179 326.697 250.437Z" fill="#56913D"/>
<path d="M293.912 251.014C294.551 251.041 295.098 250.565 295.159 249.929C295.537 245.96 297.268 232.686 303.793 227.89C305.581 226.576 307.537 226.04 309.78 226.249C321.237 227.325 322.978 245.294 323.238 250.037C323.273 250.676 323.803 251.173 324.444 251.17H324.447C325.132 251.167 325.676 250.593 325.642 249.909C325.383 244.705 323.51 225.461 310.037 224.197C307.144 223.924 304.517 224.64 302.23 226.321C294.973 231.657 293.161 245.427 292.766 249.702C292.703 250.388 293.224 250.986 293.912 251.014Z" fill="#6EBA4E"/>
<path d="M326.464 75.8947V105.699C326.464 107.596 324.921 109.138 323.025 109.138H293.22C291.513 109.138 288.84 107.937 287.638 105.181C287.579 105.064 287.521 104.946 287.486 104.828C287.426 104.651 287.368 104.474 287.309 104.286C287.309 104.263 287.297 104.251 287.297 104.227C287.285 104.215 287.285 104.215 287.285 104.204V104.145L287.226 80.628V73.7395C287.226 71.9498 288.579 70.5006 290.299 70.3128C290.416 70.3128 290.546 70.3008 290.664 70.3008L321.07 70.4183C321.211 70.4183 321.352 70.4303 321.481 70.4534C321.481 70.4534 321.481 70.4534 321.493 70.4534C324.556 70.7959 326.464 74.082 326.464 75.8947Z" fill="#79CC56"/>
<path d="M323.909 73.7415V103.535C323.909 105.442 322.366 106.974 320.47 106.974H290.665C289.359 106.974 288.228 106.256 287.638 105.184C287.579 105.067 287.521 104.949 287.486 104.831C287.426 104.654 287.368 104.477 287.309 104.289C287.309 104.266 287.297 104.254 287.297 104.23C287.297 104.207 287.285 104.171 287.285 104.148C287.25 103.948 287.226 103.747 287.226 103.535V73.7415C287.226 71.9518 288.579 70.5026 290.299 70.3148C290.416 70.3148 290.546 70.3027 290.664 70.3027H320.469C320.823 70.3027 321.164 70.3499 321.481 70.4554C321.481 70.4554 321.481 70.4554 321.493 70.4554C322.896 70.8913 323.909 72.1868 323.909 73.7415Z" fill="#4641B5"/>
<path d="M307.745 98.7437L307.721 101.714L303.947 101.683L303.97 98.8461C301.294 98.6633 298.704 97.9201 297.106 96.9168L299.178 92.3292C300.936 93.3877 303.287 94.0757 305.348 94.0927C307.141 94.1078 307.786 93.7372 307.792 93.0955C307.811 90.7404 297.437 92.5561 297.494 85.5702C297.519 82.5452 299.735 80.0204 304.129 79.4409L304.153 76.5234L307.927 76.5546L307.904 79.4188C309.883 79.6227 311.806 80.147 313.325 81.0157L311.388 85.5772C309.548 84.6252 307.812 84.1562 306.179 84.1431C304.332 84.128 303.739 84.6583 303.734 85.3011C303.716 87.5497 314.089 85.76 314.033 92.6656C314.008 95.556 311.899 98.0547 307.745 98.7437Z" fill="white"/>
</svg>
