<svg width="291" height="300" viewBox="0 0 291 300" fill="none" xmlns="http://www.w3.org/2000/svg">
<path d="M79.7769 300H216.987C220.484 300 223.022 297.165 222.655 293.668L197.923 57.8866C197.556 54.3895 194.424 51.5547 190.927 51.5547H53.7169C50.2197 51.5547 47.6822 54.3895 48.0489 57.8866L72.7807 293.668C73.1474 297.165 76.2798 300 79.7769 300Z" fill="#4641B5"/>
<path d="M83.5168 273.814H207.742L186.199 68.4316H61.9736L83.5168 273.814Z" fill="#EFEFFF"/>
<mask id="mask0_4220_36996" style="mask-type:luminance" maskUnits="userSpaceOnUse" x="61" y="68" width="147" height="206">
<path d="M83.5109 273.814H207.736L186.193 68.4316H61.9678L83.5109 273.814Z" fill="white"/>
</mask>
<g mask="url(#mask0_4220_36996)">
<path opacity="0.19" d="M80.5405 64.707C80.5405 64.707 103.509 215.598 213.169 238.293L220.795 281.402H71.49L48.7656 64.7586L80.5405 64.707Z" fill="#4641B5"/>
</g>
<path d="M133.012 293.463H162.388C164.396 293.463 165.853 291.835 165.642 289.828L165.14 285.038C164.929 283.03 163.13 281.402 161.123 281.402H131.747C129.739 281.402 128.282 283.03 128.493 285.038L128.995 289.828C129.206 291.835 131.004 293.463 133.012 293.463Z" fill="#1B3D9E"/>
<path d="M136.837 139.525C136.738 137.262 138.321 135.343 140.332 135.29C157.234 134.848 226.72 133.326 227.641 138.172C228.689 143.69 232.904 217.68 230.025 218.964C227.147 220.247 143.218 219.712 141.653 217.835C140.302 216.216 137.563 156.004 136.837 139.525Z" fill="#D5EFCB"/>
<path d="M136.696 137.489C136.696 137.489 136.173 135.283 132.341 134.339C128.51 133.394 56.5024 125.68 49.9728 131.822C43.4432 137.964 55.1119 219.442 58.6152 220.32C62.1186 221.198 139.814 220.502 142.566 217.737C145.319 214.973 136.696 137.489 136.696 137.489Z" fill="#D5EFCB"/>
<path d="M220.578 145.436C220.578 145.436 140.792 146.654 137.151 146.21C133.509 145.767 57.2254 141.131 56.1994 142.086C55.1735 143.041 133.612 150.221 137.109 149.632C140.607 149.043 225.644 148.588 220.578 145.436Z" fill="#79CC56"/>
<path d="M58.5616 147.301C58.5616 147.301 136.858 152.189 137.377 153.311C137.895 154.432 143.025 209.35 141.041 210.948C139.057 212.546 66.4308 213.342 65.3514 212.48C64.2718 211.618 55.6984 152.596 58.5616 147.301Z" fill="#79CC56"/>
<path d="M53.5645 130.414C53.5645 130.414 50.9388 138.675 51.89 153.942C52.8412 169.209 62.0815 220.545 62.0815 220.545L58.6161 220.319C58.6161 220.319 54.4724 210.804 51.8271 188.061C49.1818 165.318 45.7271 139.574 49.9738 131.821C49.9738 131.821 51.1006 130.474 53.5645 130.414Z" fill="#79CC56"/>
<path d="M225.106 136.816C225.106 136.816 226.467 137.632 227.187 147.027C227.908 156.422 229.607 207.927 228.754 213.58C227.9 219.233 227.169 219.278 227.169 219.278C227.169 219.278 230.502 219.719 230.745 218.83C230.988 217.941 232.103 208.42 231.368 198.455C230.633 188.491 230.519 159.502 229.689 156.197C228.86 152.892 230.561 136.457 225.106 136.816Z" fill="#79CC56"/>
<path d="M142.111 152.926C142.111 152.926 223.202 151.003 223.481 152.341C223.76 153.679 224.709 164.158 224.221 165.692C223.733 167.225 143.53 168.452 142.722 167.072C141.915 165.693 140.324 154.42 142.111 152.926Z" fill="#79CC56"/>
<path d="M133.829 156.034L133.796 155.681C133.704 155.673 133.587 155.663 133.444 155.651L133.479 155.227C133.744 155.248 133.925 155.264 134.013 155.273L134.187 155.291L134.254 155.994L133.829 156.034Z" fill="#D5EFCB"/>
<path d="M82.6787 210.48H82.2172V210.054L83.2815 210.054V210.48L82.6787 210.48ZM84.346 210.48L84.3456 210.053L85.4099 210.052L85.411 210.478L84.346 210.48ZM81.1529 210.479L80.0884 210.478L80.0895 210.051L81.1534 210.053L81.1529 210.479ZM86.4759 210.475L86.4746 210.049L87.5396 210.045L87.5411 210.471L86.4759 210.475ZM79.0239 210.475L77.9592 210.47L77.9611 210.044L79.0254 210.048L79.0239 210.475ZM88.606 210.467L88.6043 210.041L89.669 210.037L89.6712 210.463L88.606 210.467ZM76.8947 210.465L75.8299 210.458L75.8331 210.032L76.8972 210.039L76.8947 210.465ZM90.7361 210.457L90.7337 210.031L91.7983 210.025L91.801 210.451L90.7361 210.457ZM74.7652 210.449C74.3989 210.446 74.0438 210.443 73.7005 210.439L73.7054 210.012C74.0482 210.016 74.403 210.02 74.7691 210.023L74.7652 210.449ZM92.8657 210.444L92.863 210.018L93.9275 210.01L93.9309 210.437L92.8657 210.444ZM94.9958 210.428L94.9922 210.002L96.0569 209.993L96.0608 210.419L94.9958 210.428ZM72.6356 210.425C72.2631 210.42 71.9077 210.415 71.5706 210.409L71.5779 209.983C71.9147 209.989 72.2695 209.994 72.6415 209.999L72.6356 210.425ZM97.1255 210.41L97.1217 209.983L98.1864 209.973L98.1907 210.399L97.1255 210.41ZM70.5053 210.388C70.1155 210.379 69.7595 210.37 69.4395 210.36L69.4522 209.934C69.7714 209.944 70.1264 209.953 70.5148 209.962L70.5053 210.388ZM99.2552 210.388L99.2507 209.962L100.297 209.95L100.318 210.163L100.302 210.376L99.2552 210.388ZM101.385 210.364L101.38 209.937L102.448 209.924L102.453 210.35L101.385 210.364ZM103.52 210.336L103.515 209.91L104.58 209.896L104.586 210.322L103.52 210.336ZM68.3711 210.318C67.6036 210.279 67.4705 210.244 67.3995 210.211C67.2998 210.164 67.244 210.062 67.2067 209.979L67.596 209.805C67.6004 209.815 67.6045 209.824 67.6079 209.83C67.6735 209.841 67.8672 209.866 68.3929 209.893L68.3711 210.318ZM105.65 210.306L105.644 209.88L106.706 209.864L106.712 210.29L105.65 210.306ZM107.774 210.273L107.767 209.847L108.831 209.829L108.839 210.255L107.774 210.273ZM109.903 210.236L109.896 209.81L110.96 209.791L110.968 210.217L109.903 210.236ZM112.033 210.196L112.025 209.77L113.089 209.749L113.098 210.175L112.033 210.196ZM114.163 210.152L114.153 209.726L115.218 209.702L115.228 210.129L114.163 210.152ZM116.292 210.103L116.282 209.677L117.346 209.651L117.357 210.077L116.292 210.103ZM118.422 210.05L118.411 209.624L119.475 209.595L119.487 210.021L118.422 210.05ZM120.551 209.99L120.539 209.564L121.603 209.533L121.616 209.959L120.551 209.99ZM122.681 209.925L122.667 209.499L123.731 209.463L123.746 209.889L122.681 209.925ZM124.811 209.851L124.796 209.425C125.155 209.412 125.51 209.399 125.859 209.385L125.876 209.811C125.526 209.824 125.171 209.838 124.811 209.851ZM126.941 209.768L126.923 209.342C127.284 209.327 127.639 209.312 127.987 209.296L128.006 209.722C127.658 209.737 127.302 209.753 126.941 209.768ZM129.071 209.672L129.05 209.246C129.413 209.229 129.768 209.211 130.113 209.192L130.136 209.618C129.79 209.637 129.435 209.654 129.071 209.672ZM131.201 209.559L131.176 209.134C131.543 209.112 131.897 209.091 132.239 209.069L132.266 209.494C131.923 209.516 131.568 209.538 131.201 209.559ZM133.332 209.421L133.301 208.996C133.673 208.969 134.027 208.941 134.361 208.913L134.397 209.337C134.062 209.366 133.706 209.394 133.332 209.421ZM135.463 209.238L135.42 208.814C135.811 208.774 136.165 208.731 136.473 208.689L136.531 209.111C136.218 209.154 135.859 209.197 135.463 209.238ZM137.603 208.922L137.503 208.508C137.794 208.438 137.896 208.382 137.925 208.362C137.935 208.326 137.951 208.24 137.963 208.046L138.389 208.073C138.374 208.304 138.351 208.448 138.315 208.54C138.249 208.705 138.043 208.816 137.603 208.922ZM66.9171 208.902C66.8555 208.604 66.7888 208.248 66.7185 207.843L67.1385 207.77C67.208 208.17 67.2738 208.522 67.3345 208.815L66.9171 208.902ZM137.976 206.999C137.972 206.687 137.962 206.332 137.947 205.936L138.373 205.92C138.388 206.32 138.397 206.679 138.402 206.993L137.976 206.999ZM66.5445 206.786C66.4922 206.455 66.4386 206.102 66.3829 205.729L66.8046 205.666C66.8598 206.038 66.9135 206.39 66.9655 206.719L66.5445 206.786ZM137.902 204.871C137.886 204.536 137.868 204.181 137.847 203.807L138.273 203.784C138.293 204.159 138.312 204.515 138.328 204.851L137.902 204.871ZM66.2302 204.671C66.1822 204.332 66.1334 203.979 66.0838 203.613L66.5059 203.556C66.5555 203.92 66.6043 204.272 66.6523 204.611L66.2302 204.671ZM137.786 202.744C137.765 202.401 137.743 202.046 137.72 201.68L138.145 201.653C138.169 202.02 138.191 202.375 138.211 202.718L137.786 202.744ZM65.9419 202.556C65.8965 202.212 65.8505 201.859 65.8042 201.498L66.2268 201.443C66.2732 201.804 66.319 202.157 66.3644 202.5L65.9419 202.556ZM137.65 200.617C137.627 200.271 137.603 199.917 137.578 199.554L138.003 199.525C138.028 199.888 138.052 200.243 138.076 200.589L137.65 200.617ZM65.6698 200.44C65.6263 200.094 65.5824 199.741 65.5381 199.381L65.9611 199.329C66.0052 199.688 66.049 200.041 66.0925 200.386L65.6698 200.44ZM137.503 198.491L137.426 197.429L137.851 197.398L137.928 198.461L137.503 198.491ZM65.409 198.323L65.282 197.265L65.7052 197.214L65.8319 198.272L65.409 198.323ZM137.347 196.367L137.267 195.305L137.692 195.272L137.773 196.335L137.347 196.367ZM65.1571 196.206L65.034 195.147L65.4574 195.098L65.5805 196.157L65.1571 196.206ZM137.186 194.242L137.103 193.181L137.527 193.147L137.61 194.21L137.186 194.242ZM64.9125 194.088L64.7926 193.029L65.2159 192.981L65.3359 194.04L64.9125 194.088ZM137.018 192.119L136.934 191.057L137.358 191.023L137.443 192.085L137.018 192.119ZM64.6743 191.97L64.5573 190.911L64.9809 190.864L65.0979 191.923L64.6743 191.97ZM136.848 189.996L136.761 188.934L137.186 188.899L137.272 189.961L136.848 189.996ZM64.4416 189.852L64.3272 188.793L64.7508 188.747L64.8652 189.806L64.4416 189.852ZM136.674 187.872L136.585 186.811L137.01 186.776L137.098 187.837L136.674 187.872ZM64.2143 187.733L64.1024 186.673L64.5262 186.629L64.6381 187.688L64.2143 187.733ZM136.497 185.75L136.407 184.688L136.832 184.653L136.921 185.714L136.497 185.75ZM63.9918 185.614L63.8823 184.554L64.3061 184.511L64.4156 185.57L63.9918 185.614ZM136.317 183.627L136.226 182.566L136.651 182.53L136.741 183.591L136.317 183.627ZM63.7743 183.497L63.6671 182.438L64.0911 182.395L64.1981 183.454L63.7743 183.497ZM136.135 181.502L136.043 180.44L136.468 180.403L136.56 181.465L136.135 181.502ZM63.5606 181.376L63.4551 180.312L63.8791 180.271L63.9846 181.334L63.5606 181.376ZM135.951 179.38L135.859 178.322L136.283 178.285L136.376 179.343L135.951 179.38ZM63.3516 179.252L63.2489 178.191L63.6731 178.151L63.7758 179.211L63.3516 179.252ZM135.766 177.261L135.673 176.2L136.097 176.163L136.19 177.224L135.766 177.261ZM63.1474 177.131L63.0471 176.07L63.4713 176.03L63.5717 177.09L63.1474 177.131ZM135.579 175.139L135.485 174.078L135.909 174.04L136.003 175.101L135.579 175.139ZM62.948 175.009L62.8502 173.948L63.2744 173.909L63.3722 174.97L62.948 175.009ZM135.39 173.017L135.295 171.956L135.72 171.918L135.815 172.979L135.39 173.017ZM62.7537 172.887L62.6586 171.826L63.0831 171.788L63.1781 172.849L62.7537 172.887ZM135.2 170.895L135.104 169.834L135.529 169.796L135.624 170.857L135.2 170.895ZM62.5651 170.764L62.4728 169.703L62.8973 169.666L62.9895 170.727L62.5651 170.764ZM135.009 168.773L134.912 167.712L135.337 167.673L135.433 168.734L135.009 168.773ZM62.3821 168.641L62.2932 167.579L62.7179 167.543L62.8067 168.605L62.3821 168.641ZM134.816 166.651L134.719 165.59L135.143 165.551L135.24 166.613L134.816 166.651ZM62.2063 166.517C62.1773 166.158 62.1488 165.804 62.1211 165.454L62.5459 165.42C62.5736 165.771 62.602 166.125 62.6309 166.482L62.2063 166.517ZM134.622 164.529L134.524 163.467L134.948 163.428L135.046 164.49L134.622 164.529ZM62.0384 164.391C62.0107 164.032 61.9838 163.678 61.9578 163.328L62.3827 163.297C62.4089 163.646 62.4356 164 62.4633 164.359L62.0384 164.391ZM134.426 162.406L134.328 161.344L134.752 161.305L134.851 162.366L134.426 162.406ZM61.8799 162.265C61.8539 161.904 61.8289 161.549 61.8049 161.201L62.2299 161.171C62.254 161.519 62.2789 161.874 62.3049 162.234L61.8799 162.265ZM134.23 160.282L134.131 159.22L134.555 159.18L134.654 160.243L134.23 160.282ZM61.7333 160.137C61.7096 159.773 61.687 159.418 61.6659 159.072L62.0912 159.046C62.1125 159.391 62.1349 159.746 62.1586 160.109L61.7333 160.137ZM134.032 158.157L133.932 157.093L134.356 157.053L134.456 158.117L134.032 158.157ZM61.6033 158.006C61.5826 157.639 61.5637 157.283 61.5466 156.94L61.9721 156.919C61.9892 157.261 62.0081 157.616 62.0286 157.982L61.6033 158.006ZM61.4976 155.872C61.4818 155.496 61.4691 155.139 61.4588 154.803L61.8848 154.79C61.895 155.125 61.9078 155.48 61.9233 155.855L61.4976 155.872ZM132.698 155.592L131.635 155.51L131.667 155.086L132.731 155.167L132.698 155.592ZM130.57 155.43L129.506 155.351L129.537 154.926L130.602 155.005L130.57 155.43ZM128.442 155.272L127.379 155.194L127.41 154.769L128.474 154.847L128.442 155.272ZM126.315 155.117L125.252 155.039L125.283 154.614L126.346 154.692L126.315 155.117ZM124.189 154.962L123.126 154.886L123.157 154.461L124.22 154.538L124.189 154.962ZM122.064 154.809L121.001 154.734L121.031 154.309L122.094 154.385L122.064 154.809ZM119.938 154.658L118.876 154.583L118.906 154.158L119.969 154.233L119.938 154.658ZM117.813 154.507L116.751 154.433L116.781 154.008L117.843 154.083L117.813 154.507ZM115.688 154.359L114.625 154.284L114.655 153.859L115.718 153.933L115.688 154.359ZM113.563 154.21L112.5 154.137L112.53 153.711L113.592 153.785L113.563 154.21ZM111.438 154.063L110.376 153.99L110.405 153.565L111.467 153.638L111.438 154.063ZM109.313 153.917L108.25 153.844L108.28 153.419L109.342 153.492L109.313 153.917ZM107.188 153.772L106.126 153.7L106.155 153.274L107.217 153.347L107.188 153.772ZM61.4354 153.733C61.4335 153.573 61.4326 153.419 61.4326 153.273C61.4326 153.053 61.4347 152.849 61.4392 152.662L61.8652 152.672C61.8609 152.856 61.8588 153.057 61.8588 153.273C61.8588 153.418 61.8596 153.57 61.8615 153.728L61.4354 153.733ZM105.063 153.628L104.001 153.556L104.029 153.131L105.092 153.203L105.063 153.628ZM102.938 153.485L101.876 153.414L101.904 152.989L102.966 153.06L102.938 153.485ZM100.813 153.344L99.7506 153.273L99.7789 152.848L100.841 152.918L100.813 153.344ZM98.6882 153.203L97.6215 153.133L97.6494 152.708L98.7161 152.778L98.6882 153.203ZM96.5564 153.064L95.4931 152.995L95.5206 152.569L96.5841 152.638L96.5564 153.064ZM94.4318 152.926L93.372 152.858L93.3993 152.433L94.4593 152.501L94.4318 152.926ZM92.3094 152.791L91.2466 152.723L91.2735 152.298L92.3365 152.365L92.3094 152.791ZM90.184 152.656L89.1212 152.589L89.1478 152.164L90.2109 152.231L90.184 152.656ZM88.0584 152.524L86.9956 152.458L87.0216 152.033L88.0846 152.098L88.0584 152.524ZM85.9324 152.393L84.8695 152.329L84.8951 151.904L85.9581 151.968L85.9324 152.393ZM83.8065 152.265L82.7435 152.202L82.7687 151.777L83.8319 151.84L83.8065 152.265ZM81.6803 152.14L80.6173 152.078L80.6416 151.653L81.7052 151.715L81.6803 152.14ZM79.5538 152.017L78.4904 151.957L78.514 151.532L79.5779 151.592L79.5538 152.017ZM77.4271 151.899L76.3637 151.841L76.3865 151.415L77.4504 151.473L77.4271 151.899ZM75.2998 151.784L74.2362 151.729L74.2581 151.304L75.3224 151.359L75.2998 151.784ZM73.1725 151.675L72.1084 151.623L72.1289 151.198L73.1938 151.25L73.1725 151.675ZM61.938 151.641L61.5174 151.571C61.5626 151.298 61.6248 151.156 61.7324 151.08C61.8049 151.03 61.9312 150.972 62.515 150.941L62.538 151.366C62.1775 151.386 62.0397 151.413 61.9902 151.427C61.9789 151.455 61.9587 151.516 61.938 151.641ZM71.0441 151.574C70.6808 151.557 70.3258 151.541 69.9798 151.526L69.9984 151.1C70.3448 151.115 70.7 151.131 71.0637 151.148L71.0441 151.574ZM68.9155 151.481C68.5488 151.466 68.1936 151.452 67.8508 151.44L67.8666 151.014C68.2098 151.027 68.5654 151.04 68.9328 151.055L68.9155 151.481ZM66.7854 151.403C66.4119 151.391 66.0565 151.38 65.7203 151.372L65.7311 150.946C66.0682 150.955 66.4247 150.965 66.7993 150.977L66.7854 151.403ZM64.6549 151.35C64.3151 151.345 64.0029 151.342 63.7204 151.342L63.5908 151.342L63.5898 150.916L63.7204 150.916C64.005 150.916 64.3193 150.919 64.6615 150.924L64.6549 151.35Z" fill="#D5EFCB"/>
<path d="M144.184 170.144C143.711 170.176 143.353 170.579 143.374 171.052C143.642 176.989 145.328 212.714 147.088 212.519C149.008 212.307 224.439 213.916 225.002 212.542C225.566 211.168 225.085 172.124 222.973 169.176C222.973 169.176 153.944 169.476 144.184 170.144Z" fill="#79CC56"/>
<path d="M136.7 137.488L138.648 155.859C138.648 155.859 136.801 136.44 140.339 135.289C140.339 135.289 137.846 135.243 136.7 137.488Z" fill="#79CC56"/>
<path d="M141.937 218.045C141.937 218.045 143.088 216.509 143.098 214.154C143.107 211.798 142.853 205.16 142.853 205.16C142.853 205.16 144.697 216.552 143.202 218.218L141.937 218.045Z" fill="#79CC56"/>
<path d="M208.98 211.237L207.914 211.236L207.915 210.81L208.98 210.81V211.237H208.98ZM210.045 211.236L210.045 210.81L211.111 210.808L211.111 211.234L210.045 211.236ZM206.848 211.235L205.782 211.234L205.783 210.807L206.849 210.809L206.848 211.235ZM212.177 211.231L212.176 210.805L213.242 210.801L213.244 211.227L212.177 211.231ZM204.715 211.231L203.649 211.228L203.65 210.802L204.717 210.805L204.715 211.231ZM202.583 211.225L201.516 211.221L201.518 210.795L202.584 210.799L202.583 211.225ZM214.309 211.222L214.307 210.796C214.671 210.794 215.026 210.792 215.372 210.789L215.376 211.215C215.03 211.218 214.674 211.22 214.309 211.222ZM200.45 211.217L199.384 211.212L199.386 210.786L200.452 210.791L200.45 211.217ZM198.318 211.206L197.251 211.201L197.254 210.775L198.32 210.78L198.318 211.206ZM216.442 211.206L216.437 210.78C216.806 210.776 217.161 210.772 217.503 210.768L217.508 211.194C217.166 211.199 216.81 211.202 216.442 211.206ZM196.185 211.195L195.119 211.188L195.121 210.762L196.187 210.769L196.185 211.195ZM194.052 211.182L192.986 211.175L192.989 210.749L194.055 210.756L194.052 211.182ZM218.574 211.179L218.567 210.753C218.944 210.747 219.299 210.74 219.632 210.733L219.641 211.159C219.307 211.166 218.951 211.173 218.574 211.179ZM191.92 211.167L190.854 211.159L190.857 210.733L191.923 210.741L191.92 211.167ZM189.788 211.151L188.722 211.143L188.725 210.717L189.791 210.725L189.788 211.151ZM187.655 211.135L186.586 211.126L186.589 210.7L187.659 210.709L187.655 211.135ZM220.708 211.132L220.695 210.706C221.101 210.694 221.456 210.681 221.757 210.666L221.777 211.092C221.475 211.106 221.117 211.12 220.708 211.132ZM185.517 211.117L184.45 211.108L184.454 210.681L185.52 210.691L185.517 211.117ZM183.384 211.098L182.32 211.088L182.324 210.662L183.388 210.672L183.384 211.098ZM181.257 211.079L180.191 211.068L180.195 210.642L181.262 210.652L181.257 211.079ZM179.125 211.058L178.059 211.047L178.063 210.621L179.129 210.632L179.125 211.058ZM176.993 211.036L175.927 211.025L175.931 210.599L176.997 210.61L176.993 211.036ZM174.86 211.014L173.794 211.002L173.799 210.576L174.865 210.588L174.86 211.014ZM222.87 210.998L222.792 210.6C222.786 210.606 222.782 210.612 222.782 210.612C222.784 210.609 222.787 210.603 222.79 210.594L222.788 210.58C222.791 210.579 222.793 210.579 222.796 210.578C222.82 210.51 222.865 210.32 222.905 209.816L223.33 209.85C223.262 210.711 223.165 210.85 223.065 210.925C223.021 210.958 222.965 210.979 222.87 210.998ZM172.728 210.99L171.662 210.978L171.666 210.552L172.733 210.564L172.728 210.99ZM170.595 210.966L169.529 210.953L169.534 210.527L170.6 210.54L170.595 210.966ZM168.463 210.941L167.397 210.928L167.402 210.502L168.468 210.515L168.463 210.941ZM166.33 210.915L165.264 210.901L165.269 210.475L166.336 210.488L166.33 210.915ZM164.198 210.887L163.131 210.873L163.137 210.447L164.203 210.461L164.198 210.887ZM162.064 210.858L160.998 210.843L161.004 210.417L162.07 210.432L162.064 210.858ZM159.931 210.828L158.864 210.813L158.871 210.387L159.937 210.402L159.931 210.828ZM157.797 210.796L156.73 210.78L156.737 210.354L157.804 210.37L157.797 210.796ZM155.663 210.762L154.595 210.744L154.603 210.318L155.67 210.336L155.663 210.762ZM153.528 210.725L152.459 210.704L152.467 210.278L153.535 210.299L153.528 210.725ZM151.389 210.682C150.961 210.672 150.602 210.663 150.317 210.654L150.33 210.228C150.614 210.236 150.972 210.246 151.399 210.256L151.389 210.682ZM149.206 210.247C149.125 210.024 149.044 209.67 148.96 209.165L149.38 209.095C149.459 209.568 149.536 209.906 149.606 210.102L149.206 210.247ZM223.386 208.776L222.96 208.762C222.97 208.442 222.978 208.087 222.984 207.701L223.41 207.707C223.405 208.096 223.396 208.453 223.386 208.776ZM148.804 208.097C148.762 207.77 148.719 207.413 148.676 207.03L149.1 206.983C149.142 207.363 149.184 207.717 149.226 208.042L148.804 208.097ZM223.419 206.639L222.993 206.637L222.993 206.301C222.993 206.066 222.992 205.823 222.991 205.573L223.417 205.57C223.419 205.821 223.419 206.065 223.419 206.301L223.419 206.639ZM148.564 205.964C148.53 205.624 148.496 205.268 148.462 204.898L148.886 204.859C148.92 205.228 148.954 205.583 148.988 205.921L148.564 205.964ZM222.982 204.506C222.979 204.161 222.974 203.805 222.968 203.44L223.395 203.434C223.4 203.799 223.405 204.156 223.409 204.502L222.982 204.506ZM148.367 203.833C148.338 203.487 148.308 203.132 148.278 202.767L148.703 202.733C148.733 203.096 148.762 203.451 148.792 203.796L148.367 203.833ZM222.95 202.374C222.943 202.025 222.935 201.669 222.927 201.307L223.353 201.298C223.362 201.66 223.369 202.016 223.376 202.365L222.95 202.374ZM148.193 201.702C148.166 201.353 148.14 200.998 148.113 200.637L148.538 200.605C148.564 200.966 148.591 201.321 148.618 201.669L148.193 201.702ZM222.902 200.241C222.893 199.89 222.884 199.535 222.874 199.175L223.3 199.163C223.31 199.523 223.319 199.879 223.328 200.23L222.902 200.241ZM148.035 199.571C148.01 199.22 147.985 198.865 147.96 198.506L148.385 198.476C148.41 198.835 148.435 199.19 148.46 199.541L148.035 199.571ZM222.843 198.109C222.832 197.757 222.821 197.402 222.81 197.043L223.236 197.03C223.247 197.388 223.258 197.744 223.269 198.096L222.843 198.109ZM147.887 197.44L147.817 196.375L148.242 196.347L148.312 197.412L147.887 197.44ZM222.775 195.977L222.738 194.911L223.164 194.896L223.201 195.963L222.775 195.977ZM147.748 195.309L147.681 194.243L148.106 194.217L148.173 195.282L147.748 195.309ZM222.699 193.845L222.658 192.783L223.084 192.767L223.124 193.83L222.699 193.845ZM147.616 193.178L147.551 192.112L147.977 192.087L148.041 193.152L147.616 193.178ZM222.616 191.719L222.572 190.651L222.997 190.633L223.041 191.701L222.616 191.719ZM147.489 191.043L147.427 189.977L147.852 189.952L147.914 191.018L147.489 191.043ZM222.526 189.586L222.479 188.521L222.904 188.502L222.952 189.568L222.526 189.586ZM147.366 188.914L147.307 187.848L147.732 187.825L147.792 188.89L147.366 188.914ZM222.43 187.455L222.379 186.39L222.805 186.369L222.855 187.435L222.43 187.455ZM147.248 186.782L147.191 185.716L147.616 185.693L147.674 186.759L147.248 186.782ZM222.327 185.325L222.273 184.26L222.698 184.238L222.752 185.304L222.327 185.325ZM147.134 184.65L147.078 183.583L147.504 183.562L147.56 184.628L147.134 184.65ZM222.217 183.195L222.158 182.13L222.584 182.106L222.642 183.172L222.217 183.195ZM147.023 182.517L146.969 181.45L147.395 181.429L147.449 182.495L147.023 182.517ZM222.099 181.065C222.078 180.704 222.057 180.349 222.036 180L222.461 179.975C222.482 180.324 222.503 180.679 222.524 181.041L222.099 181.065ZM146.916 180.384L146.863 179.316L147.289 179.295L147.341 180.362L146.916 180.384ZM221.971 178.936C221.948 178.572 221.925 178.217 221.902 177.871L222.328 177.843C222.35 178.189 222.373 178.545 222.396 178.909L221.971 178.936ZM146.811 178.249L146.759 177.181L147.185 177.16L147.237 178.228L146.811 178.249ZM221.831 176.807C221.805 176.438 221.779 176.083 221.754 175.743L222.179 175.711C222.204 176.052 222.23 176.408 222.256 176.777L221.831 176.807ZM146.709 176.112L146.659 175.042L147.085 175.023L147.134 176.092L146.709 176.112ZM221.671 174.679C221.64 174.299 221.609 173.944 221.579 173.617L222.003 173.578C222.033 173.906 222.064 174.263 222.095 174.645L221.671 174.679ZM146.61 173.971L146.562 172.891L146.987 172.872L147.036 173.952L146.61 173.971ZM147.283 172.843L147.187 172.428C147.444 172.369 147.807 172.309 148.265 172.251L148.318 172.674C147.874 172.73 147.526 172.787 147.283 172.843ZM149.375 172.558L149.334 172.134C149.663 172.103 150.019 172.071 150.403 172.041L150.436 172.466C150.056 172.496 149.701 172.527 149.375 172.558ZM221.472 172.557C221.421 172.102 221.373 171.751 221.329 171.513L221.748 171.435C221.794 171.683 221.844 172.044 221.896 172.51L221.472 172.557ZM151.499 172.387L151.47 171.961C151.81 171.938 152.166 171.915 152.537 171.892L152.563 172.317C152.193 172.34 151.839 172.363 151.499 172.387ZM153.628 172.254L153.604 171.829C153.949 171.809 154.305 171.79 154.671 171.771L154.693 172.197C154.327 172.216 153.972 172.235 153.628 172.254ZM155.758 172.144L155.737 171.718C156.085 171.701 156.44 171.684 156.804 171.668L156.823 172.094C156.46 172.11 156.105 172.127 155.758 172.144ZM157.888 172.047L157.87 171.621L158.936 171.577L158.954 172.003L157.888 172.047ZM160.019 171.961L160.003 171.535L161.069 171.495L161.085 171.921L160.019 171.961ZM162.151 171.883L162.136 171.457L163.202 171.421L163.216 171.847L162.151 171.883ZM164.282 171.812L164.268 171.387L165.334 171.353L165.347 171.779L164.282 171.812ZM166.413 171.747L166.401 171.321L167.467 171.29L167.479 171.716L166.413 171.747ZM168.544 171.686L168.533 171.26L169.599 171.231L169.61 171.657L168.544 171.686ZM170.676 171.63L170.665 171.204L171.731 171.177L171.741 171.603L170.676 171.63ZM172.808 171.578L172.797 171.151L173.863 171.126L173.873 171.552L172.808 171.578ZM174.939 171.528L174.93 171.102L175.996 171.078L176.005 171.504L174.939 171.528ZM177.071 171.482L177.062 171.056L178.128 171.034L178.137 171.46L177.071 171.482ZM179.203 171.438L179.194 171.012L180.26 170.992L180.269 171.418L179.203 171.438ZM181.334 171.398L181.326 170.972L182.393 170.952L182.4 171.379L181.334 171.398ZM183.466 171.36L183.459 170.933L184.528 170.915L184.535 171.341L183.466 171.36ZM185.603 171.324L185.596 170.898L186.662 170.881L186.669 171.307L185.603 171.324ZM187.734 171.291L187.727 170.865L188.79 170.849L188.797 171.275L187.734 171.291ZM189.863 171.26L189.857 170.834L190.923 170.819L190.929 171.245L189.863 171.26ZM191.995 171.232L191.989 170.806L193.055 170.792L193.061 171.218L191.995 171.232ZM220.764 171.216C220.498 171.2 220.142 171.185 219.705 171.172L219.718 170.745C220.159 170.759 220.52 170.774 220.789 170.79L220.764 171.216ZM194.127 171.206L194.122 170.779L195.188 170.767L195.193 171.193L194.127 171.206ZM196.259 171.181L196.255 170.755L197.321 170.744L197.325 171.17L196.259 171.181ZM198.391 171.16L198.387 170.734L199.453 170.724L199.457 171.15L198.391 171.16ZM218.642 171.145C218.313 171.139 217.958 171.133 217.578 171.128L217.584 170.702C217.965 170.707 218.321 170.713 218.65 170.719L218.642 171.145ZM200.523 171.141L200.52 170.715L201.586 170.706L201.59 171.132L200.523 171.141ZM202.656 171.125L202.653 170.698L203.719 170.691L203.722 171.118L202.656 171.125ZM216.513 171.115C216.173 171.112 215.818 171.109 215.448 171.106L215.451 170.68C215.821 170.682 216.177 170.685 216.517 170.689L216.513 171.115ZM204.789 171.111L204.786 170.685L205.853 170.679L205.855 171.105L204.789 171.111ZM206.921 171.101L206.919 170.675L207.987 170.671L207.988 171.097L206.921 171.101ZM214.383 171.099L213.318 171.095L213.319 170.669L214.385 170.673L214.383 171.099ZM209.054 171.094L209.053 170.668L210.12 170.666L210.12 171.092L209.054 171.094ZM212.253 171.093L211.187 171.092L211.187 170.666L212.253 170.667L212.253 171.093Z" fill="#D5EFCB"/>
<path opacity="0.48" d="M66.552 156.166C66.552 156.166 68.9507 205.873 70.6881 206.71C72.4255 207.546 133.769 208.833 134.788 206.318C135.808 203.803 133.054 159.295 130.935 158.133C128.816 156.972 66.4173 153.475 66.552 156.166Z" fill="#D5EFCB"/>
<mask id="mask1_4220_36996" style="mask-type:luminance" maskUnits="userSpaceOnUse" x="66" y="155" width="70" height="53">
<path d="M66.552 156.166C66.552 156.166 68.9507 205.873 70.6881 206.71C72.4255 207.546 133.769 208.833 134.788 206.318C135.808 203.803 133.054 159.295 130.935 158.133C128.816 156.972 66.4173 153.475 66.552 156.166Z" fill="white"/>
</mask>
<g mask="url(#mask1_4220_36996)">
<path opacity="0.21" d="M81.4163 153.23L63.79 181.513L66.2981 197.914L85.1789 175.569L70.3904 209.469L90.3758 210.08L106.225 173.297L97.0437 210.198L126.931 209.555L135.755 174.701L135.555 154.467L129.037 154.129L120.201 188.719L124.747 153.581L101.626 152.255L91.9031 178.277L98.5354 152.16L81.4163 153.23Z" fill="white"/>
</g>
<path d="M104.04 144.099C104.04 144.099 116.981 116.691 136.848 115.806C156.715 114.92 165.791 146.155 165.791 146.155L137.86 146.328L104.04 144.099Z" fill="#5953E8"/>
<mask id="mask2_4220_36996" style="mask-type:luminance" maskUnits="userSpaceOnUse" x="104" y="115" width="62" height="32">
<path d="M104.046 144.099C104.046 144.099 116.986 116.691 136.854 115.806C156.721 114.92 165.797 146.155 165.797 146.155L137.865 146.328L104.046 144.099Z" fill="white"/>
</mask>
<g mask="url(#mask2_4220_36996)">
<path opacity="0.34" d="M129.319 115.102C129.319 115.102 135.98 130.437 139.698 133.69C143.416 136.944 168.202 140.351 168.202 140.351L168.822 149.668C168.822 149.668 133.812 146.974 129.319 147.303C124.827 147.632 100.795 144.689 100.795 144.689C100.795 144.689 106.393 129.818 109.181 127.184C111.969 124.551 129.319 115.102 129.319 115.102Z" fill="#4641B5"/>
</g>
<path d="M136.839 115.806C136.839 115.806 154.19 114.199 165.657 145.813C176.102 174.611 219.549 220.32 227.208 228.236C227.897 228.948 228.958 229.145 229.857 228.728C234.352 226.641 247.495 220.58 248.289 220.678C249.248 220.797 258.832 191.675 261.468 191.141C264.104 190.606 289.264 180.453 289.503 178.101C289.743 175.75 238.061 119.441 222.688 110.097C207.315 100.752 138.487 113.607 136.839 115.806Z" fill="#9691FF"/>
<path d="M143.38 113.815C143.38 113.815 157.093 116.828 166.683 134.942C176.273 153.057 179.47 164.8 194.21 181.483C208.951 198.166 227.707 223.384 231.027 222.496C234.347 221.608 244.879 217.251 245.235 216.363C245.59 215.475 253.459 190.21 255.235 188.79C257.01 187.369 283.367 176.659 283.012 175.97C282.657 175.28 238.787 124.997 235.59 122.866C232.394 120.735 218.444 106.94 207.752 106.875C197.061 106.811 168.206 105.829 143.38 113.815Z" fill="#B7B4FF"/>
<mask id="mask3_4220_36996" style="mask-type:luminance" maskUnits="userSpaceOnUse" x="143" y="106" width="141" height="117">
<path d="M143.382 113.815C143.382 113.815 157.095 116.828 166.685 134.942C176.275 153.057 179.472 164.8 194.212 181.483C208.953 198.166 227.709 223.384 231.029 222.496C234.349 221.608 244.881 217.251 245.237 216.363C245.592 215.475 253.461 190.21 255.236 188.79C257.012 187.369 283.369 176.659 283.014 175.97C282.659 175.28 238.789 124.997 235.592 122.866C232.396 120.735 218.446 106.94 207.754 106.875C197.063 106.811 168.208 105.829 143.382 113.815Z" fill="white"/>
</mask>
<g mask="url(#mask3_4220_36996)">
<path opacity="0.24" d="M264.383 147.302L245.825 233.417L209.329 230.929L217.803 171.122L202.13 207.793L180.033 180.699L199.812 127.038L172.311 169.176L141.944 125.595L185 103.709L230.928 105.264L243.992 119.884L233.9 175.777L249.764 125.595L264.383 147.302Z" fill="#F9F9FF"/>
</g>
<path d="M203.931 127.866C199.533 131.541 199.217 138.627 200.373 143.825C201.58 149.252 204.538 154.523 208.832 158.103C213.203 161.748 220.131 164.235 225.488 161.225C227.822 159.915 229.52 157.619 230.38 155.084C233.001 147.358 229.11 139.421 223.8 133.864C219.008 128.849 211.61 122.398 204.531 127.405C204.323 127.552 204.123 127.706 203.931 127.866Z" fill="#5953E8"/>
<path d="M121.054 115.452H12.43C11.0122 115.452 9.70607 114.303 9.51281 112.885L0.0240434 43.245C-0.169214 41.8272 0.823702 40.6777 2.24149 40.6777H110.866C112.283 40.6777 113.589 41.8272 113.783 43.245L123.271 112.885C123.465 114.303 122.472 115.452 121.054 115.452Z" fill="#86A32E"/>
<path d="M58.4249 60.6094H11.2014C10.7369 60.6094 10.309 60.2329 10.2458 59.7684L8.87506 49.7082C8.81178 49.2437 9.13693 48.8672 9.60142 48.8672H56.8249C57.2894 48.8672 57.7173 49.2437 57.7806 49.7082L59.1513 59.7684C59.2146 60.2329 58.8894 60.6094 58.4249 60.6094Z" fill="#BDE541"/>
<path d="M16.0754 66.9913L17.4101 69.1105C17.4586 69.1876 17.5394 69.2409 17.6261 69.2532L20.011 69.5931C20.2294 69.6242 20.3509 69.8873 20.2164 70.0384L18.7488 71.6879C18.6955 71.7478 18.6791 71.8343 18.7051 71.9191L19.4219 74.2484C19.4875 74.4617 19.2857 74.6242 19.0806 74.5237L16.839 73.424C16.7574 73.384 16.6667 73.384 16.5961 73.424L14.6542 74.5237C14.4763 74.6244 14.2304 74.4617 14.2378 74.2484L14.3199 71.9191C14.3229 71.8343 14.283 71.748 14.2133 71.6879L12.2963 70.0384C12.1207 69.8873 12.1704 69.6242 12.3803 69.5931L14.6727 69.2532C14.756 69.2409 14.8223 69.1874 14.8498 69.1105L15.6068 66.9913C15.6765 66.7972 15.9533 66.7972 16.0754 66.9913Z" fill="#BDE541"/>
<path d="M30.7465 66.9913L32.0812 69.1105C32.1298 69.1876 32.2105 69.2409 32.2972 69.2532L34.6822 69.5931C34.9006 69.6242 35.022 69.8873 34.8876 70.0384L33.4199 71.6879C33.3666 71.7478 33.3502 71.8343 33.3762 71.9191L34.093 74.2484C34.1586 74.4617 33.9569 74.6242 33.7517 74.5237L31.5099 73.424C31.4285 73.384 31.3376 73.384 31.267 73.424L29.3251 74.5237C29.1472 74.6244 28.9013 74.4617 28.9087 74.2484L28.9908 71.9191C28.9938 71.8343 28.9539 71.748 28.8842 71.6879L26.9672 70.0384C26.7916 69.8873 26.8413 69.6242 27.0512 69.5931L29.3436 69.2532C29.4269 69.2409 29.4932 69.1874 29.5207 69.1105L30.2777 66.9913C30.3476 66.7972 30.6244 66.7972 30.7465 66.9913Z" fill="#BDE541"/>
<path d="M45.4096 66.9913L46.7443 69.1105C46.7928 69.1876 46.8736 69.2409 46.9603 69.2532L49.3452 69.5931C49.5636 69.6242 49.6851 69.8873 49.5506 70.0384L48.083 71.6879C48.0297 71.7478 48.0133 71.8343 48.0393 71.9191L48.7561 74.2484C48.8217 74.4617 48.6199 74.6242 48.4148 74.5237L46.173 73.424C46.0914 73.384 46.0006 73.384 45.9301 73.424L43.9882 74.5237C43.8105 74.6244 43.5644 74.4617 43.5718 74.2484L43.6539 71.9191C43.6568 71.8343 43.617 71.748 43.5473 71.6879L41.6303 70.0384C41.4547 69.8873 41.5044 69.6242 41.7143 69.5931L44.0067 69.2532C44.09 69.2409 44.1563 69.1874 44.1838 69.1105L44.9408 66.9913C45.0107 66.7972 45.2873 66.7972 45.4096 66.9913Z" fill="#BDE541"/>
<path d="M60.0871 66.9913L61.4218 69.1105C61.4704 69.1876 61.5511 69.2409 61.6378 69.2532L64.0228 69.5931C64.2412 69.6242 64.3626 69.8873 64.2282 70.0384L62.7607 71.6879C62.7075 71.7478 62.6911 71.8343 62.7171 71.9191L63.4338 74.2484C63.4995 74.4617 63.2977 74.6242 63.0925 74.5237L60.8507 73.424C60.7691 73.384 60.6784 73.384 60.6079 73.424L58.6659 74.5237C58.4882 74.6244 58.2421 74.4617 58.2496 74.2484L58.3316 71.9191C58.3346 71.8343 58.2947 71.748 58.2251 71.6879L56.308 70.0384C56.1325 69.8873 56.1821 69.6242 56.392 69.5931L58.6844 69.2532C58.7678 69.2409 58.834 69.1874 58.8615 69.1105L59.6186 66.9913C59.688 66.7972 59.9648 66.7972 60.0871 66.9913Z" fill="#BDE541"/>
<path d="M74.7572 66.9913L76.0919 69.1105C76.1405 69.1876 76.2212 69.2409 76.308 69.2532L78.6929 69.5931C78.9113 69.6242 79.0328 69.8873 78.8983 70.0384L77.4307 71.6879C77.3774 71.7478 77.361 71.8343 77.387 71.9191L78.1038 74.2484C78.1694 74.4617 77.9676 74.6242 77.7624 74.5237L75.5209 73.424C75.4393 73.384 75.3485 73.384 75.2778 73.424L73.3358 74.5237C73.1579 74.6244 72.912 74.4617 72.9195 74.2484L73.0015 71.9191C73.0045 71.8343 72.9647 71.748 72.895 71.6879L70.978 70.0384C70.8024 69.8873 70.852 69.6242 71.0619 69.5931L73.3544 69.2532C73.4377 69.2409 73.5039 69.1874 73.5314 69.1105L74.2885 66.9913C74.3584 66.7972 74.6349 66.7972 74.7572 66.9913Z" fill="white"/>
<path d="M100.941 85.9664H14.4647C14.1065 85.9664 13.7766 85.676 13.7279 85.3179L13.1994 81.4394C13.1506 81.0812 13.4014 80.791 13.7596 80.791H100.236C100.594 80.791 100.924 81.0814 100.972 81.4394L101.501 85.3179C101.55 85.6762 101.299 85.9664 100.941 85.9664Z" fill="#BDE541"/>
<path d="M102.126 94.6537H15.6502C15.292 94.6537 14.9622 94.3633 14.9134 94.0054L14.385 90.1271C14.3362 89.7689 14.587 89.4785 14.9451 89.4785H101.421C101.779 89.4785 102.109 89.7689 102.158 90.1271L102.686 94.0054C102.735 94.3635 102.485 94.6537 102.126 94.6537Z" fill="#BDE541"/>
<path d="M60.8461 103.343H17.1074C16.6009 103.343 16.1343 102.933 16.0653 102.426L15.6101 99.0852C15.5411 98.5785 15.8959 98.168 16.4024 98.168H60.1411C60.6475 98.168 61.1142 98.5785 61.1832 99.0852L61.6383 102.426C61.7074 102.933 61.3528 103.343 60.8461 103.343Z" fill="#BDE541"/>
<path d="M252.21 101.856H148.151C146.587 101.856 145.119 100.588 144.872 99.0238L140.948 74.1698C140.701 72.6059 141.768 71.3379 143.333 71.3379H247.391C248.955 71.3379 250.423 72.6059 250.67 74.1698L254.594 99.0238C254.841 100.588 253.773 101.856 252.21 101.856Z" fill="#86A32E"/>
<path d="M156.952 85.9018C156.131 85.3191 155.521 84.4236 155.362 83.4172C155.085 81.6607 156.284 80.2368 158.04 80.2368C159.797 80.2368 161.446 81.6607 161.723 83.4172C161.882 84.4236 161.555 85.3191 160.917 85.9018C164.135 86.6689 166.936 89.1906 168.029 92.3512C168.854 90.782 169.183 88.8846 168.861 86.84C168.008 81.44 162.939 77.0625 157.539 77.0625C152.139 77.0625 148.453 81.44 149.305 86.84C149.628 88.8846 150.556 90.782 151.877 92.3512C151.973 89.1908 153.977 86.6689 156.952 85.9018Z" fill="#BDE541"/>
<path d="M160.628 96.617C163.983 96.617 166.676 94.9261 168.03 92.3508C166.937 89.1903 164.136 86.6684 160.918 85.9014C161.556 85.3186 161.883 84.4231 161.724 83.4168C161.447 81.6603 159.798 80.2363 158.041 80.2363C156.285 80.2363 155.086 81.6603 155.363 83.4168C155.522 84.4231 156.132 85.3186 156.954 85.9014C153.978 86.6684 151.974 89.1901 151.878 92.3508C154.045 94.9261 157.272 96.617 160.628 96.617Z" fill="white"/>
<path d="M242.829 85.1939H180.738C179.991 85.1939 179.29 84.5886 179.173 83.8418L178.209 77.7408C178.091 76.994 178.601 76.3887 179.348 76.3887H241.439C242.186 76.3887 242.886 76.994 243.004 77.7408L243.967 83.8418C244.085 84.5886 243.576 85.1939 242.829 85.1939Z" fill="#BDE541"/>
<path d="M244.663 96.8053H182.572C181.825 96.8053 181.124 96.1999 181.007 95.4531L180.043 89.3521C179.925 88.6053 180.435 88 181.182 88H243.273C244.02 88 244.72 88.6053 244.838 89.3521L245.802 95.4531C245.919 96.1999 245.41 96.8053 244.663 96.8053Z" fill="#BDE541"/>
<path d="M187.432 81.1478C187.561 81.963 187.004 82.6237 186.189 82.6237C185.374 82.6237 184.609 81.963 184.48 81.1478C184.352 80.3326 184.908 79.6719 185.723 79.6719C186.538 79.6719 187.303 80.3328 187.432 81.1478Z" fill="#86A32E"/>
<path d="M194.627 81.1478C194.756 81.963 194.2 82.6237 193.385 82.6237C192.569 82.6237 191.804 81.963 191.676 81.1478C191.547 80.3326 192.104 79.6719 192.919 79.6719C193.734 79.6719 194.499 80.3328 194.627 81.1478Z" fill="#86A32E"/>
<path d="M201.831 81.1478C201.959 81.963 201.403 82.6237 200.588 82.6237C199.772 82.6237 199.008 81.963 198.879 81.1478C198.75 80.3326 199.307 79.6719 200.122 79.6719C200.937 79.6721 201.702 80.3328 201.831 81.1478Z" fill="#86A32E"/>
<path d="M209.026 81.1478C209.155 81.963 208.598 82.6237 207.783 82.6237C206.968 82.6237 206.203 81.963 206.074 81.1478C205.945 80.3326 206.502 79.6719 207.317 79.6719C208.132 79.6721 208.897 80.3328 209.026 81.1478Z" fill="#86A32E"/>
<path d="M216.221 81.1478C216.35 81.963 215.793 82.6237 214.978 82.6237C214.163 82.6237 213.398 81.963 213.269 81.1478C213.141 80.3326 213.697 79.6719 214.512 79.6719C215.327 79.6721 216.092 80.3328 216.221 81.1478Z" fill="#86A32E"/>
<path d="M223.431 81.1478C223.56 81.963 223.003 82.6237 222.188 82.6237C221.373 82.6237 220.608 81.963 220.479 81.1478C220.351 80.3326 220.907 79.6719 221.722 79.6719C222.537 79.6719 223.302 80.3328 223.431 81.1478Z" fill="#86A32E"/>
<path d="M230.626 81.1478C230.755 81.963 230.199 82.6237 229.384 82.6237C228.569 82.6237 227.803 81.963 227.675 81.1478C227.546 80.3326 228.103 79.6719 228.918 79.6719C229.733 79.6719 230.498 80.3328 230.626 81.1478Z" fill="#86A32E"/>
<path d="M237.822 81.1478C237.95 81.963 237.394 82.6237 236.579 82.6237C235.764 82.6237 234.999 81.963 234.87 81.1478C234.741 80.3326 235.298 79.6719 236.113 79.6719C236.928 79.6719 237.693 80.3328 237.822 81.1478Z" fill="#86A32E"/>
<path d="M189.194 92.4037C189.323 93.2189 188.766 93.8796 187.951 93.8796C187.136 93.8796 186.371 93.2189 186.242 92.4037C186.113 91.5885 186.67 90.9277 187.485 90.9277C188.3 90.9277 189.065 91.5885 189.194 92.4037Z" fill="#86A32E"/>
<path d="M196.404 92.4037C196.532 93.2189 195.976 93.8796 195.161 93.8796C194.346 93.8796 193.581 93.2189 193.452 92.4037C193.323 91.5885 193.88 90.9277 194.695 90.9277C195.51 90.9277 196.275 91.5885 196.404 92.4037Z" fill="#86A32E"/>
<path d="M203.599 92.4037C203.728 93.2189 203.171 93.8796 202.356 93.8796C201.541 93.8796 200.776 93.2189 200.647 92.4037C200.519 91.5885 201.075 90.9277 201.89 90.9277C202.705 90.9277 203.47 91.5885 203.599 92.4037Z" fill="#86A32E"/>
<path d="M210.794 92.4037C210.923 93.2189 210.367 93.8796 209.552 93.8796C208.737 93.8796 207.971 93.2189 207.843 92.4037C207.714 91.5885 208.271 90.9277 209.086 90.9277C209.901 90.9277 210.666 91.5885 210.794 92.4037Z" fill="#86A32E"/>
<path d="M217.998 92.4037C218.126 93.2189 217.57 93.8796 216.755 93.8796C215.94 93.8796 215.175 93.2189 215.046 92.4037C214.917 91.5885 215.474 90.9277 216.289 90.9277C217.104 90.9277 217.869 91.5885 217.998 92.4037Z" fill="#86A32E"/>
<path d="M225.193 92.4037C225.322 93.2189 224.765 93.8796 223.95 93.8796C223.135 93.8796 222.37 93.2189 222.241 92.4037C222.112 91.5885 222.669 90.9277 223.484 90.9277C224.299 90.9277 225.064 91.5885 225.193 92.4037Z" fill="#86A32E"/>
<path d="M232.403 92.4037C232.532 93.2189 231.975 93.8796 231.16 93.8796C230.345 93.8796 229.58 93.2189 229.451 92.4037C229.322 91.5885 229.879 90.9277 230.694 90.9277C231.509 90.9277 232.274 91.5885 232.403 92.4037Z" fill="#86A32E"/>
<path d="M239.598 92.4037C239.727 93.2189 239.17 93.8796 238.355 93.8796C237.54 93.8796 236.775 93.2189 236.646 92.4037C236.518 91.5885 237.074 90.9277 237.889 90.9277C238.705 90.9277 239.47 91.5885 239.598 92.4037Z" fill="#86A32E"/>
<path d="M216.147 52.5484C215.871 52.2803 215.745 51.8955 215.81 51.5163C216.504 47.4633 221.742 26.0738 236.335 19.5567C249.994 13.4572 266.676 1.39818 268.989 0.0767275C271.301 -1.24472 275.521 14.9316 277.834 15.5924C280.147 16.2531 290.451 22.6794 291.38 25.1806C292.308 27.6818 257.509 39.3793 254.621 45.6563C251.734 51.9333 247.486 66.4698 245.81 67.1306C244.135 67.7913 230.751 64.1572 228.357 63.166C226.26 62.2973 218.125 54.4692 216.147 52.5484Z" fill="#9691FF"/>
<path d="M217.842 50.8611C217.842 50.8611 223.059 31.6091 231.606 25.2682C240.153 18.9271 245.667 17.5488 251.916 13.6888C258.165 9.82908 268.734 2.10962 269.009 2.66083C269.285 3.21225 274.432 15.9861 275.259 16.4457C276.086 16.9053 289.411 24.4409 289.595 25.0841C289.779 25.7274 256.235 36.939 253.202 43.464C250.17 49.9888 246.126 65.0604 245.299 65.4279C244.472 65.7955 229.296 61.7159 228.285 61.0726C227.274 60.4294 217.021 51.0484 217.842 50.8611Z" fill="#B7B4FF"/>
<mask id="mask4_4220_36996" style="mask-type:luminance" maskUnits="userSpaceOnUse" x="217" y="2" width="73" height="64">
<path d="M217.84 50.8611C217.84 50.8611 223.057 31.6091 231.604 25.2682C240.151 18.9271 245.665 17.5488 251.914 13.6888C258.163 9.82908 268.732 2.10962 269.008 2.66083C269.283 3.21225 274.43 15.9861 275.257 16.4457C276.084 16.9053 289.409 24.4409 289.593 25.0841C289.777 25.7274 256.233 36.939 253.201 43.464C250.168 49.9888 246.124 65.0604 245.297 65.4279C244.47 65.7955 229.294 61.7159 228.283 61.0726C227.272 60.4294 217.019 51.0484 217.84 50.8611Z" fill="white"/>
</mask>
<g mask="url(#mask4_4220_36996)">
<path opacity="0.24" d="M266.086 0.851562L274.728 37.9224L258.857 48.7766L254.356 24.9087L254.622 52.8619L250.215 67.211L232.773 39.3487L241.051 68.8893L224.916 62.4468L218.788 36.0489L229.137 19.7072L242.198 35.8307L238.113 14.9933L253.69 5.09396L260.114 20.9643L258.229 2.63367L266.086 0.851562Z" fill="#F9F9FF"/>
</g>
<path d="M246.66 24.1655C246.459 24.2296 246.265 24.2963 246.08 24.3647C242.975 25.5114 241.281 28.3627 241.077 31.5956C240.982 33.0834 241.328 34.6262 242.209 35.8292C243.267 37.276 245.127 38.0351 246.894 37.9071C248.887 37.7628 250.39 36.0417 251.659 34.6868C252.875 33.3881 254.804 32.676 255.495 30.9291C256.277 28.9505 255.9 26.4191 254.367 24.9071C252.31 22.8785 249.16 23.3686 246.66 24.1655Z" fill="#5953E8"/>
<path d="M99.1463 257.204C104.156 257.204 108.216 253.143 108.216 248.134C108.216 243.125 104.156 239.064 99.1463 239.064C94.137 239.064 90.0762 243.125 90.0762 248.134C90.0762 253.143 94.137 257.204 99.1463 257.204Z" fill="#EFEFFF"/>
<path d="M128.907 257.204C133.916 257.204 137.977 253.143 137.977 248.134C137.977 243.125 133.916 239.064 128.907 239.064C123.898 239.064 119.837 243.125 119.837 248.134C119.837 253.143 123.898 257.204 128.907 257.204Z" fill="#EFEFFF"/>
<path d="M158.661 257.204C163.67 257.204 167.731 253.143 167.731 248.134C167.731 243.125 163.67 239.064 158.661 239.064C153.652 239.064 149.591 243.125 149.591 248.134C149.591 253.143 153.652 257.204 158.661 257.204Z" fill="#EFEFFF"/>
<path d="M188.428 257.204C193.438 257.204 197.499 253.143 197.499 248.134C197.499 243.125 193.438 239.064 188.428 239.064C183.419 239.064 179.358 243.125 179.358 248.134C179.358 253.143 183.419 257.204 188.428 257.204Z" fill="#EFEFFF"/>
</svg>
