<svg width="246" height="350" viewBox="0 0 246 350" fill="none" xmlns="http://www.w3.org/2000/svg">
<path d="M22.5054 0H13.4686C13.4686 0 2.33301 4.53207 2.33301 16.7038V343.46C2.33301 347.071 5.26065 350 8.87268 350H202.044C205.72 350 209.134 348.095 211.064 344.968L217.393 334.714L22.5054 0Z" fill="#433E51"/>
<path d="M210.485 340.288H20.4048C16.0014 340.288 12.4326 336.718 12.4326 332.316V7.97212C12.4326 3.56872 16.0025 0 20.4048 0H210.485C214.888 0 218.457 3.56986 218.457 7.97212V332.315C218.457 336.718 214.888 340.288 210.485 340.288Z" fill="#29266B"/>
<path d="M198.277 330.188H32.6086C28.6151 330.188 25.3789 326.951 25.3789 322.958V17.3293C25.3789 13.3358 28.6163 10.0996 32.6086 10.0996H198.277C202.27 10.0996 205.506 13.337 205.506 17.3293V322.957C205.506 326.951 202.269 330.188 198.277 330.188Z" fill="#EFEFFF"/>
<path d="M116.511 10.0996H114.374H88.7998L96.0512 17.869H114.374H116.511H134.833L142.084 10.0996H116.511Z" fill="#29266B"/>
<path d="M35.6798 20.6836L33.2997 15.1114H35.0032L37.0092 19.9353H36.0062L38.0599 15.1114H39.6202L37.2321 20.6836H35.6798ZM39.9464 20.6836V15.1114H42.4936C43.0031 15.1114 43.4409 15.1936 43.8071 15.3582C44.1786 15.5227 44.4651 15.7615 44.6668 16.0746C44.8685 16.3824 44.9693 16.7486 44.9693 17.1731C44.9693 17.5923 44.8685 17.9559 44.6668 18.2637C44.4651 18.5715 44.1786 18.8103 43.8071 18.9801C43.4409 19.1446 43.0031 19.2269 42.4936 19.2269H40.822L41.5225 18.5423V20.6836H39.9464ZM41.5225 18.7094L40.822 17.9851H42.3981C42.7272 17.9851 42.9713 17.9134 43.1305 17.7701C43.295 17.6268 43.3772 17.4278 43.3772 17.1731C43.3772 16.9131 43.295 16.7114 43.1305 16.5681C42.9713 16.4248 42.7272 16.3532 42.3981 16.3532H40.822L41.5225 15.6288V18.7094ZM45.7378 20.6836V15.1114H47.0353L50.108 18.8209H49.495V15.1114H51.0393V20.6836H49.7418L46.6691 16.9741H47.2821V20.6836H45.7378Z" fill="#29266B"/>
<path d="M195.177 22.8736C197.561 22.8736 199.493 20.9414 199.493 18.5579C199.493 16.1744 197.561 14.2422 195.177 14.2422C192.794 14.2422 190.861 16.1744 190.861 18.5579C190.861 20.9414 192.794 22.8736 195.177 22.8736Z" fill="#29266B"/>
<path d="M7.94144 50.0685V113.467C7.94144 114.631 6.74806 115.413 5.68108 114.95L0 112.48V51.1901L5.664 48.6041C6.7287 48.1179 7.94144 48.8967 7.94144 50.0685Z" fill="#29266B"/>
<path d="M7.07943 138.201V162.432C7.07943 163.802 5.68677 164.731 4.42166 164.208L0 162.374V137.858L5.06845 136.621C6.0933 136.372 7.07943 137.147 7.07943 138.201Z" fill="#29266B"/>
<path d="M7.94144 78.209H0V79.6768H7.94144V78.209Z" fill="#433E51"/>
<path d="M12.4277 27.709V267.516" stroke="#302D3D" stroke-miterlimit="10" stroke-linecap="round" stroke-linejoin="round"/>
<path d="M12.4277 317.756V283.744" stroke="#302D3D" stroke-miterlimit="10" stroke-linecap="round" stroke-linejoin="round"/>
<path d="M179.296 156.74C141.944 138.895 116.275 138.895 116.275 138.895C116.275 138.895 90.606 138.895 53.2536 156.74C49.2556 158.651 46.8426 162.827 47.2435 167.24C48.9607 186.193 53.9528 237.353 59.4096 256.678C60.4845 260.484 62.7449 263.838 65.8627 266.271L109.097 300.009C111.147 301.608 113.674 302.478 116.275 302.478C118.876 302.478 121.403 301.61 123.453 300.009L166.687 266.271C169.805 263.837 172.065 260.484 173.14 256.678C178.598 237.352 183.589 186.193 185.307 167.24C185.707 162.827 183.296 158.651 179.296 156.74Z" fill="#9691FF"/>
<path d="M174.796 161.311C140.113 144.74 116.278 144.74 116.278 144.74C116.278 144.74 92.4437 144.74 57.7605 161.311C54.0483 163.085 51.8084 166.962 52.1797 171.06C53.7739 188.659 58.4096 236.163 63.4769 254.108C64.4744 257.641 66.5742 260.757 69.4688 263.015L109.613 294.342C111.517 295.828 113.864 296.635 116.279 296.635C118.695 296.635 121.04 295.828 122.945 294.342L163.09 263.015C165.985 260.756 168.084 257.641 169.082 254.108C174.149 236.163 178.785 188.659 180.379 171.06C180.748 166.962 178.508 163.085 174.796 161.311Z" fill="#625BFF"/>
<path opacity="0.35" d="M57.7605 161.311C54.0483 163.085 51.8084 166.962 52.1797 171.06C53.7739 188.659 58.4096 236.163 63.4769 254.108C64.4744 257.641 66.5742 260.756 69.4688 263.015L109.613 294.342C111.517 295.828 113.864 296.635 116.279 296.635V144.74C116.279 144.74 92.4437 144.74 57.7605 161.311Z" fill="#625BFF"/>
<path d="M132.06 203.939V179.639C132.06 177.256 130.128 175.324 127.744 175.324H104.921C102.536 175.324 100.605 177.256 100.605 179.639V192.156H94.7783V176.301C94.7783 172.328 97.9986 169.107 101.972 169.107H131.351C135.324 169.107 138.544 172.328 138.544 176.301V203.938L132.06 203.939Z" fill="#F9F9FF"/>
<path d="M137.115 202.516H116.268H95.421C92.4888 202.516 90.1123 204.892 90.1123 207.824V237.541C90.1123 237.541 95.0327 258.194 116.269 258.194C137.505 258.194 142.425 237.541 142.425 237.541V207.824C142.424 204.892 140.047 202.516 137.115 202.516Z" fill="#79CC56"/>
<path opacity="0.55" d="M120.067 252.431C98.8315 252.431 93.9111 231.779 93.9111 231.779V202.76C91.7202 203.413 90.1123 205.421 90.1123 207.824V237.541C90.1123 237.541 95.0327 258.193 116.269 258.193C130.128 258.193 137.036 249.399 140.164 243.288C136.194 248.027 129.873 252.431 120.067 252.431Z" fill="#79CC56"/>
<path d="M116.273 214.428C116.273 214.428 108.245 214.428 108.245 221.226C108.245 227.184 112.259 227.053 112.259 227.053V234.757H116.273H120.287V227.053C120.287 227.053 124.301 227.184 124.301 221.226C124.302 214.428 116.273 214.428 116.273 214.428Z" fill="#29266B"/>
<path d="M122.019 120.576C140.221 117.622 152.581 100.472 149.627 82.2708C146.673 64.0696 129.523 51.7092 111.322 54.6631C93.1204 57.6171 80.7599 74.7668 83.7139 92.968C86.6679 111.169 103.818 123.53 122.019 120.576Z" fill="#625BFF"/>
<path d="M100.948 92.0128C90.1679 102.287 91.3305 119.731 91.3305 119.731C98.4088 125.774 116.279 126.983 116.279 126.983C116.279 126.983 134.148 125.774 141.227 119.731C141.227 119.731 142.39 102.287 131.609 92.0128C122.916 83.7275 109.64 83.7275 100.948 92.0128Z" fill="#9691FF"/>
<path d="M116.28 79.7624C125.648 79.7624 133.242 72.1681 133.242 62.8001C133.242 53.4322 125.648 45.8379 116.28 45.8379C106.912 45.8379 99.3174 53.4322 99.3174 62.8001C99.3174 72.1681 106.912 79.7624 116.28 79.7624Z" fill="#9691FF"/>
<path d="M162.631 110.315V60.8519C162.631 57.9914 164.949 55.6719 167.81 55.6719H205.965C205.965 55.6719 212.008 58.7794 212.008 64.6495H234.064C237.282 64.6495 239.891 67.2583 239.891 70.4763V108.674C239.891 112.679 236.644 115.926 232.639 115.926H168.241C165.144 115.926 162.631 113.414 162.631 110.315Z" fill="#817CFF"/>
<path opacity="0.55" d="M162.631 110.315V60.8519C162.631 57.9914 164.949 55.6719 167.81 55.6719H205.965C205.965 55.6719 212.008 58.7794 212.008 64.6495H234.064C237.282 64.6495 239.891 67.2583 239.891 70.4763V108.674C239.891 112.679 236.644 115.926 232.639 115.926H168.241C165.144 115.926 162.631 113.414 162.631 110.315Z" fill="#817CFF"/>
<path d="M175.854 67.3305V33.9014C175.854 30.409 178.685 27.5781 182.178 27.5781H224.283L237.06 40.1381V71.9047H175.856L175.854 67.3305Z" fill="white"/>
<path d="M223.895 27.6726V39.4036C223.895 40.8349 225.081 41.944 226.428 41.7732L236.844 40.4546C237.049 40.4284 237.133 40.162 236.982 40.0117L224.352 27.4631C224.179 27.2911 223.895 27.4209 223.895 27.6726Z" fill="#EFEFFF"/>
<path d="M193.795 44.0587L196.722 42.2743C196.973 42.1217 197.295 42.1559 197.508 42.3574L202.735 47.3063C203.006 47.5625 203.436 47.5397 203.678 47.2562L213.262 36.0046C213.484 35.7438 213.87 35.6994 214.145 35.9032L217.619 38.4767C217.94 38.7147 217.973 39.1838 217.687 39.464L204.141 52.7675C203.905 52.9987 203.534 53.0169 203.277 52.8097L193.723 45.1211C193.375 44.8398 193.41 44.2932 193.795 44.0587Z" fill="#6EBA4E"/>
<path d="M167.989 113.774V64.3109C167.989 61.4504 170.308 59.1309 173.168 59.1309H211.323C211.323 59.1309 217.366 62.2384 217.366 68.1085H239.422C242.64 68.1085 245.249 70.7172 245.249 73.9352V112.133C245.249 116.138 242.003 119.385 237.998 119.385H173.6C170.501 119.385 167.989 116.873 167.989 113.774Z" fill="#817CFF"/>
<path d="M237.045 77.0859H175.064V82.2648H237.045V77.0859Z" fill="#79CC56"/>
<path d="M237.045 77.0859H204.587V82.2648H237.045V77.0859Z" fill="#94D678"/>
<path d="M237.046 77.0859H218.832V82.2648H237.046V77.0859Z" fill="#6EBA4E"/>
<path d="M132.076 59.3936C133.9 59.3936 135.378 57.9151 135.378 56.0913C135.378 54.2675 133.9 52.7891 132.076 52.7891C130.252 52.7891 128.773 54.2675 128.773 56.0913C128.773 57.9151 130.252 59.3936 132.076 59.3936Z" fill="white"/>
<path d="M132.071 56.0913V39.342C132.071 36.3985 134.458 34.0117 137.402 34.0117H170.745" stroke="white" stroke-width="1.2" stroke-miterlimit="10" stroke-linecap="round" stroke-linejoin="round"/>
<path d="M143.599 87.6206C143.599 89.4448 142.121 90.9229 140.296 90.9229C138.473 90.9229 136.994 89.4448 136.994 87.6206C136.994 85.7975 138.472 84.3184 140.296 84.3184C142.121 84.3195 143.599 85.7975 143.599 87.6206Z" fill="white"/>
<path d="M140.293 87.6204V51.0438C140.293 47.7336 142.977 45.0508 146.286 45.0508H169.362" stroke="white" stroke-width="1.2" stroke-miterlimit="10" stroke-linecap="round" stroke-linejoin="round"/>
<path d="M152.371 145.519C152.371 147.492 150.772 149.092 148.799 149.092C146.825 149.092 145.227 147.493 145.227 145.519C145.227 143.547 146.825 141.947 148.799 141.947C150.772 141.947 152.371 143.547 152.371 145.519Z" fill="white"/>
<path d="M148.807 145.519H173.225C176.533 145.519 179.214 142.838 179.214 139.531V124.219" stroke="white" stroke-width="1.2" stroke-miterlimit="10" stroke-linecap="round" stroke-linejoin="round"/>
<path d="M163.583 193.258C163.583 195.582 161.699 197.466 159.375 197.466C157.051 197.466 155.166 195.582 155.166 193.258C155.166 190.933 157.051 189.049 159.375 189.049C161.699 189.05 163.583 190.933 163.583 193.258Z" fill="white"/>
<path d="M159.37 193.257H188.443C192.009 193.257 194.9 190.365 194.9 186.799V124.219" stroke="white" stroke-width="1.2" stroke-miterlimit="10" stroke-linecap="round" stroke-linejoin="round"/>
</svg>
