<svg width="307" height="309" viewBox="0 0 307 309" fill="none" xmlns="http://www.w3.org/2000/svg">
<path d="M12.4497 306.209L9.39844 304.461C9.93433 304.606 10.4992 304.746 11.0834 304.809C11.513 305.33 11.9765 305.798 12.4497 306.209Z" fill="#EFEFFF"/>
<path d="M30.6486 305.64C25.2993 308.855 20.346 309.695 16.4113 308.45C14.934 307.972 13.6063 307.228 12.4573 306.209C11.9793 305.799 11.5207 305.331 11.0862 304.809C8.78327 301.985 7.43146 297.766 7.42181 292.363L7.14662 155.972C7.10317 141.14 17.3817 123.055 30.0596 115.529L212.369 7.19191C216.844 4.55591 221.015 3.58058 224.52 4.09715C225.361 4.21785 226.148 4.39657 226.891 4.67176C227.977 5.08695 228.977 5.65666 229.875 6.38084C233.201 9.01684 235.243 13.7095 235.32 20.1354L237.068 154.504C237.256 169.292 227.224 187.444 214.623 194.995L30.6486 305.64Z" fill="#9691FF"/>
<path d="M5.07422 302.014L9.39997 304.462C7.7585 303.988 6.32463 303.173 5.07422 302.014Z" fill="#EFEFFF"/>
<path d="M30.0534 115.528C17.3755 123.055 7.10183 141.14 7.14045 155.971L7.41563 292.363C7.42529 297.765 8.7771 301.985 11.08 304.809C10.4958 304.741 9.93094 304.606 9.39505 304.461L5.0693 302.014C2.03741 299.262 0.241458 294.584 0.226974 288.336L6.12775e-05 151.945C-0.0289058 137.157 10.2158 119.053 22.9179 111.526L205.256 3.22299C210.852 -0.103399 216.008 -0.764712 220.034 0.82365L222.569 2.25264L222.709 2.35401C223.36 2.84162 223.949 3.4499 224.51 4.09683C221.004 3.58025 216.833 4.55558 212.358 7.19158L30.0534 115.528Z" fill="#625BFF"/>
<path d="M220.428 156.734C216.32 159.235 212.206 161.683 208.107 164.183C208.18 165.091 208.257 165.955 208.286 166.829C212.003 164.579 215.755 162.359 219.467 160.094C220.332 159.626 221.08 160.374 221.046 161.137L221.114 161.127L220.993 155.875L220.901 155.904C220.925 156.237 220.747 156.526 220.428 156.734Z" fill="#AFAFE8"/>
<path d="M220.212 151.887C215.998 154.431 211.822 157.023 207.636 159.524C207.723 160.277 207.805 161.069 207.897 161.817C211.715 159.5 215.534 157.197 219.358 154.875C220.222 154.373 221.009 155.16 220.908 155.903L220.999 155.874L220.546 141.024C220.541 139.576 218.957 139.267 217.06 140.396L198.646 151.742C198.849 151.925 199.042 152.162 199.013 152.548C199.057 152.838 199.086 153.103 199.091 153.436C205.594 149.449 212.087 145.403 218.59 141.4C219.72 140.681 220.83 142.501 219.619 143.235C212.802 147.45 206.023 151.655 199.207 155.86C199.192 156.236 199.197 156.584 199.226 156.985C205.685 153.04 212.164 149.033 218.561 145.06C219.754 144.36 220.782 146.199 219.657 146.928C215.336 149.55 211.03 152.171 206.709 154.885C206.907 155.107 207.047 155.31 207.211 155.599C207.279 155.71 207.259 155.855 207.288 155.918C207.312 156.005 207.361 156.034 207.351 156.154C207.375 156.444 207.409 156.835 207.467 157.202C211.324 154.841 215.249 152.432 219.16 150.057C220.295 149.323 221.39 151.182 220.212 151.887Z" fill="#AFAFE8"/>
<path d="M208.143 169.378C208.046 170.44 207.911 171.463 207.621 172.337C211.657 169.933 215.669 167.534 219.715 165.153C220.4 164.767 221.052 165.211 221.25 165.767L221.11 161.127L221.043 161.137C221.023 161.393 220.854 161.687 220.54 161.895C216.398 164.415 212.299 166.901 208.143 169.378Z" fill="#AFAFE8"/>
<path d="M186.774 164.632C190.235 162.484 193.687 160.35 197.134 158.216C197.062 156.41 196.989 154.585 196.922 152.775L186.189 159.375C186.436 159.529 186.605 159.809 186.605 160.147C186.667 161.61 186.73 163.097 186.774 164.632Z" fill="#AFAFE8"/>
<path d="M220.761 170.734C213.949 174.731 207.113 178.777 200.272 182.828C200.257 183.426 200.272 184.073 200.305 184.701C200.305 184.701 200.305 184.701 200.32 184.768L217.99 174.524C219.902 173.384 221.437 171.178 221.379 169.652L221.292 166.181C221.234 166.485 221.07 166.785 220.756 166.978C213.881 171.106 207.002 175.185 200.117 179.221C200.141 179.632 200.103 180.018 200.141 180.409C206.669 176.576 213.201 172.733 219.675 168.87C220.872 168.165 221.944 170.034 220.761 170.734Z" fill="#AFAFE8"/>
<path d="M205.593 168.089C205.487 164.3 205.371 160.529 205.289 156.676C203.865 156.85 186.253 167.92 184.621 168.949C181.111 171.068 179.093 171.932 179.185 176.379C179.252 177.962 179.986 187.966 179.638 188.55C186.861 184.296 193.968 180.149 201.142 175.954C204.463 173.95 205.381 172.647 205.535 169.234C205.487 169.079 205.492 168.953 205.525 168.784C205.53 168.529 205.583 168.35 205.593 168.089Z" fill="#AFAFE8"/>
<path d="M184.475 160.432L168.548 170.251C167.085 171.111 165.893 172.728 165.637 174.075C171.942 170.179 178.237 166.259 184.581 162.363C184.576 161.711 184.538 161.127 184.475 160.432Z" fill="#AFAFE8"/>
<path d="M184.658 164.801C178.647 168.523 172.646 172.217 166.674 175.915C166.177 176.224 165.8 176.079 165.516 175.755L165.564 177.653C171.956 173.713 178.338 169.779 184.692 165.839C184.687 165.516 184.677 165.211 184.658 164.801Z" fill="#AFAFE8"/>
<path d="M187.778 192.039L198.892 185.58C198.525 185.44 198.255 185.218 198.206 184.73C198.139 183.919 198.177 183.079 198.115 182.268C198.095 182.171 198.081 182.108 198.086 181.968C198.11 181.466 198.057 180.993 198.047 180.457C194.528 182.562 191.052 184.629 187.6 186.68C187.648 188.404 187.715 190.224 187.778 191.972C187.807 191.991 187.735 192.01 187.778 192.039Z" fill="#AFAFE8"/>
<path d="M165.672 182.92C165.72 182.703 165.792 182.486 166.048 182.385C169.693 180.14 173.377 177.933 177.012 175.684C176.979 174.766 177.003 173.801 177.138 172.97C173.667 175.157 170.118 177.325 166.613 179.43C166.212 179.695 165.889 179.589 165.57 179.333L165.672 182.92Z" fill="#AFAFE8"/>
<path d="M177.124 178.112C173.721 180.168 170.399 182.181 167.092 184.195C166.445 184.634 165.899 184.253 165.648 183.649L165.692 187.647C165.779 187.386 165.928 187.145 166.223 186.985C169.82 184.789 173.412 182.664 177.008 180.487C177.042 179.637 177.119 178.836 177.124 178.112Z" fill="#AFAFE8"/>
<path d="M165.747 187.825L165.814 192.571C165.882 192.353 166.012 192.098 166.302 191.943C169.822 189.843 173.307 187.709 176.865 185.643C176.836 184.774 176.822 183.905 176.856 183.016C173.66 184.972 170.473 186.869 167.243 188.795C166.432 189.322 165.694 188.588 165.747 187.825Z" fill="#AFAFE8"/>
<path d="M184.625 168.944C181.115 171.063 179.097 171.927 179.189 176.374C179.256 177.957 179.99 187.961 179.643 188.545C186.865 184.291 193.972 180.144 201.146 175.949C204.467 173.945 205.385 172.642 205.539 169.229C205.491 169.074 205.496 168.949 205.53 168.78C205.534 168.524 205.588 168.345 205.602 168.079C205.496 164.29 205.38 160.519 205.298 156.667C203.864 156.845 186.257 167.92 184.625 168.944ZM219.714 165.154C220.399 164.768 221.051 165.212 221.249 165.767C221.297 165.931 221.293 166.057 221.293 166.182C221.235 166.486 221.07 166.786 220.757 166.979C213.882 171.107 207.002 175.186 200.118 179.222C200.142 179.633 200.103 180.019 200.142 180.41C206.669 176.577 213.201 172.734 219.675 168.871C220.868 168.166 221.939 170.03 220.757 170.735C213.945 174.732 207.108 178.778 200.267 182.829C200.253 183.427 200.267 184.074 200.301 184.702C200.301 184.702 200.301 184.702 200.316 184.769C200.316 185.624 199.504 185.875 198.882 185.58C198.515 185.44 198.244 185.218 198.196 184.731C198.129 183.92 198.167 183.08 198.104 182.269C198.085 182.172 198.071 182.109 198.075 181.969C198.1 181.467 198.046 180.994 198.037 180.458C194.517 182.563 191.041 184.629 187.589 186.681C187.638 188.405 187.705 190.225 187.768 191.973C187.807 191.992 187.739 192.011 187.778 192.04C187.729 192.832 186.995 193.097 186.329 192.842C186.015 192.73 185.697 192.484 185.649 191.992C185.634 191.784 185.687 191.606 185.658 191.408C179.604 195 173.511 198.563 167.448 202.159C166.772 202.536 166.13 202.053 165.97 201.421C165.961 201.247 165.922 201.068 165.946 200.904C166.067 200.721 166.163 200.431 166.41 200.305C172.792 196.52 179.184 192.769 185.557 188.984C185.552 188.666 185.557 188.279 185.504 187.907C179.527 191.48 173.516 195.024 167.52 198.592C166.347 199.292 165.285 197.496 166.414 196.762C170.253 194.522 174.042 192.262 177.842 189.974C177.509 189.409 177.282 188.685 177.127 187.946C173.859 189.858 170.605 191.857 167.351 193.778C166.53 194.3 165.796 193.537 165.84 192.769C165.811 192.697 165.83 192.653 165.821 192.571C165.888 192.354 166.018 192.098 166.308 191.944C169.828 189.843 173.313 187.71 176.871 185.643C176.843 184.774 176.828 183.905 176.862 183.017C173.666 184.972 170.479 186.87 167.25 188.796C166.434 189.317 165.695 188.583 165.748 187.821C165.729 187.734 165.729 187.734 165.69 187.642C165.777 187.381 165.927 187.14 166.221 186.981C169.818 184.784 173.41 182.66 177.007 180.482C177.036 179.633 177.113 178.831 177.123 178.107C173.719 180.164 170.397 182.177 167.09 184.19C166.443 184.629 165.898 184.248 165.647 183.644C165.55 183.456 165.516 183.176 165.666 182.92C165.714 182.703 165.787 182.486 166.043 182.384C169.688 180.14 173.371 177.933 177.007 175.683C176.973 174.766 176.997 173.8 177.132 172.97C173.661 175.157 170.113 177.325 166.607 179.43C166.207 179.695 165.883 179.589 165.565 179.333C165.043 178.966 164.812 178.126 165.56 177.644C171.952 173.704 178.334 169.769 184.688 165.83C184.683 165.516 184.668 165.207 184.654 164.797C178.643 168.519 172.642 172.212 166.67 175.91C166.173 176.219 165.796 176.074 165.512 175.751C165.058 175.317 164.927 174.525 165.632 174.071C171.937 170.175 178.233 166.255 184.577 162.358C184.572 161.707 184.533 161.123 184.471 160.427C184.528 160.321 184.49 160.249 184.471 160.171C184.471 160.427 186.184 159.37 186.184 159.37C186.431 159.525 186.6 159.805 186.6 160.143C186.662 161.605 186.72 163.092 186.769 164.628C190.23 162.479 193.682 160.345 197.129 158.211C197.057 156.406 196.984 154.581 196.917 152.77C196.946 152.722 196.917 152.65 196.936 152.515C196.917 152.77 197.955 151.274 198.631 151.737C198.833 151.921 199.026 152.157 198.998 152.544C199.041 152.833 199.07 153.099 199.075 153.432C205.578 149.444 212.071 145.398 218.574 141.396C219.704 140.677 220.815 142.497 219.603 143.231C212.786 147.445 206.008 151.65 199.191 155.855C199.176 156.232 199.181 156.58 199.21 156.98C205.67 153.036 212.149 149.029 218.545 145.056C219.738 144.356 220.766 146.195 219.641 146.924C215.32 149.545 211.014 152.167 206.693 154.88C206.891 155.102 207.031 155.305 207.195 155.595C207.263 155.706 207.243 155.851 207.272 155.913C207.297 156 207.345 156.029 207.335 156.15C207.359 156.44 207.393 156.831 207.451 157.198C211.309 154.837 215.234 152.428 219.144 150.052C220.279 149.319 221.375 151.172 220.197 151.882C215.982 154.426 211.806 157.019 207.62 159.52C207.707 160.273 207.789 161.065 207.881 161.813C211.7 159.496 215.518 157.193 219.342 154.871C220.206 154.368 220.993 155.155 220.892 155.899C220.916 156.227 220.737 156.522 220.419 156.729C216.31 159.23 212.197 161.678 208.098 164.179C208.17 165.086 208.248 165.951 208.277 166.824C211.994 164.575 215.745 162.354 219.458 160.089C220.322 159.621 221.07 160.369 221.037 161.132C221.017 161.388 220.848 161.683 220.535 161.89C216.383 164.406 212.289 166.897 208.132 169.373C208.035 170.435 207.9 171.459 207.61 172.333C211.661 169.938 215.673 167.534 219.714 165.154Z" fill="#8888B5"/>
<path d="M177.127 187.945C173.859 189.857 170.605 191.856 167.351 193.777C166.53 194.299 165.796 193.536 165.84 192.768L165.946 200.903C166.067 200.72 166.163 200.43 166.409 200.305C172.792 196.519 179.184 192.768 185.557 188.983C185.552 188.665 185.557 188.278 185.504 187.906C179.527 191.479 173.516 195.023 167.52 198.591C166.347 199.291 165.285 197.495 166.414 196.761C170.252 194.521 174.042 192.261 177.842 189.973C177.509 189.408 177.282 188.684 177.127 187.945Z" fill="#AFAFE8"/>
<path d="M169.176 202.806L186.33 192.841C186.016 192.73 185.697 192.484 185.649 191.991C185.635 191.784 185.688 191.605 185.659 191.407C179.605 194.999 173.512 198.562 167.448 202.159C166.772 202.536 166.13 202.053 165.971 201.42L165.99 201.975C166.053 203.438 167.458 203.863 169.176 202.806Z" fill="#AFAFE8"/>
<path d="M127.03 201.686L121.217 205.124L121.376 218.086L127.334 214.528L127.03 201.686Z" fill="white"/>
<path d="M114.237 209.391L108.434 212.795L108.632 225.796L114.613 222.224L114.237 209.391Z" fill="white"/>
<path d="M105.937 213.993L100.188 217.45L100.347 230.403L106.309 226.849L105.937 213.993Z" fill="white"/>
<path d="M97.609 218.69L91.8301 222.156L91.9991 235.119L97.9759 231.513L97.609 218.69Z" fill="white"/>
<path d="M89.3498 223.324L83.5371 226.777L83.7013 239.734L89.6636 236.171L89.3498 223.324Z" fill="white"/>
<path d="M73.9044 232.637L68.082 236.089L68.251 249.047L74.2182 245.489L73.9044 232.637Z" fill="white"/>
<path d="M65.6222 237.253L59.8047 240.69L59.9688 253.653L65.965 250.109L65.6222 237.253Z" fill="white"/>
<path d="M57.2685 241.96L51.5137 245.398L51.6682 258.375L57.6402 254.793L57.2685 241.96Z" fill="white"/>
<path d="M102.428 155.923L75.0254 171.85L75.262 187.584L102.674 171.662L102.428 155.923Z" fill="#4641B5"/>
<path d="M48.9627 246.561L43.1934 250.046L43.3768 262.98L49.344 259.417L48.9627 246.561Z" fill="white"/>
<path d="M146.098 191.2L151.91 187.733L152.277 200.59L146.281 204.124L146.098 191.2Z" fill="white"/>
<path d="M138.028 208.754L137.801 195.82L143.614 192.358L143.99 205.191L138.028 208.754Z" fill="white"/>
<path d="M132.29 211.921L129.668 213.48L129.514 200.522L132.884 198.485L135.288 197.037L135.65 209.908L132.29 211.921Z" fill="white"/>
<path d="M171.288 99.6928L132.047 122.446L131.473 79.6476L200.067 39.8227L206.024 36.3611L206.637 79.1938L171.288 99.6928Z" fill="#4641B5"/>
<path d="M68.0836 175.848L40.6855 191.775L40.9221 207.504L68.3298 191.582L68.0836 175.848Z" fill="#4641B5"/>
<path d="M114.149 141.995C89.9999 156.15 65.851 170.296 41.6972 184.456C40.8282 184.973 40.0751 183.621 40.92 183.157C65.5613 168.708 90.222 154.268 114.858 139.75C146.577 121.206 178.243 102.605 209.919 84.0078C210.542 83.6988 211.116 84.2684 211.044 84.7947C211.063 85.0119 210.942 85.2245 210.711 85.3742C178.494 104.227 146.322 123.118 114.149 141.995Z" fill="white"/>
<path d="M75.0042 147.156C75.2118 147.112 75.6222 146.63 75.6608 146.552C83.844 139.243 89.7871 128.153 89.6085 117.532C89.5216 112.386 88.0636 106.1 82.9702 103.58C78.2051 101.238 72.7545 102.107 68.1921 104.608C67.9363 104.738 64.5664 106.867 63.5574 107.645C62.9491 107.983 62.5098 108.379 62.3891 108.577C53.5976 115.847 47.0703 127.507 47.2538 138.62C47.2683 139.166 47.2972 139.731 47.3407 140.295C47.3407 140.31 47.3455 140.32 47.3503 140.329C47.7076 145.094 49.3491 150.333 53.8969 152.577C56.4557 153.833 59.0579 154.122 61.6456 153.794C61.8532 153.867 62.0608 153.814 62.2539 153.693C64.4313 153.336 66.5893 152.573 68.6701 151.549C69.0322 151.351 69.3895 151.124 69.7564 150.907C69.8722 150.868 69.9785 150.825 70.0557 150.728C71.7744 149.69 73.4304 148.503 75.0042 147.156ZM70.0895 148.71C69.9833 147.653 69.8819 146.605 69.8046 145.563C71.7841 144.119 73.9228 142.888 76.1098 141.898C75.5739 143.168 74.9898 144.375 74.3477 145.495C73.0152 146.683 71.5813 147.735 70.0895 148.71ZM78.9679 139.011C79.8418 136.308 80.4935 133.44 80.8652 130.509C82.3184 130.114 83.8199 129.785 85.3358 129.472C84.0661 132.692 82.4778 135.796 80.479 138.63C80.3776 138.62 80.2956 138.562 80.1749 138.591C79.7886 138.717 79.3735 138.876 78.9679 139.011ZM76.9499 139.74C74.449 140.735 71.9724 142.033 69.6936 143.602C69.5391 140.711 69.486 137.828 69.4522 134.917C72.4986 133.372 75.7139 132.074 79.1079 131.045C78.6638 134.068 77.9299 137.003 76.9499 139.74ZM66.5845 107.466C66.6183 108.543 66.6472 109.615 66.7052 110.691C65.1554 111.686 63.514 112.555 61.8387 113.274C62.4277 111.908 63.0843 110.633 63.7988 109.455C64.692 108.736 65.6237 108.07 66.5845 107.466ZM56.9819 116.62C57.6723 116.456 58.353 116.258 59.0241 116.055C57.9957 119.217 57.344 122.63 57.0929 126.068C55.1714 126.657 53.2403 127.067 51.314 127.255C52.7044 123.533 54.6018 119.898 56.9819 116.62ZM61.0276 115.364C63.0263 114.616 64.9527 113.68 66.7872 112.559C66.961 115.562 67.188 118.561 67.3811 121.559C64.7016 123.026 61.7808 124.422 58.7875 125.493C59.1255 121.974 59.8931 118.507 61.0276 115.364ZM66.1693 148.691C66.8259 148.02 67.5163 147.383 68.2404 146.779C68.3225 147.75 68.4046 148.715 68.5156 149.7C68.3128 149.816 68.1294 149.956 67.9314 150.057V150.048C67.299 149.642 66.7293 149.169 66.1693 148.691ZM66.2513 150.811C65.4306 151.148 64.5857 151.443 63.7119 151.67C64.1416 151.066 64.5954 150.482 65.0878 149.913C65.4548 150.236 65.8603 150.516 66.2513 150.811ZM64.972 147.556C63.0505 145.582 61.607 143.24 60.5835 140.638C62.8719 138.818 65.2568 137.186 67.7721 135.791C67.8059 138.799 67.8832 141.807 68.0763 144.805C66.9755 145.669 65.9375 146.572 64.972 147.556ZM59.9655 138.997C59.5503 137.65 59.2606 136.259 59.0337 134.84C61.9304 133.073 64.8271 131.316 67.719 129.549C67.719 129.684 67.7335 129.824 67.7335 129.954C67.7335 131.282 67.7383 132.595 67.7528 133.913C65.0299 135.371 62.4422 137.075 59.9655 138.997ZM58.7827 133.044C58.5799 131.156 58.5413 129.24 58.633 127.313C61.7421 126.275 64.7595 124.89 67.4969 123.398C67.5838 124.817 67.6176 126.237 67.6611 127.646C64.6968 129.447 61.7421 131.253 58.7827 133.044ZM73.1069 105.323C71.6779 106.882 70.0605 108.297 68.3177 109.571C68.2839 108.552 68.2308 107.534 68.2163 106.515C68.506 106.365 68.7667 106.167 69.0467 106.027C70.1281 105.501 71.3061 105.042 72.5275 104.671C72.7303 104.883 72.909 105.11 73.1069 105.323ZM74.1883 106.544C75.8588 108.702 77.0995 111.193 77.9734 113.863C75.4484 116.335 72.6724 118.541 69.5536 120.332C69.3653 120.439 69.1819 120.55 68.9887 120.661C68.7811 117.619 68.5494 114.582 68.3853 111.546C70.5095 110.097 72.4648 108.417 74.1883 106.544ZM78.4658 115.582C78.881 117.189 79.1707 118.85 79.359 120.535C75.9988 122.572 72.6482 124.615 69.2977 126.647C69.2494 125.271 69.1963 123.886 69.1143 122.519C72.571 120.516 75.6464 118.189 78.4658 115.582ZM79.5183 122.375C79.6341 124.648 79.5714 126.956 79.3252 129.24C75.8491 130.249 72.5613 131.514 69.4281 133.049C69.4232 131.557 69.4039 130.065 69.3846 128.569C69.3846 128.559 69.3798 128.54 69.3798 128.54C72.7593 126.488 76.1291 124.446 79.5183 122.375ZM52.1106 149.019C52.0864 148.99 52.0671 148.952 52.043 148.923C54.3314 146.219 56.726 143.791 59.2751 141.647C60.371 144.312 61.9063 146.721 63.9002 148.759C62.9781 149.835 62.1429 150.946 61.4428 152.143C57.9957 152.611 54.5197 151.984 52.1106 149.019ZM49.0159 140.938C51.8547 139.195 54.7128 137.466 57.5516 135.743C57.8219 137.206 58.1647 138.654 58.633 140.03C55.9729 142.227 53.4527 144.727 51.0774 147.528C49.8849 145.524 49.2428 143.26 49.0159 140.938ZM50.6574 128.979C52.7285 128.834 54.8528 128.448 56.9674 127.84C56.895 129.891 56.9964 131.963 57.2522 133.976C54.4617 135.675 51.6857 137.365 48.8952 139.06C48.8711 136.993 49.1173 134.917 49.547 132.986C49.8463 131.654 50.2181 130.311 50.6574 128.979ZM60.3083 112.642C60.1055 113.105 59.9172 113.583 59.7386 114.071C59.3862 114.187 59.0337 114.312 58.6716 114.423C59.2027 113.805 59.7434 113.221 60.3083 112.642ZM84.2206 106.616C82.6757 108.692 81.0149 110.653 79.2334 112.511C78.2872 109.87 76.9933 107.423 75.2746 105.27C75.6415 104.835 76.0133 104.4 76.3464 103.951C79.2527 103.72 82.0819 104.396 84.2206 106.616ZM87.8705 115.35C85.5531 116.765 83.2261 118.184 80.899 119.594C80.6576 117.754 80.2907 115.968 79.7838 114.23C81.7439 112.284 83.593 110.194 85.302 107.91C86.8276 110.107 87.6242 112.68 87.8705 115.35ZM86.0552 127.618C84.3461 127.936 82.6757 128.308 81.039 128.743C81.2563 126.29 81.3046 123.823 81.1115 121.404C83.4095 120.018 85.6834 118.628 87.9767 117.233C87.996 119.265 87.7546 121.279 87.3297 123.176C86.9821 124.677 86.5525 126.155 86.0552 127.618ZM77.9444 141.869C78.0506 141.58 78.152 141.29 78.263 140.996C78.432 140.938 78.5865 140.889 78.7603 140.836C78.4803 141.174 78.2244 141.531 77.9444 141.869Z" fill="white"/>
<path d="M174.335 186.615C173.9 188.203 165.432 218.416 165.461 227.347C165.504 244.037 171.39 255.764 180.886 261.277C192.777 268.191 204.678 275.109 216.573 282.027C216.443 281.96 216.313 281.883 216.187 281.791C216.081 281.714 215.965 281.665 215.854 281.588C215.511 281.381 215.164 281.149 214.835 280.912C214.744 280.849 214.647 280.777 214.56 280.709C214.275 280.516 214.005 280.314 213.73 280.087C213.648 280.034 213.571 279.966 213.498 279.908C212.851 279.406 212.233 278.856 211.635 278.271C211.47 278.102 211.311 277.953 211.157 277.789C210.93 277.576 210.722 277.335 210.51 277.108C210.157 276.717 209.81 276.326 209.476 275.915C209.356 275.771 209.23 275.621 209.124 275.466C208.902 275.186 208.69 274.897 208.472 274.607C208.081 274.057 207.695 273.497 207.343 272.922C207.125 272.608 206.932 272.285 206.754 271.966C206.7 271.865 206.652 271.783 206.604 271.696C206.377 271.319 206.165 270.923 205.971 270.527C205.918 270.445 205.885 270.368 205.841 270.286C205.619 269.852 205.407 269.417 205.204 268.978C205.175 268.901 205.136 268.823 205.102 268.746C204.924 268.331 204.736 267.916 204.567 267.481C204.32 266.878 204.089 266.245 203.862 265.608C203.693 265.116 203.529 264.623 203.379 264.121C203.152 263.377 202.944 262.619 202.751 261.833C202.631 261.355 202.52 260.881 202.418 260.399C202.413 260.365 202.399 260.336 202.399 260.302C202.278 259.786 202.177 259.269 202.085 258.728C201.94 257.932 201.81 257.111 201.699 256.266C201.617 255.725 201.554 255.17 201.496 254.596C201.496 254.547 201.482 254.489 201.477 254.432C201.419 253.77 201.351 253.099 201.317 252.413C201.264 251.728 201.231 251.047 201.206 250.337C201.206 250.284 201.206 250.231 201.206 250.178C201.173 249.488 201.168 248.778 201.168 248.073C201.134 239.137 209.592 208.939 210.037 207.336L174.335 186.615Z" fill="#6A6A8C"/>
<path d="M174.334 186.615L210.026 207.36C210.688 207.051 220.942 202.17 232.65 196.241L211.272 183.809C211.209 187.044 210.369 192.606 205.507 193.562C194.79 195.667 191.55 189.922 191.579 184.698C191.589 183.67 191.637 181.294 191.719 178.122C182.343 182.805 174.889 186.354 174.334 186.615Z" fill="#AFAFE8"/>
<path d="M191.584 184.692C191.555 189.916 194.795 195.661 205.513 193.556C210.374 192.605 211.214 187.038 211.277 183.804L209.394 182.708C209.983 183.055 210.62 183.302 211.287 183.49C211.287 182.298 211.195 181.486 211.195 181.486C211.195 179.55 211.2 177.354 211.209 175.022L204.943 171.372C200.443 173.709 195.9 176.021 191.724 178.107C191.642 181.288 191.589 183.664 191.584 184.692Z" fill="#6A6A8C"/>
<path d="M192.821 138.621C192.821 138.621 192.038 165.063 191.725 178.118C195.901 176.027 200.449 173.719 204.943 171.383L211.21 175.033C211.297 161.741 211.572 144.038 211.572 144.038C211.572 127.985 219.461 111.744 230.777 104.773L241.128 98.3904C259.213 87.2043 261.613 98.7912 261.613 114.844C261.613 114.844 261.352 128.405 261.159 139.953C262.535 139.181 263.389 138.718 263.549 138.626L278.278 147.185C278.539 131.2 279.331 97.6132 279.331 97.6132C279.331 75.0382 263.481 64.7066 243.919 74.483L226.031 83.4482C206.464 93.2488 192.821 116.065 192.821 138.621Z" fill="#6A6A8C"/>
<path d="M210.027 207.355C209.583 208.953 201.125 239.156 201.158 248.092C201.158 248.797 201.163 249.506 201.197 250.197C201.197 250.255 201.197 250.303 201.197 250.356C201.226 251.061 201.26 251.747 201.308 252.432C201.342 253.118 201.409 253.789 201.467 254.45C201.472 254.508 201.487 254.571 201.487 254.614C201.545 255.184 201.607 255.739 201.689 256.285C201.796 257.13 201.931 257.95 202.076 258.747C202.167 259.278 202.278 259.804 202.389 260.321C202.389 260.355 202.399 260.384 202.409 260.417C202.51 260.9 202.621 261.373 202.742 261.851C202.935 262.633 203.143 263.391 203.369 264.14C203.519 264.642 203.683 265.134 203.852 265.627C204.079 266.264 204.311 266.896 204.557 267.5C204.726 267.92 204.914 268.35 205.093 268.765C205.132 268.842 205.165 268.919 205.194 268.997C205.397 269.441 205.61 269.88 205.832 270.305C205.875 270.387 205.909 270.464 205.962 270.546C206.155 270.942 206.368 271.323 206.594 271.715C206.643 271.801 206.696 271.879 206.744 271.985C206.923 272.304 207.116 272.627 207.333 272.941C207.69 273.51 208.072 274.071 208.463 274.626C208.666 274.915 208.888 275.2 209.115 275.485C209.221 275.635 209.346 275.789 209.467 275.934C209.8 276.344 210.153 276.736 210.5 277.127C210.713 277.353 210.92 277.585 211.147 277.807C211.297 277.967 211.456 278.121 211.625 278.29C212.219 278.86 212.842 279.41 213.489 279.927C213.561 279.985 213.643 280.052 213.72 280.105C213.996 280.327 214.266 280.535 214.551 280.728C214.642 280.796 214.734 280.868 214.826 280.931C215.159 281.167 215.502 281.399 215.845 281.607C215.956 281.684 216.067 281.732 216.178 281.81C225.814 287.646 239.265 286.956 254.125 278.372C283.299 261.523 306.869 220.67 306.777 187.131C306.734 172.821 299.608 160.071 299.231 159.39C298.541 159.776 285.457 167.028 271.437 174.94C271.447 175.206 271.481 175.457 271.481 175.732C271.505 185.538 264.611 197.482 256.08 202.401C253.589 203.84 251.233 204.525 249.142 204.525C248.954 204.525 248.766 204.516 248.582 204.506C248.404 204.492 248.22 204.477 248.042 204.458C247.858 204.434 247.675 204.405 247.501 204.371C247.37 204.352 247.245 204.318 247.129 204.284C247.057 204.279 246.975 204.255 246.893 204.226C246.762 204.183 246.622 204.139 246.487 204.105C246.366 204.062 246.246 204.018 246.12 203.975C245.705 203.806 245.304 203.608 244.918 203.381L237.242 198.92C236.402 217.483 249.809 214.427 257.205 210.517C268.565 204.511 275.227 186.059 275.208 177.736C275.208 177.514 295.157 167.303 295.736 166.979C296.059 167.544 300.433 181.173 300.462 193.315C300.549 221.785 278.858 260.427 254.101 274.722C229.343 289.018 207.56 277.334 207.478 248.855C207.459 241.275 213.991 211.545 214.367 210.203C215.043 209.875 224.834 205.375 237.227 198.915L232.641 196.251C220.948 202.165 210.688 207.046 210.027 207.355Z" fill="#AFAFE8"/>
<path d="M237.246 198.906C236.406 217.469 249.813 214.413 257.209 210.503C268.569 204.497 275.232 186.045 275.212 177.722C275.212 177.499 295.161 167.289 295.74 166.965C296.064 167.53 300.438 181.159 300.467 193.301C300.554 221.771 278.862 260.413 254.105 274.708C229.348 289.003 207.565 277.32 207.482 248.84C207.463 241.261 213.995 211.531 214.372 210.189C215.048 209.861 224.839 205.361 237.232 198.901C237.232 198.95 237.232 199.003 237.232 199.003C237.237 198.993 237.237 198.95 237.246 198.906ZM250.899 236.221C250.899 238.103 251.537 239.426 252.57 240.112L251.232 253.026L249.369 270.913L265.006 261.644L265.045 261.62L261.347 235.39L261.327 235.279C262.472 233.333 263.181 231.132 263.181 229.133C263.181 225.223 260.429 223.634 257.045 225.59C255.394 226.55 253.883 228.173 252.777 230.046C251.619 231.991 250.899 234.227 250.899 236.221Z" fill="#8888B5"/>
<path d="M209.472 275.919C209.351 275.774 209.225 275.625 209.119 275.47C209.225 275.62 209.351 275.769 209.472 275.919Z" fill="#CECCFF"/>
<path d="M209.391 182.713L211.273 183.809C211.283 183.703 211.283 183.602 211.283 183.495C210.617 183.307 209.98 183.061 209.391 182.713Z" fill="#6A6A8C"/>
<path d="M211.21 175.027C211.2 177.354 211.195 179.556 211.195 181.492C211.195 181.492 211.287 182.303 211.287 183.495C213.851 184.157 216.994 183.601 220.397 181.627C220.745 181.429 221.112 181.202 221.454 180.975L211.21 175.027Z" fill="#AFAFE8"/>
<path d="M211.287 183.496C211.287 183.602 211.287 183.699 211.277 183.81L232.655 196.241C235.277 194.904 237.971 193.519 240.64 192.123L221.454 180.976C221.112 181.203 220.745 181.43 220.397 181.627C216.989 183.602 213.851 184.157 211.287 183.496Z" fill="#AFAFE8"/>
<path d="M221.455 180.98L240.641 192.128C240.612 192.611 240.583 193.079 240.583 193.542C240.593 198.322 242.244 201.706 244.928 203.367C245.314 203.594 245.715 203.792 246.13 203.961C246.256 204.009 246.376 204.053 246.497 204.091C246.627 204.13 246.767 204.173 246.903 204.212C246.97 204.231 247.052 204.251 247.139 204.27C247.27 204.304 247.39 204.337 247.511 204.357C247.694 204.395 247.868 204.42 248.052 204.444C248.23 204.463 248.414 204.477 248.592 204.492C248.776 204.502 248.964 204.511 249.152 204.511C251.243 204.511 253.599 203.821 256.09 202.387C264.621 197.463 271.515 185.523 271.491 175.718C271.491 175.443 271.462 175.192 271.447 174.926L235.75 154.181C235.755 154.446 235.784 154.702 235.784 154.973C235.818 164.353 229.489 175.708 221.455 180.98Z" fill="#6A6A8C"/>
<path d="M237.246 198.906L244.923 203.367C242.238 201.706 240.587 198.322 240.578 193.542C240.578 193.079 240.607 192.61 240.636 192.127C237.961 193.523 235.267 194.903 232.65 196.246L237.237 198.911H237.246V198.906Z" fill="#AFAFE8"/>
<path d="M235.75 154.171L271.447 174.917C285.467 167.004 298.551 159.752 299.241 159.366L278.274 147.185C278.225 150.323 278.196 152.776 278.196 154.171C278.196 154.171 279.085 160.544 270.839 161.181C261.651 161.901 260.951 155.093 260.951 155.093C260.951 152.844 261.048 146.746 261.154 139.948C256.65 142.454 246.477 148.127 235.75 154.171Z" fill="#AFAFE8"/>
<path d="M237.236 198.906C237.236 198.954 237.236 199.007 237.236 199.007C237.236 198.992 237.236 198.949 237.246 198.906H237.236Z" fill="#8888B5"/>
<path d="M247.135 204.27C247.048 204.251 246.966 204.232 246.898 204.212C246.985 204.241 247.063 204.265 247.135 204.27Z" fill="#CECCFF"/>
<path d="M251.237 253.021L249.373 270.908L265.01 261.644L251.237 253.021Z" fill="#B7B4FF"/>
<path d="M252.574 240.111L251.236 253.026L265.01 261.644L265.049 261.619L261.351 235.39L252.781 230.041C251.618 231.991 250.898 234.226 250.898 236.22C250.898 238.103 251.536 239.426 252.574 240.111Z" fill="#595758"/>
<path d="M252.781 230.041L261.351 235.39L261.331 235.279C262.476 233.334 263.185 231.132 263.185 229.133C263.185 225.223 260.433 223.634 257.049 225.59C255.398 226.546 253.887 228.168 252.781 230.041Z" fill="#B7B4FF"/>
<path d="M261.152 139.948C261.041 146.745 260.949 152.843 260.949 155.093C260.949 155.093 261.654 161.9 270.837 161.181C279.083 160.543 278.194 154.171 278.194 154.171C278.194 152.775 278.223 150.323 278.272 147.185L263.542 138.625C263.378 138.717 262.523 139.175 261.152 139.948Z" fill="#6A6A8C"/>
</svg>
