<svg width="469" height="426" viewBox="0 0 469 426" fill="none" xmlns="http://www.w3.org/2000/svg">
<g opacity="0.3">
<path d="M362.947 435.5L469.001 373.868L438.944 356.512L376.72 320.593L350.612 305.517L322.327 289.182L289.878 270.449L239.836 299.53L196.226 324.876L183.254 332.408L200.96 342.632L263.184 378.552L355.595 435.5H362.947Z" fill="#5953E8"/>
</g>
<path d="M282.819 270.116L176.195 328.481V332.075L355.318 435.494V310.521L282.819 270.116Z" fill="#29266B"/>
<path d="M355.318 310.522V435.495L461.937 373.536V369.942L355.318 310.522Z" fill="#4641B5"/>
<path d="M461.936 369.941L355.318 431.9L256.119 374.624L193.895 338.699L176.195 328.481L189.161 320.943L232.777 295.603L282.819 266.522L315.269 285.255L343.548 301.584L369.655 316.66L431.879 352.585L461.936 369.941Z" fill="#4641B5"/>
<path d="M229.122 308.682C230.933 307.633 232.987 307.706 234.657 308.671L237.112 310.087C239.126 311.249 238.511 312.333 237.061 313.173L231.402 316.44C229.602 317.479 227.706 317.416 226.053 316.463L223.598 315.047C221.917 314.076 221.736 312.953 223.548 311.904L229.122 308.682ZM226.019 314.195L227.469 315.03C228.174 315.436 228.817 315.504 229.636 315.035L234.635 312.152C235.329 311.752 235.413 311.357 234.691 310.939L233.117 310.031C232.22 309.512 231.402 309.782 230.967 310.036L225.979 312.92C225.054 313.444 225.511 313.907 226.019 314.195Z" fill="#CECCFF"/>
<path d="M238.546 314.122C240.357 313.072 242.411 313.146 244.075 314.111L246.53 315.527C248.544 316.689 247.929 317.772 246.479 318.613L240.814 321.88C239.02 322.918 237.118 322.856 235.465 321.903L233.01 320.486C231.329 319.516 231.148 318.393 232.96 317.344L238.546 314.122ZM235.442 319.634L236.892 320.469C237.598 320.876 238.241 320.943 239.059 320.475L244.058 317.592C244.752 317.191 244.837 316.796 244.115 316.379L242.54 315.47C241.643 314.951 240.825 315.222 240.391 315.476L235.403 318.354C234.483 318.89 234.94 319.347 235.442 319.634Z" fill="#CECCFF"/>
<path d="M247.966 319.567C249.777 318.517 251.831 318.59 253.501 319.55L255.956 320.966C257.97 322.128 257.355 323.212 255.905 324.052L250.245 327.319C248.446 328.357 246.55 328.295 244.896 327.342L242.442 325.926C240.761 324.955 240.58 323.832 242.391 322.783L247.966 319.567ZM244.863 325.079L246.313 325.914C247.012 326.321 247.661 326.388 248.479 325.92L253.479 323.037C254.173 322.636 254.257 322.241 253.535 321.823L251.961 320.915C251.064 320.396 250.245 320.667 249.811 320.921L244.823 323.804C243.903 324.329 244.36 324.786 244.863 325.079Z" fill="#CECCFF"/>
<path d="M257.388 325.005C259.199 323.956 261.253 324.029 262.923 324.988L265.377 326.404C267.392 327.567 266.777 328.65 265.327 329.491L259.667 332.758C257.867 333.796 255.972 333.734 254.318 332.78L251.864 331.364C250.182 330.394 250.002 329.271 251.813 328.221L257.388 325.005ZM254.29 330.518L255.74 331.353C256.44 331.759 257.089 331.827 257.907 331.358L262.906 328.475C263.6 328.074 263.685 327.68 262.962 327.262L261.388 326.354C260.491 325.834 259.673 326.105 259.238 326.359L254.251 329.242C253.325 329.773 253.782 330.224 254.29 330.518Z" fill="#CECCFF"/>
<path d="M270.554 332.606C272.365 331.557 274.419 331.63 276.089 332.589L278.543 334.005C280.558 335.168 279.943 336.251 278.493 337.092L272.833 340.359C271.039 341.397 269.138 341.335 267.484 340.381L265.03 338.965C263.348 337.995 263.168 336.872 264.979 335.822L270.554 332.606ZM267.456 338.119L268.906 338.954C269.612 339.36 270.255 339.428 271.073 338.959L276.072 336.076C276.766 335.676 276.851 335.281 276.128 334.863L274.554 333.955C273.657 333.436 272.839 333.706 272.405 333.96L267.417 336.844C266.491 337.374 266.948 337.825 267.456 338.119Z" fill="#CECCFF"/>
<path d="M279.983 338.045C281.794 337.001 283.848 337.069 285.518 338.034L287.973 339.45C289.987 340.612 289.372 341.696 287.922 342.536L282.257 345.803C280.463 346.841 278.561 346.779 276.908 345.826L274.454 344.41C272.772 343.439 272.592 342.316 274.403 341.267L279.983 338.045ZM276.88 343.558L278.33 344.393C279.03 344.799 279.679 344.867 280.497 344.398L285.496 341.515C286.19 341.114 286.274 340.719 285.552 340.302L283.978 339.393C283.081 338.874 282.263 339.145 281.828 339.399L276.84 342.277C275.915 342.813 276.372 343.27 276.88 343.558Z" fill="#CECCFF"/>
<path d="M289.405 343.49C291.217 342.44 293.27 342.514 294.941 343.478L297.395 344.895C299.409 346.057 298.794 347.14 297.344 347.981L291.685 351.248C289.891 352.286 287.989 352.224 286.336 351.271L283.881 349.854C282.2 348.884 282.019 347.761 283.831 346.712L289.405 343.49ZM286.302 349.002L287.752 349.837C288.457 350.244 289.106 350.311 289.919 349.843L294.918 346.96C295.612 346.559 295.697 346.164 294.974 345.747L293.4 344.838C292.503 344.319 291.685 344.59 291.25 344.844L286.263 347.727C285.343 348.252 285.8 348.709 286.302 349.002Z" fill="#CECCFF"/>
<path d="M298.827 348.93C300.638 347.88 302.692 347.954 304.362 348.918L306.817 350.335C308.831 351.497 308.216 352.58 306.766 353.421L301.101 356.688C299.307 357.726 297.405 357.664 295.752 356.71L293.297 355.294C291.616 354.324 291.436 353.201 293.247 352.151L298.827 348.93ZM295.724 354.442L297.174 355.277C297.873 355.684 298.522 355.751 299.34 355.283L304.34 352.4C305.034 351.999 305.118 351.604 304.396 351.187L302.822 350.278C301.925 349.759 301.107 350.03 300.672 350.284L295.684 353.167C294.765 353.692 295.222 354.155 295.724 354.442Z" fill="#CECCFF"/>
<path d="M311.991 356.529C313.802 355.48 315.856 355.553 317.526 356.518L319.981 357.934C321.995 359.097 321.38 360.18 319.93 361.021L314.265 364.288C312.471 365.326 310.569 365.264 308.916 364.31L306.462 362.894C304.78 361.923 304.6 360.801 306.411 359.751L311.991 356.529ZM308.888 362.042L310.338 362.877C311.038 363.283 311.686 363.351 312.505 362.883L317.504 359.999C318.198 359.599 318.282 359.204 317.56 358.786L315.986 357.878C315.089 357.359 314.271 357.63 313.836 357.883L308.848 360.761C307.929 361.291 308.386 361.754 308.888 362.042Z" fill="#CECCFF"/>
<path d="M321.413 361.969C323.224 360.92 325.278 360.993 326.948 361.958L329.403 363.374C331.417 364.536 330.802 365.62 329.352 366.461L323.693 369.727C321.893 370.766 319.997 370.704 318.344 369.75L315.889 368.334C314.208 367.363 314.027 366.24 315.839 365.191L321.413 361.969ZM318.31 367.482L319.76 368.317C320.465 368.723 321.114 368.791 321.927 368.323L326.926 365.439C327.62 365.039 327.704 364.644 326.982 364.226L325.408 363.318C324.511 362.799 323.693 363.069 323.258 363.323L318.27 366.207C317.351 366.737 317.808 367.194 318.31 367.482Z" fill="#CECCFF"/>
<path d="M330.843 367.414C332.654 366.364 334.708 366.438 336.378 367.397L338.832 368.813C340.847 369.975 340.232 371.059 338.781 371.899L333.117 375.166C331.322 376.205 329.421 376.142 327.768 375.189L325.313 373.773C323.632 372.802 323.451 371.679 325.262 370.63L330.843 367.414ZM327.739 372.926L329.189 373.761C329.889 374.168 330.538 374.235 331.356 373.767L336.355 370.884C337.049 370.483 337.134 370.088 336.412 369.671L334.837 368.762C333.94 368.243 333.122 368.514 332.688 368.768L327.7 371.651C326.774 372.176 327.232 372.633 327.739 372.926Z" fill="#CECCFF"/>
<path d="M340.267 372.853C342.084 371.804 344.132 371.877 345.802 372.842L348.256 374.258C350.271 375.42 349.656 376.504 348.206 377.344L342.546 380.611C340.752 381.649 338.85 381.587 337.197 380.634L334.743 379.218C333.061 378.247 332.881 377.124 334.692 376.075L340.267 372.853ZM337.163 378.366L338.613 379.201C339.319 379.607 339.962 379.675 340.78 379.206L345.779 376.317C346.473 375.917 346.558 375.522 345.836 375.104L344.261 374.196C343.364 373.677 342.546 373.948 342.112 374.202L337.124 377.085C336.204 377.615 336.661 378.078 337.163 378.366Z" fill="#CECCFF"/>
<path d="M353.427 380.453C355.238 379.404 357.292 379.477 358.956 380.442L361.411 381.858C363.425 383.02 362.81 384.104 361.36 384.944L355.7 388.211C353.906 389.25 352.005 389.187 350.352 388.234L347.897 386.818C346.216 385.847 346.035 384.724 347.846 383.675L353.427 380.453ZM350.323 385.966L351.773 386.801C352.479 387.207 353.128 387.275 353.94 386.806L358.939 383.917C359.633 383.517 359.718 383.122 358.996 382.704L357.421 381.796C356.524 381.277 355.706 381.548 355.272 381.802L350.284 384.685C349.364 385.215 349.821 385.678 350.323 385.966Z" fill="#CECCFF"/>
<path d="M362.854 385.892C364.666 384.842 366.719 384.916 368.39 385.875L370.844 387.291C372.858 388.453 372.243 389.537 370.793 390.377L365.128 393.644C363.334 394.683 361.432 394.62 359.779 393.667L357.325 392.251C355.643 391.28 355.463 390.157 357.274 389.108L362.854 385.892ZM359.751 391.404L361.201 392.239C361.901 392.646 362.55 392.713 363.368 392.245L368.367 389.362C369.061 388.961 369.146 388.566 368.423 388.149L366.849 387.24C365.952 386.721 365.134 386.992 364.699 387.246L359.712 390.129C358.792 390.66 359.249 391.117 359.751 391.404Z" fill="#CECCFF"/>
<path d="M372.275 391.337C374.091 390.288 376.14 390.361 377.81 391.326L380.264 392.742C382.278 393.904 381.663 394.988 380.213 395.828L374.554 399.095C372.754 400.134 370.858 400.072 369.205 399.118L366.751 397.702C365.069 396.731 364.889 395.608 366.7 394.559L372.275 391.337ZM369.171 396.85L370.621 397.685C371.321 398.091 371.97 398.159 372.788 397.69L377.787 394.807C378.481 394.407 378.566 394.012 377.844 393.594L376.269 392.686C375.372 392.167 374.554 392.437 374.12 392.691L369.132 395.575C368.212 396.099 368.669 396.556 369.171 396.85Z" fill="#CECCFF"/>
<path d="M381.702 396.777C383.513 395.727 385.567 395.801 387.237 396.766L389.692 398.182C391.706 399.344 391.091 400.427 389.641 401.268L383.982 404.535C382.187 405.573 380.286 405.511 378.633 404.558L376.178 403.141C374.497 402.171 374.316 401.048 376.128 399.999L381.702 396.777ZM378.599 402.289L380.049 403.124C380.749 403.531 381.398 403.598 382.216 403.13L387.215 400.247C387.909 399.846 387.993 399.451 387.271 399.034L385.697 398.125C384.8 397.606 383.982 397.877 383.547 398.131L378.559 401.014C377.634 401.545 378.091 401.996 378.599 402.289Z" fill="#CECCFF"/>
<path d="M248.739 297.351L256.452 292.9C259.352 291.224 264.092 291.218 266.981 292.883L275.54 297.825C278.429 299.495 278.418 302.226 275.518 303.902L267.804 308.354C264.904 310.03 260.165 310.035 257.276 308.365L248.716 303.423C245.827 301.764 245.839 299.027 248.739 297.351Z" fill="#625BFF"/>
<path d="M256.644 299.106C257.417 299.225 258.281 299.106 258.89 298.757C259.499 298.407 259.697 297.91 259.494 297.459C259.392 297.239 259.195 297.03 258.896 296.861C257.993 296.342 256.514 296.342 255.606 296.866C254.698 297.391 254.692 298.243 255.6 298.762C255.899 298.937 256.261 299.05 256.644 299.106Z" fill="#CECCFF"/>
<path d="M273.198 298.063H271.573C271.567 300.111 270.207 302.165 267.499 303.728C264.791 305.291 261.236 306.075 257.681 306.081L257.676 307.018C261.642 307.012 265.615 306.137 268.645 304.388C271.675 302.645 273.192 300.354 273.198 298.063Z" fill="#CECCFF"/>
<path d="M268.306 298.069H266.681C266.676 299.395 265.801 300.72 264.046 301.736C262.292 302.746 259.995 303.254 257.693 303.26L257.688 304.202C260.401 304.196 263.121 303.598 265.192 302.402C267.268 301.206 268.306 299.637 268.306 298.069Z" fill="#CECCFF"/>
<path d="M263.413 298.074H261.788C261.788 298.678 261.387 299.281 260.592 299.744C259.796 300.207 258.747 300.432 257.703 300.432L257.697 301.369C259.159 301.369 260.62 301.048 261.737 300.404C262.854 299.761 263.413 298.92 263.413 298.074Z" fill="#CECCFF"/>
<path d="M299.583 322.861L296.745 324.498C293.839 326.179 289.094 326.185 286.199 324.515L273.583 317.23C270.689 315.56 270.7 312.818 273.611 311.142L281.336 306.679C284.242 304.998 288.987 304.992 291.881 306.662L304.498 313.947C307.392 315.617 307.381 318.359 304.475 320.035L301.637 321.671L299.583 322.861Z" fill="#CECCFF"/>
<path d="M297.319 309.805L293.149 310.143L287.405 313.461L278.496 308.315L279.856 307.531L287.417 311.898L292.258 309.1L295.626 308.829L297.319 309.805Z" fill="#5953E8"/>
<path d="M279.022 320.372L277.33 319.391L277.804 317.45L282.645 314.651L275.084 310.289L276.444 309.5L285.353 314.645L279.609 317.963L279.022 320.372Z" fill="#5953E8"/>
<path d="M299.582 322.861L298.223 323.645L290.656 319.278L285.815 322.077L282.447 322.347L280.754 321.371L284.924 321.033L290.668 317.715L299.582 322.861Z" fill="#5953E8"/>
<path d="M302.997 320.893L301.632 321.677L292.723 316.531L298.472 313.213L299.053 310.81L300.746 311.786L300.278 313.727L295.431 316.526L302.997 320.893Z" fill="#5953E8"/>
<path d="M270.955 284.526L320.173 312.947L332.824 305.646L283.6 277.225L270.955 284.526Z" fill="#CECCFF"/>
<path d="M348.021 409.031C342.65 412.129 333.989 412.152 328.668 409.082C323.347 406.013 323.386 401.008 328.758 397.91C334.13 394.812 342.791 394.79 348.111 397.859C353.432 400.929 353.393 405.934 348.021 409.031Z" fill="#CECCFF"/>
<path d="M362.341 417.298C356.97 420.396 348.309 420.418 342.988 417.349C337.667 414.279 337.707 409.274 343.078 406.171C348.444 403.073 357.111 403.051 362.432 406.12C367.747 409.195 367.707 414.2 362.341 417.298Z" fill="#4641B5"/>
<path d="M395.142 338.591C396.293 339.257 397.015 339.799 397.636 340.465L396.389 341.181C396.378 341.176 395.153 340.284 394.047 339.652C392.896 338.986 392.185 338.885 389.669 340.335C387.807 341.413 387.214 342.101 388.512 342.851C389.691 343.534 391.096 344.234 391.096 344.234L389.855 344.95C388.89 344.657 387.835 344.166 386.673 343.478C384.608 342.265 385.482 340.927 388.117 339.41C390.78 337.881 392.908 337.299 395.142 338.591Z" fill="#CECCFF"/>
<path d="M396.44 342.078L397.766 342.845L397.252 343.427C398.071 343.432 399.047 343.511 399.786 343.94C400.045 344.087 400.282 344.239 400.378 344.363L398.844 345.249C398.697 345.148 398.347 344.927 398.014 344.736C397.36 344.358 396.778 344.149 395.825 344.25L391.982 346.468L390.408 345.559L396.44 342.078Z" fill="#CECCFF"/>
<path d="M403.471 346.091C405.198 347.09 405.802 347.665 403.804 348.822C402.732 349.443 401.711 349.358 400.627 348.732L398.726 347.631C397.637 348.258 397.981 348.534 398.833 349.025C399.742 349.55 400.176 349.809 401.147 350.221L400.075 350.842C398.918 350.537 397.631 349.798 396.695 349.256C395.177 348.382 395.617 347.609 397.823 346.334C400.419 344.838 401.575 344.996 403.471 346.091ZM401.361 347.835C401.688 348.026 402.021 348.026 402.309 347.863C403.071 347.423 403.099 347.282 402.343 346.842C401.513 346.362 401.152 346.21 399.866 346.971L401.361 347.835Z" fill="#CECCFF"/>
<path d="M408.756 349.087C409.264 349.38 409.879 349.894 410.172 350.356L413.355 348.517L414.923 349.425L406.014 354.571L404.716 353.821L405.043 353.307C404.366 353.268 403.272 353.065 402.567 352.658C401.094 351.812 401.794 350.853 403.667 349.769C405.602 348.658 407.103 348.133 408.756 349.087ZM404.338 352.111C404.931 352.455 405.551 352.63 406.104 352.704L409.089 350.983C408.841 350.65 408.468 350.362 407.921 350.046C407.425 349.758 406.849 349.758 405.314 350.644C403.971 351.423 403.83 351.818 404.338 352.111Z" fill="#CECCFF"/>
<path d="M413.03 351.66L414.604 352.568L408.578 356.05L407.004 355.141L413.03 351.66ZM414.875 350.532C415.044 350.43 415.247 350.419 415.428 350.52L416.607 351.203C416.777 351.299 416.731 351.417 416.573 351.513L415.569 352.094C415.4 352.19 415.214 352.19 415.056 352.1L413.876 351.417C413.718 351.327 413.707 351.203 413.865 351.113L414.875 350.532Z" fill="#CECCFF"/>
<path d="M414.946 353.133L416.239 353.499L418.185 352.681L419.494 353.437L417.813 354.408L419.15 355.181L417.937 355.88L416.6 355.107L414.185 356.501C413.299 357.015 413.31 357.24 413.502 357.483C413.502 357.483 413.936 358.008 414.015 358.058L413.039 358.623L411.668 357.827C410.782 357.319 410.76 356.659 412.357 355.734L415.025 354.193L414.061 353.635L414.946 353.133Z" fill="#CECCFF"/>
<path d="M427.833 357.471C428.984 358.137 429.707 358.679 430.327 359.344L429.08 360.061C429.069 360.055 427.845 359.164 426.739 358.532C425.588 357.866 424.877 357.764 422.36 359.215C420.498 360.292 419.906 360.981 421.204 361.731C422.383 362.414 423.788 363.113 423.788 363.113L422.546 363.83C421.582 363.537 420.527 363.046 419.364 362.357C417.299 361.144 418.174 359.807 420.809 358.289C423.466 356.755 425.599 356.179 427.833 357.471Z" fill="#CECCFF"/>
<path d="M425.029 363.119C425.904 362.611 427.151 362.437 428.432 363.176C428.432 363.176 430.175 364.197 430.186 364.191C430.186 364.191 430.57 363.983 430.57 363.971C431.213 363.599 431.016 363.368 430.514 363.08C429.995 362.781 428.403 361.968 427.879 361.709L428.86 361.145C429.955 361.421 430.863 361.844 431.986 362.482C433.278 363.221 433.702 363.983 432.212 364.846L428.008 367.272L426.767 366.556L427.1 365.98C426.903 366.02 425.447 365.89 424.55 365.354C423.432 364.671 423.681 363.904 424.465 363.452L425.029 363.119ZM426.265 364.869C426.925 365.247 428.104 365.393 428.104 365.393L429.21 364.756L427.653 363.988C427.196 363.774 426.818 363.909 426.553 364.062L426.259 364.231C425.763 364.513 425.977 364.699 426.265 364.869Z" fill="#CECCFF"/>
<path d="M434.965 364.326L436.291 365.094L435.778 365.675C436.596 365.681 437.572 365.76 438.311 366.188C438.571 366.335 438.808 366.487 438.903 366.612L437.369 367.497C437.222 367.396 436.872 367.176 436.534 366.984C435.879 366.606 435.298 366.397 434.344 366.493L430.502 368.711L428.928 367.802L434.965 364.326Z" fill="#CECCFF"/>
<path d="M441.381 367.925C441.889 368.219 442.504 368.738 442.798 369.195L445.98 367.355L447.548 368.264L438.639 373.41L437.347 372.659L437.674 372.146C436.997 372.106 435.908 371.903 435.197 371.497C433.725 370.645 434.424 369.691 436.298 368.608C438.227 367.497 439.728 366.966 441.381 367.925ZM436.963 370.95C437.556 371.288 438.177 371.474 438.729 371.542L441.714 369.821C441.466 369.488 441.094 369.201 440.546 368.885C440.05 368.597 439.474 368.597 437.94 369.483C436.591 370.256 436.456 370.656 436.963 370.95Z" fill="#CECCFF"/>
<path d="M199.752 321.468L201.327 322.376L195.075 325.987C194.471 326.337 194.855 326.54 195.182 326.732L198.003 328.363L196.542 329.209L193.162 327.257C192.265 326.738 191.78 326.072 193.066 325.333L199.752 321.468Z" fill="#CECCFF"/>
<path d="M206.059 327.68C208.113 328.865 208.022 329.694 205.63 331.076C203.396 332.368 202.008 332.431 199.92 331.229C197.855 330.038 198.024 329.175 200.179 327.934C202.64 326.5 204.039 326.512 206.059 327.68ZM201.195 330.484C202.081 330.997 202.465 331.076 204.056 330.162C205.743 329.186 205.72 328.955 204.784 328.413C203.853 327.877 203.441 327.86 201.754 328.831C200.191 329.734 200.354 330.004 201.195 330.484Z" fill="#CECCFF"/>
<path d="M209.666 329.823L210.992 330.591L210.479 331.172C211.297 331.178 212.273 331.257 213.012 331.685C213.272 331.832 213.509 331.985 213.605 332.109L212.07 332.995C211.923 332.893 211.573 332.673 211.235 332.481C210.58 332.103 209.999 331.894 209.046 331.99L205.203 334.208L203.629 333.299L209.666 329.823Z" fill="#CECCFF"/>
<path d="M216.698 333.83C218.424 334.829 219.028 335.405 217.031 336.561C215.959 337.182 214.937 337.097 213.854 336.471L211.953 335.371C210.864 335.997 211.208 336.274 212.06 336.764C212.974 337.289 213.403 337.549 214.373 337.961L213.301 338.581C212.139 338.277 210.858 337.537 209.921 337.001C208.404 336.127 208.844 335.354 211.05 334.079C213.645 332.578 214.802 332.736 216.698 333.83ZM214.588 335.574C214.915 335.766 215.248 335.766 215.535 335.602C216.297 335.162 216.325 335.021 215.569 334.581C214.74 334.101 214.384 333.955 213.092 334.711L214.588 335.574Z" fill="#CECCFF"/>
<path d="M220.03 335.81L221.294 336.544L220.95 337.097C221.864 337.181 222.648 337.221 223.545 337.746C224.307 338.186 224.555 338.665 224.313 339.089C225.244 339.168 226.31 339.342 227.241 339.879C228.561 340.64 228.121 341.43 226.903 342.13L222.913 344.438L221.339 343.529L225.357 341.21C225.921 340.883 225.915 340.584 225.515 340.358C224.911 340.008 224.358 339.822 223.579 339.788C223.528 339.816 223.28 339.969 223.224 340.003L219.223 342.316L217.649 341.408L221.666 339.089C222.231 338.761 222.219 338.462 221.824 338.231C221.204 337.875 220.724 337.779 219.9 337.717L215.584 340.211L214.01 339.303L220.03 335.81Z" fill="#CECCFF"/>
<path d="M235.136 341.894L236.71 342.802L228.404 347.598L226.83 346.69L235.136 341.894Z" fill="#CECCFF"/>
<path d="M235.439 344.702L236.732 345.453L236.399 345.961C237.076 346 238.17 346.203 238.881 346.615C240.354 347.462 239.587 348.46 237.781 349.504C236.038 350.508 234.356 351.14 232.697 350.187C232.189 349.893 231.569 349.374 231.275 348.912L227.913 350.853L226.35 349.95L235.439 344.702ZM233.532 349.233C234.029 349.521 234.604 349.521 236.139 348.635C237.482 347.856 237.623 347.461 237.115 347.168C236.523 346.824 235.896 346.643 235.344 346.576L232.359 348.297C232.613 348.624 232.991 348.917 233.532 349.233Z" fill="#CECCFF"/>
<path d="M239.948 349.121C240.879 348.585 241.962 348.41 243.124 349.081C244.275 349.747 245.816 350.678 246.008 351.101L245.003 351.682L242.295 350.119C241.889 349.883 241.708 349.928 241.42 350.091L241.15 350.249C240.766 350.469 240.958 350.588 241.217 350.74L242.633 351.558C243.773 352.218 243.536 352.867 242.662 353.375L242.041 353.731C240.805 354.447 239.722 354.21 239 353.798C237.866 353.144 236.139 352.083 235.998 351.688L236.991 351.113L239.812 352.743C239.914 352.805 240.219 352.963 240.591 352.749L240.873 352.585C241.127 352.439 241.195 352.314 240.873 352.128L239.479 351.327C238.424 350.718 238.249 350.103 239.423 349.425L239.948 349.121Z" fill="#CECCFF"/>
<path d="M247.316 351.564L248.89 352.472L244.856 354.802C244.258 355.147 244.308 355.429 244.698 355.654C245.33 356.021 245.843 356.123 246.661 356.185L250.989 353.685L252.563 354.594L246.537 358.075L245.273 357.341L245.606 356.794C244.653 356.659 243.88 356.653 242.966 356.128C241.578 355.327 242.153 354.543 243.298 353.877L247.316 351.564Z" fill="#CECCFF"/>
<path d="M253.586 355.187L254.85 355.92L254.506 356.473C255.42 356.558 256.204 356.603 257.102 357.122C257.863 357.562 258.112 358.042 257.869 358.465C258.8 358.544 259.866 358.719 260.797 359.255C262.118 360.017 261.678 360.807 260.459 361.512L256.47 363.82L254.895 362.911L258.913 360.592C259.477 360.265 259.471 359.966 259.071 359.74C258.467 359.39 257.914 359.204 257.135 359.17C257.085 359.198 256.836 359.351 256.78 359.385L252.78 361.698L251.205 360.79L255.223 358.471C255.787 358.143 255.776 357.844 255.375 357.613C254.754 357.257 254.275 357.162 253.451 357.099L249.129 359.593L247.555 358.685L253.586 355.187Z" fill="#CECCFF"/>
<path opacity="0.3" d="M343.547 301.584L189.16 320.943L232.776 295.603L315.267 285.255L343.547 301.584Z" fill="#625BFF"/>
<path opacity="0.3" d="M431.88 352.585L256.121 374.624L193.896 338.699L369.656 316.66L431.88 352.585Z" fill="#625BFF"/>
<path d="M71.572 208.242L5.08789 182.23L6.6734 178.168L68.5138 202.362L99.8967 73.5863L145.244 141.853L202.915 106.431L234.885 24.8248L235.11 24.554L285.79 -36L289.136 -33.2014L238.682 27.0818L206.442 109.382L143.941 147.772L101.776 84.2955L71.572 208.242Z" fill="#625BFF"/>
<path d="M243.366 22.968C243.366 26.7202 240.731 31.2848 237.481 33.1637C234.231 35.0426 231.596 33.5192 231.596 29.767C231.596 26.0148 234.231 21.4502 237.481 19.5713C240.731 17.6923 243.366 19.2102 243.366 22.968Z" fill="#5953E8"/>
<path d="M211.747 103.491C211.747 107.243 209.112 111.808 205.862 113.687C202.612 115.566 199.977 114.042 199.977 110.29C199.977 106.538 202.612 101.973 205.862 100.094C209.112 98.2153 211.747 99.7387 211.747 103.491Z" fill="#5953E8"/>
<path d="M151.581 139.297C151.581 143.049 148.946 147.613 145.696 149.492C142.446 151.371 139.811 149.848 139.811 146.096C139.811 142.343 142.446 137.779 145.696 135.9C148.946 134.021 151.581 135.539 151.581 139.297Z" fill="#5953E8"/>
<path d="M105.614 76.8974C105.614 80.6496 102.979 85.2142 99.7287 87.0931C96.4787 88.972 93.8438 87.4487 93.8438 83.6965C93.8438 79.9443 96.4787 75.3796 99.7287 73.5007C102.979 71.6217 105.614 73.1452 105.614 76.8974Z" fill="#5953E8"/>
<path d="M75.9301 201.905C75.9301 205.657 73.2952 210.222 70.0451 212.101C66.7951 213.98 64.1602 212.456 64.1602 208.699C64.1602 204.946 66.7951 200.382 70.0451 198.503C73.2952 196.63 75.9301 198.153 75.9301 201.905Z" fill="#5953E8"/>
<path d="M11.77 176.553C11.77 180.305 9.135 184.87 5.88499 186.749C2.63498 188.628 0 187.104 0 183.352C0 179.6 2.63498 175.035 5.88499 173.156C9.135 171.278 11.77 172.795 11.77 176.553Z" fill="#5953E8"/>
<path d="M10.3928 209.388L6.94531 206.713L62.9797 134.463L108.446 154.07L148.422 59.0129L224.312 78.7555L256.959 25.6156L322.089 -2.51733L323.815 1.4832L259.955 29.0744L226.338 83.7885L150.978 64.1869L110.759 159.82L64.3508 139.806L10.3928 209.388Z" fill="#9691FF"/>
<path d="M154.977 59.1993C154.977 62.9515 152.342 67.5162 149.092 69.3951C145.842 71.274 143.207 69.7506 143.207 65.9984C143.207 62.2462 145.842 57.6816 149.092 55.8026C152.342 53.9294 154.977 55.4471 154.977 59.1993Z" fill="#9691FF"/>
<path d="M116.733 151.886C116.733 155.638 114.098 160.203 110.848 162.082C107.598 163.961 104.963 162.437 104.963 158.685C104.963 154.933 107.598 150.368 110.848 148.489C114.098 146.611 116.733 148.134 116.733 151.886Z" fill="#9691FF"/>
<path d="M70.0415 133.814C70.0415 137.567 67.4065 142.131 64.1565 144.01C60.9065 145.889 58.2715 144.366 58.2715 140.613C58.2715 136.861 60.9065 132.297 64.1565 130.418C67.4065 128.539 70.0415 130.062 70.0415 133.814Z" fill="#9691FF"/>
<path d="M15.5883 203.351C15.5883 207.103 12.9534 211.667 9.70335 213.546C6.45334 215.425 3.81836 213.902 3.81836 210.15C3.81836 206.397 6.45334 201.833 9.70335 199.954C12.9534 198.075 15.5883 199.593 15.5883 203.351Z" fill="#9691FF"/>
<path d="M231.754 76.4191C231.754 80.1713 229.119 84.736 225.869 86.6149C222.619 88.4939 219.984 86.9704 219.984 83.2182C219.984 79.466 222.619 74.9013 225.869 73.0224C229.119 71.1435 231.754 72.6669 231.754 76.4191Z" fill="#9691FF"/>
<path d="M262.571 25.3901C262.571 29.1423 259.936 33.7069 256.686 35.5858C253.436 37.4647 250.801 35.9413 250.801 32.1891C250.801 28.4369 253.436 23.8723 256.686 21.9933C259.936 20.1144 262.571 21.6379 262.571 25.3901Z" fill="#9691FF"/>
<g opacity="0.3">
<path d="M86.666 414.228L103.114 426.494L107.785 426.5L129.052 414.228L107.926 401.95L86.666 414.228Z" fill="#36328C"/>
</g>
<g opacity="0.3">
<path d="M59.4824 429.886L75.9299 442.153L80.6018 442.164L101.862 429.886L80.7429 417.608L59.4824 429.886Z" fill="#36328C"/>
</g>
<path d="M81.4688 304.105L81.7791 414.115L103.068 426.488L102.752 316.473L81.4688 304.105Z" fill="#36328C"/>
<path d="M102.752 316.473L103.068 426.488L124.492 414.115L124.176 304.105L102.752 316.473Z" fill="#29266B"/>
<path d="M81.4688 304.106L102.752 316.474L124.176 304.106L102.893 291.732L81.4688 304.106Z" fill="#4641B5"/>
<path d="M54.3301 372.345L54.6404 429.785L75.9291 442.159L75.6187 384.714L54.3301 372.345Z" fill="#CECCFF"/>
<path d="M75.6172 384.714L75.9275 442.159L97.3516 429.785L97.0413 372.345L75.6172 384.714Z" fill="#EFEFFF"/>
<path d="M54.3301 372.345L75.6188 384.713L97.0428 372.345L75.7542 359.971L54.3301 372.345Z" fill="#B7B4FF"/>
<path opacity="0.3" d="M198.713 455.875L391.75 344.477C394.407 342.943 394.407 339.112 391.75 337.577L258.313 260.508L157.777 461.207H178.806C185.797 461.207 192.664 459.368 198.713 455.875Z" fill="#50298A"/>
<path d="M287.311 16.7791L304.639 26.8451C301.953 25.2878 298.24 25.5078 294.138 27.872L276.811 17.806C280.913 15.4418 284.631 15.2218 287.311 16.7791Z" fill="#EFEFFF"/>
<mask id="mask0_3507_13686" style="mask-type:luminance" maskUnits="userSpaceOnUse" x="276" y="15" width="29" height="13">
<path d="M287.311 16.7791L304.639 26.8451C301.953 25.2878 298.24 25.5078 294.138 27.872L276.811 17.806C280.913 15.4418 284.631 15.2218 287.311 16.7791Z" fill="white"/>
</mask>
<g mask="url(#mask0_3507_13686)">
<path d="M294.138 27.8779L276.811 17.8119C280.913 15.4421 284.625 15.2277 287.311 16.785L304.639 26.851C301.953 25.288 298.24 25.5081 294.138 27.8779Z" fill="#EFEFFF"/>
</g>
<path d="M150.025 450.808L149.111 128.588L131.783 118.522L132.697 440.742C132.709 445.391 134.35 448.663 137.002 450.204L154.33 460.27C151.678 458.729 150.036 455.457 150.025 450.808Z" fill="#E2E2FF"/>
<path d="M163.808 103.118L146.486 93.0519L276.814 17.8052L294.136 27.8768L163.808 103.118Z" fill="#EFEFFF"/>
<path d="M149.111 128.589L131.783 118.523C131.755 109.162 138.34 97.759 146.487 93.0532L163.815 103.119C155.667 107.825 149.083 119.228 149.111 128.589Z" fill="#CECCFF"/>
<mask id="mask1_3507_13686" style="mask-type:luminance" maskUnits="userSpaceOnUse" x="131" y="93" width="33" height="36">
<path d="M149.111 128.589L131.783 118.523C131.755 109.162 138.34 97.759 146.487 93.0532L163.815 103.119C155.667 107.825 149.083 119.228 149.111 128.589Z" fill="white"/>
</mask>
<g mask="url(#mask1_3507_13686)">
<path d="M149.111 128.589L131.783 118.523C131.755 109.162 138.34 97.759 146.487 93.0532L163.815 103.119C155.667 107.825 149.083 119.228 149.111 128.589Z" fill="#CECCFF"/>
</g>
<path d="M309.765 328.949L149.939 421.23L149.866 395.885L149.561 287.799L149.432 242.44L149.291 193.323L149.178 152.495L206.933 119.148L276.43 79.0256L309.004 60.2139L309.071 82.552L309.376 190.626L309.765 328.949Z" fill="url(#paint0_linear_3507_13686)"/>
<path d="M308.935 36.3069C308.907 26.9462 302.283 23.1714 294.135 27.8715L163.808 103.118C155.666 107.818 149.081 119.227 149.104 128.588L149.171 152.495L309.003 60.2137L308.935 36.3069Z" fill="#C0C0FF"/>
<path d="M149.938 421.224L150.022 450.802C150.05 460.162 156.674 463.937 164.822 459.237L295.15 383.99C303.297 379.284 309.882 367.887 309.854 358.526L309.769 328.943L149.938 421.224Z" fill="#EFEFFF"/>
<path d="M266.504 66.449C266.504 70.1392 263.914 74.6305 260.715 76.4755C257.516 78.3206 254.926 76.8254 254.926 73.1353C254.926 69.4451 257.516 64.9538 260.715 63.1088C263.908 61.2581 266.504 62.7589 266.504 66.449Z" fill="#3D2F43"/>
<path d="M203.926 102.284C203.926 104.896 202.092 108.067 199.835 109.371C197.578 110.674 195.744 109.619 195.744 107.007C195.744 104.394 197.578 101.223 199.835 99.9197C202.092 98.6164 203.926 99.6771 203.926 102.284Z" fill="#3D2F43"/>
<path d="M193.363 108.389C193.363 111.002 191.529 114.173 189.272 115.476C187.01 116.78 185.182 115.725 185.182 113.112C185.182 110.5 187.015 107.329 189.272 106.025C191.529 104.716 193.363 105.777 193.363 108.389Z" fill="#3D2F43"/>
<path d="M247.043 82.3551L208.528 104.665C207.608 105.195 206.863 104.767 206.863 103.706V98.2046C206.863 97.1439 207.608 95.8517 208.528 95.3214L247.043 73.0113C247.962 72.4809 248.707 72.9098 248.707 73.9706V79.4719C248.707 80.5326 247.962 81.8248 247.043 82.3551Z" fill="#3D2F43"/>
<path d="M221.763 415.029C220.109 414.075 219.195 412.151 219.195 409.623V402.17C219.195 397.368 222.451 391.726 226.615 389.322L250.273 375.662C252.468 374.398 254.584 374.228 256.237 375.182C257.891 376.136 258.805 378.06 258.805 380.587V388.041C258.805 392.843 255.549 398.485 251.385 400.889L227.727 414.549C226.468 415.277 225.238 415.638 224.104 415.638C223.263 415.638 222.468 415.435 221.763 415.029ZM250.273 398.953C253.687 396.979 256.576 391.985 256.576 388.041V380.587C256.576 378.889 256.063 377.653 255.126 377.112C254.189 376.57 252.863 376.739 251.391 377.591L227.732 391.252C224.319 393.221 221.43 398.22 221.43 402.164V409.618C221.43 411.316 221.943 412.552 222.88 413.093C223.816 413.635 225.142 413.466 226.615 412.614L250.273 398.953Z" fill="#828CC0"/>
<path opacity="0.1" d="M276.431 79.0254L149.432 242.44L149.291 193.323L206.933 119.148L276.431 79.0254Z" fill="#5953E8"/>
<path opacity="0.1" d="M309.375 190.626L149.865 395.885L149.561 287.799L309.07 82.552L309.375 190.626Z" fill="#5953E8"/>
<path d="M203.447 212.699C201.405 211.514 199.221 210.6 196.891 209.962C196.039 209.725 195.159 209.528 194.267 209.375C190.989 208.794 187.479 208.727 183.778 209.206C183.772 209.201 183.772 209.201 183.767 209.206C177.408 210.03 170.49 212.456 163.257 216.632C132.066 234.642 106.861 278.297 106.963 314.138C106.985 320.852 107.888 326.816 109.553 331.956C109.553 331.967 109.558 331.979 109.564 331.99C110.912 336.143 112.758 339.748 115.026 342.778C115.748 343.749 116.515 344.657 117.328 345.509L117.333 345.515C119.162 347.439 121.204 349.058 123.439 350.356L115.624 345.814L113.423 344.539C113.35 344.494 113.277 344.454 113.209 344.409C110.145 342.592 107.437 340.155 105.152 337.153C99.9775 330.342 96.9814 320.581 96.9476 308.315C96.846 272.474 122.045 228.819 153.242 210.809C162.913 205.228 172.019 202.763 179.992 203.096H180.009C184.314 203.265 188.286 204.264 191.83 206.013C192.377 206.278 192.907 206.566 193.426 206.87L194.972 207.767L194.978 207.773L203.447 212.699Z" fill="#9691FF"/>
<path d="M163.261 216.637C132.07 234.647 106.866 278.297 106.967 314.143C107.069 349.983 132.437 364.439 163.628 346.434C194.819 328.424 220.023 284.774 219.922 248.928C219.82 213.082 194.452 198.626 163.261 216.637Z" fill="#B7B4FF"/>
<path d="M208.987 255.242C209.066 284.142 188.742 319.345 163.594 333.868C150.735 341.294 139.101 341.869 130.79 336.802C122.845 331.961 117.936 321.951 117.897 307.829C117.818 278.928 138.142 243.72 163.29 229.202C173.491 223.311 182.919 221.726 190.531 223.859C201.692 226.968 208.942 238.049 208.987 255.242Z" fill="#9691FF"/>
<path d="M203.447 252.838C203.526 281.738 183.207 316.947 158.054 331.465C147.841 337.361 138.407 338.941 130.795 336.802C122.851 331.961 117.942 321.951 117.903 307.829C117.824 278.928 138.147 243.72 163.295 229.202C173.497 223.311 182.925 221.726 190.537 223.859C198.498 228.689 203.407 238.698 203.447 252.838Z" fill="#9691FF"/>
<path d="M191.837 206.019C190.489 205.55 189.101 205.178 187.673 204.913C185.253 204.456 182.691 204.281 180.05 204.388C172.512 204.698 164.483 207.288 156.189 212.073C141.44 220.587 127.509 235.066 116.957 252.85C106.525 270.438 100.414 289.537 99.7481 306.628C99.5958 310.922 99.7876 315.063 100.318 318.917C101.864 330.151 106.316 338.936 113.211 344.415C110.147 342.598 107.439 340.161 105.154 337.159C102.078 332.182 100.008 326.089 99.0428 319.092C98.4955 315.159 98.3037 310.944 98.4616 306.577C99.1331 289.278 105.306 269.964 115.846 252.196C126.504 234.231 140.605 219.583 155.54 210.961C164.02 206.069 172.241 203.423 179.988 203.102H180.005C184.316 203.271 188.288 204.27 191.837 206.019Z" fill="#B7B4FF"/>
<path d="M117.342 345.52C116.388 344.815 115.649 344.206 115.384 343.85L115.282 343.743C108.607 338.146 104.438 329.146 103.23 317.715C102.83 313.946 102.745 309.928 102.988 305.775C104.003 289.136 110.17 270.652 120.349 253.747C130.703 236.555 144.284 222.539 158.588 214.279C166.295 209.827 173.766 207.333 180.796 206.864C183.256 206.701 185.648 206.791 187.911 207.141C190.298 207.496 192.583 208.14 194.716 209.048L194.834 209.088C195.161 209.155 195.94 209.499 196.899 209.962C199.23 210.594 201.424 211.508 203.461 212.699L194.992 207.779L194.987 207.773C192.825 206.87 190.506 206.227 188.097 205.866C185.75 205.505 183.262 205.414 180.706 205.584C173.478 206.063 165.821 208.614 157.939 213.161C143.449 221.529 129.704 235.703 119.238 253.076C108.952 270.161 102.722 288.848 101.69 305.696C101.447 309.917 101.532 314.002 101.938 317.85C103.179 329.586 107.49 338.862 114.402 344.685C114.639 344.984 115.074 345.374 115.621 345.819L123.441 350.361L117.342 345.52Z" fill="#B7B4FF"/>
<path d="M194.263 209.376C190.985 208.795 187.481 208.727 183.78 209.207H183.768C183.029 209.229 182.279 209.274 181.517 209.348C174.994 209.974 168.077 212.372 160.956 216.485C147.098 224.486 133.873 238.033 123.705 254.639C113.775 270.872 107.557 288.73 106.191 304.924C105.864 308.93 105.841 312.829 106.112 316.513C106.53 322.302 107.698 327.493 109.56 331.957C109.56 331.968 109.565 331.979 109.571 331.99C110.92 336.143 112.765 339.749 115.033 342.779C109.17 336.775 105.644 327.747 104.837 316.609C104.561 312.857 104.589 308.891 104.916 304.817C106.298 288.426 112.584 270.364 122.616 253.968C132.885 237.181 146.28 223.476 160.319 215.368C167.603 211.165 174.69 208.704 181.398 208.061C183.763 207.836 186.082 207.841 188.271 208.084C190.347 208.309 192.356 208.744 194.263 209.376Z" fill="#B7B4FF"/>
<path d="M161.473 322.274L156.936 319.639L156.908 309.51L161.439 312.14L161.473 322.274Z" fill="#817CFF"/>
<path d="M166.575 284.634L171.106 287.269C171.36 287.415 171.58 287.596 171.766 287.805C172.212 288.312 172.438 289.114 172.443 290.186C172.449 291.89 171.896 293.526 170.79 295.106C169.684 296.686 167.619 298.344 164.606 300.082C161.943 301.623 159.409 302.689 157.011 303.276C154.613 303.863 152.548 304.173 150.816 304.207L146.285 301.572C148.012 301.544 150.077 301.233 152.48 300.641C154.878 300.054 157.412 298.988 160.075 297.447C163.088 295.71 165.153 294.045 166.259 292.471C167.365 290.891 167.918 289.255 167.912 287.551C167.907 286.479 167.687 285.677 167.235 285.17C167.049 284.961 166.829 284.78 166.575 284.634Z" fill="#817CFF"/>
<mask id="mask2_3507_13686" style="mask-type:luminance" maskUnits="userSpaceOnUse" x="146" y="284" width="27" height="21">
<path d="M166.575 284.634L171.106 287.269C171.36 287.415 171.58 287.596 171.766 287.805C172.212 288.312 172.438 289.114 172.443 290.186C172.449 291.89 171.896 293.526 170.79 295.106C169.684 296.686 167.619 298.344 164.606 300.082C161.943 301.623 159.409 302.689 157.011 303.276C154.613 303.863 152.548 304.173 150.816 304.207L146.285 301.572C148.012 301.544 150.077 301.233 152.48 300.641C154.878 300.054 157.412 298.988 160.075 297.447C163.088 295.71 165.153 294.045 166.259 292.471C167.365 290.891 167.918 289.255 167.912 287.551C167.907 286.479 167.687 285.677 167.235 285.17C167.049 284.961 166.829 284.78 166.575 284.634Z" fill="white"/>
</mask>
<g mask="url(#mask2_3507_13686)">
<path d="M150.81 304.207L146.279 301.572C148.006 301.544 150.071 301.234 152.475 300.641C154.873 300.054 157.406 298.988 160.069 297.448C163.082 295.71 165.147 294.045 166.253 292.471C167.359 290.891 167.912 289.255 167.907 287.551C167.901 286.479 167.681 285.678 167.229 285.17C167.043 284.961 166.823 284.781 166.569 284.628L171.1 287.263C171.354 287.41 171.574 287.59 171.76 287.799C172.206 288.307 172.432 289.108 172.437 290.18C172.443 291.884 171.89 293.521 170.784 295.1C169.678 296.68 167.613 298.339 164.6 300.077C161.937 301.617 159.403 302.684 157.005 303.271C154.602 303.869 152.542 304.179 150.81 304.207Z" fill="#817CFF"/>
</g>
<path d="M147.65 315.841L143.119 313.206L146.279 301.577L150.81 304.207L147.65 315.841Z" fill="#817CFF"/>
<path d="M161.39 274.241L156.859 271.606C157.119 271.752 157.418 271.859 157.773 271.916C158.467 272.023 159.319 272.029 160.335 271.933C161.351 271.831 162.575 271.651 164.008 271.397C166.186 271.053 168.201 270.883 170.057 270.895C171.913 270.906 173.521 271.216 174.887 271.82C175.101 271.916 175.31 272.023 175.513 272.142L180.044 274.777C179.841 274.658 179.638 274.551 179.418 274.455C178.052 273.851 176.444 273.541 174.588 273.53C172.737 273.518 170.717 273.682 168.539 274.032C167.106 274.291 165.882 274.472 164.866 274.573C163.85 274.675 162.998 274.669 162.304 274.556C161.949 274.494 161.644 274.393 161.39 274.241Z" fill="#817CFF"/>
<mask id="mask3_3507_13686" style="mask-type:luminance" maskUnits="userSpaceOnUse" x="156" y="270" width="25" height="5">
<path d="M161.39 274.241L156.859 271.606C157.119 271.752 157.418 271.859 157.773 271.916C158.467 272.023 159.319 272.029 160.335 271.933C161.351 271.831 162.575 271.651 164.008 271.397C166.186 271.053 168.201 270.883 170.057 270.895C171.913 270.906 173.521 271.216 174.887 271.82C175.101 271.916 175.31 272.023 175.513 272.142L180.044 274.777C179.841 274.658 179.638 274.551 179.418 274.455C178.052 273.851 176.444 273.541 174.588 273.53C172.737 273.518 170.717 273.682 168.539 274.032C167.106 274.291 165.882 274.472 164.866 274.573C163.85 274.675 162.998 274.669 162.304 274.556C161.949 274.494 161.644 274.393 161.39 274.241Z" fill="white"/>
</mask>
<g mask="url(#mask3_3507_13686)">
<path d="M161.39 274.241L156.859 271.606C157.119 271.752 157.418 271.859 157.773 271.916C158.467 272.023 159.319 272.029 160.335 271.933C161.351 271.831 162.575 271.651 164.008 271.397C166.186 271.053 168.201 270.883 170.057 270.895C171.913 270.906 173.521 271.216 174.887 271.82C175.101 271.916 175.31 272.023 175.513 272.142L180.044 274.777C179.841 274.658 179.638 274.551 179.418 274.455C178.052 273.851 176.444 273.541 174.588 273.53C172.737 273.518 170.717 273.682 168.539 274.032C167.106 274.291 165.882 274.472 164.866 274.573C163.85 274.675 162.998 274.669 162.304 274.556C161.949 274.494 161.644 274.393 161.39 274.241Z" fill="#817CFF"/>
</g>
<path d="M170.619 250.39L166.088 247.755C168.655 246.559 170.867 245.707 172.723 245.205C174.58 244.703 176.047 244.426 177.136 244.364L181.666 246.999C180.577 247.061 179.11 247.343 177.254 247.84C175.398 248.342 173.186 249.2 170.619 250.39Z" fill="#817CFF"/>
<mask id="mask4_3507_13686" style="mask-type:luminance" maskUnits="userSpaceOnUse" x="166" y="244" width="16" height="7">
<path d="M170.619 250.39L166.088 247.755C168.655 246.559 170.867 245.707 172.723 245.205C174.58 244.703 176.047 244.426 177.136 244.364L181.666 246.999C180.577 247.061 179.11 247.343 177.254 247.84C175.398 248.342 173.186 249.2 170.619 250.39Z" fill="white"/>
</mask>
<g mask="url(#mask4_3507_13686)">
<path d="M170.619 250.39L166.088 247.755C168.655 246.559 170.867 245.707 172.723 245.205C174.58 244.703 176.047 244.426 177.136 244.364L181.666 246.999C180.577 247.061 179.11 247.343 177.254 247.84C175.398 248.342 173.186 249.2 170.619 250.39Z" fill="#817CFF"/>
</g>
<path d="M152.293 287.003L147.762 284.368C146.899 283.866 146.171 283.127 145.59 282.151C144.817 280.864 144.433 278.997 144.428 276.554C144.422 274.68 144.648 272.745 145.116 270.742C145.579 268.745 146.301 266.747 147.289 264.755C148.27 262.769 149.551 260.817 151.131 258.916C152.711 257.008 154.584 255.203 156.756 253.493L161.287 256.128C159.115 257.838 157.242 259.643 155.662 261.551C154.082 263.458 152.801 265.404 151.819 267.39C150.832 269.382 150.11 271.38 149.647 273.377C149.179 275.38 148.953 277.321 148.959 279.189C148.964 281.626 149.354 283.499 150.121 284.786C150.708 285.762 151.43 286.495 152.293 287.003Z" fill="#817CFF"/>
<mask id="mask5_3507_13686" style="mask-type:luminance" maskUnits="userSpaceOnUse" x="144" y="253" width="18" height="35">
<path d="M152.293 287.003L147.762 284.368C146.899 283.866 146.171 283.127 145.59 282.151C144.817 280.864 144.433 278.997 144.428 276.554C144.422 274.68 144.648 272.745 145.116 270.742C145.579 268.745 146.301 266.747 147.289 264.755C148.27 262.769 149.551 260.817 151.131 258.916C152.711 257.008 154.584 255.203 156.756 253.493L161.287 256.128C159.115 257.838 157.242 259.643 155.662 261.551C154.082 263.458 152.801 265.404 151.819 267.39C150.832 269.382 150.11 271.38 149.647 273.377C149.179 275.38 148.953 277.321 148.959 279.189C148.964 281.626 149.354 283.499 150.121 284.786C150.708 285.762 151.43 286.495 152.293 287.003Z" fill="white"/>
</mask>
<g mask="url(#mask5_3507_13686)">
<path d="M152.293 287.003L147.762 284.368C146.899 283.866 146.171 283.127 145.59 282.151C144.817 280.864 144.433 278.997 144.428 276.554C144.422 274.68 144.648 272.745 145.116 270.742C145.579 268.745 146.301 266.747 147.289 264.755C148.27 262.769 149.551 260.817 151.131 258.916C152.711 257.008 154.584 255.203 156.756 253.493L161.287 256.128C159.115 257.838 157.242 259.643 155.662 261.551C154.082 263.458 152.801 265.404 151.819 267.39C150.832 269.382 150.11 271.38 149.647 273.377C149.179 275.38 148.953 277.321 148.959 279.189C148.964 281.626 149.354 283.499 150.121 284.786C150.708 285.762 151.43 286.495 152.293 287.003Z" fill="#817CFF"/>
</g>
<path d="M170.593 241.537L170.621 250.39C173.188 249.194 175.4 248.342 177.257 247.84C179.113 247.338 180.58 247.061 181.669 246.999L179.401 258.543C177.77 258.69 175.88 259.096 173.73 259.768C171.575 260.445 169.318 261.461 166.948 262.832C164.573 264.203 162.874 265.642 161.842 267.142C160.809 268.649 160.29 270.144 160.296 271.617C160.296 272.525 160.459 273.214 160.781 273.682C161.108 274.145 161.61 274.438 162.304 274.551C162.998 274.658 163.85 274.664 164.866 274.568C165.882 274.466 167.106 274.286 168.539 274.026C170.717 273.682 172.731 273.513 174.588 273.524C176.444 273.535 178.052 273.846 179.418 274.449C180.777 275.053 181.844 276.074 182.617 277.502C183.384 278.935 183.773 280.899 183.785 283.393C183.79 285.091 183.57 286.908 183.136 288.837C182.696 290.767 181.962 292.742 180.93 294.762C179.897 296.776 178.554 298.774 176.901 300.754C175.248 302.729 173.211 304.642 170.796 306.498L170.824 316.88L161.486 322.269L161.458 312.14C157.852 313.884 154.924 314.933 152.673 315.294C150.421 315.656 148.751 315.842 147.668 315.842L150.828 304.213C152.56 304.179 154.619 303.874 157.023 303.282C159.421 302.695 161.954 301.629 164.618 300.088C167.631 298.35 169.696 296.686 170.802 295.112C171.908 293.532 172.461 291.896 172.455 290.192C172.455 289.114 172.229 288.318 171.778 287.81C171.332 287.303 170.689 286.981 169.842 286.84C169.002 286.705 167.935 286.705 166.649 286.851C165.362 286.998 163.878 287.218 162.197 287.5C160.566 287.76 158.97 287.929 157.412 288.002C155.855 288.076 154.444 287.884 153.181 287.421C151.917 286.953 150.901 286.078 150.128 284.792C149.355 283.505 148.971 281.638 148.966 279.195C148.96 277.321 149.186 275.386 149.654 273.383C150.117 271.386 150.839 269.388 151.826 267.396C152.808 265.41 154.089 263.458 155.669 261.556C157.249 259.649 159.122 257.844 161.294 256.134L161.266 246.943L170.593 241.537Z" fill="#B7B4FF"/>
<path d="M161.282 256.123L156.751 253.488L156.729 244.297L161.259 246.932L161.282 256.123Z" fill="#817CFF"/>
<path d="M161.259 246.931L156.729 244.296L166.061 238.908L170.592 241.537L161.259 246.931Z" fill="#817CFF"/>
<path d="M350.082 135.037C348.039 133.852 345.856 132.938 343.525 132.3C342.673 132.063 341.793 131.866 340.902 131.714H340.89C337.618 131.132 334.108 131.065 330.407 131.544C330.401 131.539 330.401 131.539 330.395 131.544C324.031 132.368 317.119 134.794 309.885 138.97C278.694 156.98 253.49 200.635 253.591 236.476C253.614 243.19 254.517 249.154 256.181 254.294C256.181 254.306 256.187 254.317 256.187 254.328C257.535 258.481 259.381 262.086 261.649 265.116C262.371 266.087 263.138 266.995 263.951 267.847L263.957 267.853C265.785 269.777 267.827 271.396 270.062 272.7L262.247 268.158L260.046 266.882C259.973 266.837 259.9 266.798 259.832 266.753C256.768 264.936 254.06 262.498 251.775 259.497C246.601 252.686 243.604 242.925 243.571 230.658C243.469 194.812 268.668 151.163 299.865 133.152C309.536 127.572 318.642 125.106 326.615 125.439H326.632C330.937 125.609 334.909 126.607 338.453 128.356C339 128.622 339.53 128.909 340.05 129.214L341.59 130.111L341.596 130.117L350.082 135.037Z" fill="#9691FF"/>
<path d="M309.896 138.976C278.705 156.986 253.5 200.635 253.602 236.482C253.703 272.322 279.072 286.778 310.263 268.773C341.454 250.762 366.658 207.113 366.557 171.267C366.455 135.421 341.087 120.965 309.896 138.976Z" fill="#B7B4FF"/>
<path d="M355.622 177.581C355.701 206.481 335.377 241.684 310.229 256.207C297.37 263.632 285.736 264.208 277.424 259.141C269.48 254.294 264.571 244.29 264.531 230.168C264.452 201.267 284.776 166.059 309.924 151.541C320.126 145.65 329.554 144.065 337.166 146.198C348.326 149.307 355.577 160.394 355.622 177.581Z" fill="#9691FF"/>
<path d="M350.081 175.177C350.16 204.077 329.842 239.286 304.688 253.803C294.476 259.7 285.042 261.28 277.43 259.141C269.486 254.294 264.577 244.29 264.537 230.168C264.458 201.267 284.782 166.059 309.93 151.541C320.132 145.65 329.56 144.065 337.172 146.198C345.127 151.027 350.042 161.037 350.081 175.177Z" fill="#9691FF"/>
<path d="M338.47 128.363C337.122 127.894 335.734 127.522 334.306 127.257C331.885 126.8 329.324 126.625 326.683 126.732C319.145 127.042 311.116 129.632 302.822 134.417C288.072 142.931 274.141 157.41 263.59 175.194C253.157 192.782 247.047 211.881 246.381 228.972C246.229 233.266 246.42 237.407 246.951 241.261C248.497 252.495 252.949 261.28 259.844 266.759C256.78 264.942 254.071 262.505 251.786 259.503C248.711 254.526 246.64 248.433 245.676 241.436C245.128 237.503 244.936 233.288 245.094 228.921C245.76 211.622 251.939 192.308 262.479 174.54C273.143 156.575 287.237 141.927 302.173 133.305C310.653 128.413 318.874 125.767 326.621 125.446H326.638C330.949 125.615 334.921 126.608 338.47 128.363Z" fill="#B7B4FF"/>
<path d="M304.566 135.507C290.076 143.874 276.331 158.048 265.87 175.421C255.584 192.506 249.355 211.194 248.323 228.042C248.08 232.262 248.165 236.347 248.571 240.195C249.812 251.931 254.123 261.208 261.035 267.03C261.272 267.33 261.706 267.719 262.254 268.165L270.074 272.707L263.969 267.86L263.963 267.854C263.015 267.155 262.276 266.545 262.011 266.19L261.91 266.083C255.235 260.485 251.065 251.486 249.857 240.054C249.451 236.28 249.372 232.268 249.615 228.115C250.63 211.476 256.798 192.991 266.976 176.087C277.33 158.894 290.911 144.879 305.215 136.618C312.922 132.166 320.393 129.672 327.423 129.204C329.883 129.04 332.276 129.131 334.538 129.481C336.925 129.836 339.21 130.479 341.343 131.388L341.461 131.427C341.794 131.495 342.567 131.839 343.521 132.302C345.851 132.934 348.046 133.848 350.083 135.038L341.614 130.118L341.608 130.113C339.447 129.21 337.128 128.567 334.719 128.211C332.371 127.85 329.883 127.754 327.327 127.929C320.105 128.409 312.448 130.959 304.566 135.507C312.448 130.959 290.082 143.874 304.566 135.507Z" fill="#B7B4FF"/>
<path d="M340.896 131.72C337.623 131.139 334.114 131.071 330.412 131.551H330.401C329.662 131.573 328.911 131.619 328.15 131.692C321.627 132.318 314.709 134.716 307.589 138.83C293.731 146.83 280.505 160.378 270.338 176.983C260.413 193.216 254.189 211.075 252.824 227.268C252.497 231.274 252.474 235.173 252.745 238.863C253.162 244.652 254.33 249.843 256.192 254.306C256.192 254.318 256.198 254.329 256.198 254.34C257.547 258.493 259.392 262.099 261.66 265.129C255.797 259.125 252.271 250.097 251.464 238.959C251.188 235.207 251.216 231.24 251.543 227.167C252.925 210.775 259.211 192.72 269.243 176.317C279.512 159.531 292.907 145.826 306.945 137.718C314.23 133.514 321.322 131.054 328.025 130.411C330.39 130.185 332.709 130.191 334.898 130.434C336.98 130.648 338.994 131.082 340.896 131.72Z" fill="#B7B4FF"/>
<path d="M312.216 222.493L307.719 219.881L328.359 207.964L332.856 210.577L312.216 222.493Z" fill="#817CFF"/>
<path d="M291.864 250.209L287.362 247.591L287.322 233.948L291.825 236.56L291.864 250.209Z" fill="#817CFF"/>
<path d="M291.825 236.561L287.322 233.948L292.259 228.808L296.756 231.42L291.825 236.561Z" fill="#817CFF"/>
<path d="M312.153 199.784L307.65 197.171L322.078 190.401L326.581 193.019L312.153 199.784Z" fill="#817CFF"/>
<path d="M296.755 231.421L292.258 228.808L292.225 217.27L296.722 219.882L296.755 231.421Z" fill="#817CFF"/>
<path d="M291.757 214.036L287.26 211.424L292.191 206.097L296.694 208.71L291.757 214.036Z" fill="#817CFF"/>
<path d="M291.785 222.736L287.282 220.118L287.26 211.423L291.757 214.036L291.785 222.736Z" fill="#817CFF"/>
<path d="M318.768 167.531L314.266 164.913C318.808 162.29 327.824 158.481 328.298 158.278L332.801 160.896C332.327 161.099 323.31 164.908 318.768 167.531Z" fill="#817CFF"/>
<mask id="mask6_3507_13686" style="mask-type:luminance" maskUnits="userSpaceOnUse" x="314" y="158" width="19" height="10">
<path d="M318.768 167.531L314.266 164.913C318.808 162.29 327.824 158.481 328.298 158.278L332.801 160.896C332.327 161.099 323.31 164.908 318.768 167.531Z" fill="white"/>
</mask>
<g mask="url(#mask6_3507_13686)">
<path d="M318.768 167.531L314.266 164.913C318.808 162.29 327.824 158.481 328.298 158.278L332.801 160.896C332.327 161.099 323.31 164.908 318.768 167.531Z" fill="#817CFF"/>
</g>
<path d="M296.694 208.71L292.191 206.098L292.18 202.159L296.682 204.777L296.694 208.71Z" fill="#817CFF"/>
<path d="M318.766 167.532C323.308 164.908 332.325 161.1 332.799 160.897L332.838 175.274L318.174 183.743C313.553 186.412 312.119 187.879 312.136 193.831L312.153 199.784L326.581 193.019L326.609 202.633L312.187 210.962L312.221 222.5L332.861 210.584L332.906 226.518L291.863 250.216L291.824 236.567L296.761 231.426L296.727 219.888L291.784 222.743L291.762 214.042L296.693 208.716L296.682 204.783C296.62 183.985 304.581 175.719 318.766 167.532Z" fill="#B7B4FF"/>
<path d="M296.683 204.777L292.18 202.159C292.124 181.366 300.079 173.106 314.264 164.913L318.767 167.531C304.582 175.718 296.621 183.985 296.683 204.777Z" fill="#817CFF"/>
<mask id="mask7_3507_13686" style="mask-type:luminance" maskUnits="userSpaceOnUse" x="292" y="164" width="27" height="41">
<path d="M296.683 204.777L292.18 202.159C292.124 181.366 300.079 173.106 314.264 164.913L318.767 167.531C304.582 175.718 296.621 183.985 296.683 204.777Z" fill="white"/>
</mask>
<g mask="url(#mask7_3507_13686)">
<path d="M296.683 204.777L292.18 202.159C292.124 181.366 300.079 173.106 314.264 164.913L318.767 167.531C304.582 175.718 296.621 183.985 296.683 204.777Z" fill="#817CFF"/>
</g>
<path d="M287.923 137.463C283.595 135.201 278.991 133.57 274.308 132.571C269.619 131.595 264.84 131.274 260.134 131.601C259.547 131.646 258.96 131.646 258.374 131.725L256.619 131.962L254.875 132.199C254.294 132.278 253.724 132.436 253.149 132.549L251.428 132.91L250.57 133.091C250.282 133.158 250.006 133.249 249.724 133.328L246.344 134.304C241.892 135.81 237.638 137.808 233.53 140.076C229.468 142.468 225.586 145.064 221.845 148.037C218.115 151 214.578 154.204 211.254 157.629C207.925 161.049 204.726 164.575 201.476 168.051C198.243 171.543 194.92 174.985 191.664 178.517L183.736 172.209C186.614 168.051 189.712 164.016 193.182 160.309C194.039 159.373 194.942 158.481 195.834 157.573C196.753 156.693 197.662 155.807 198.615 154.966C200.494 153.251 202.458 151.626 204.449 150.04C206.441 148.455 208.467 146.914 210.526 145.419C212.58 143.918 214.662 142.451 216.772 141.041C217.839 140.341 218.888 139.636 219.983 138.97L223.295 137.001C223.854 136.679 224.39 136.335 224.959 136.036L226.68 135.156C227.831 134.575 228.96 133.965 230.128 133.418C232.503 132.402 234.839 131.319 237.316 130.552C239.731 129.649 242.259 129.056 244.747 128.402C249.797 127.296 254.971 126.794 260.1 126.997C270.375 127.33 280.385 130.772 288.51 136.532L287.923 137.463Z" fill="#EFEFFF"/>
<path d="M173.857 157.951L170.133 201.234L209.488 182.823L173.857 157.951Z" fill="#EFEFFF"/>
<path d="M174.467 347.45C178.935 350.198 183.867 352.021 188.9 352.969C193.944 353.905 199.096 353.967 204.151 353.352L206.041 353.087C206.673 353.002 207.3 352.918 207.92 352.766C209.167 352.489 210.414 352.263 211.65 351.953L215.334 350.937C216.547 350.542 217.749 350.114 218.957 349.707C223.747 347.947 228.357 345.724 232.837 343.258C233.954 342.638 235.043 341.955 236.143 341.306L237.791 340.324L239.405 339.275C241.56 337.887 243.648 336.397 245.713 334.874C249.832 331.815 253.691 328.407 257.381 324.836C261.049 321.242 264.615 317.568 268.226 313.918C271.831 310.261 275.454 306.605 279.025 302.853L286.671 309.094C283.539 313.54 280.137 317.822 276.379 321.789C272.627 325.755 268.497 329.384 264.135 332.696C259.785 336.025 255.282 339.145 250.661 342.073C248.342 343.523 246.001 344.945 243.597 346.254L241.797 347.242L239.958 348.161C238.728 348.765 237.52 349.403 236.273 349.978L232.504 351.637L231.562 352.043L230.591 352.404L228.656 353.121L226.726 353.832L224.757 354.447L222.788 355.051L221.806 355.35L220.802 355.598C219.459 355.92 218.133 356.264 216.79 356.568L212.722 357.302C211.356 357.505 209.98 357.618 208.614 357.776C207.931 357.866 207.243 357.889 206.549 357.911L204.484 357.99C198.977 358.109 193.436 357.466 188.194 355.852C182.947 354.272 178.044 351.693 173.852 348.336L174.467 347.45Z" fill="#EFEFFF"/>
<path d="M296.506 323.572L300.738 280.334L261.174 298.277L296.506 323.572Z" fill="#EFEFFF"/>
<defs>
<linearGradient id="paint0_linear_3507_13686" x1="165.799" y1="61.5737" x2="272.21" y2="360.966" gradientUnits="userSpaceOnUse">
<stop offset="0.0762" stop-color="#B7B4FF"/>
<stop offset="0.078" stop-color="#9691FF"/>
<stop offset="0.2581" stop-color="#817CFF"/>
<stop offset="0.44" stop-color="#625BFF"/>
<stop offset="0.6237" stop-color="#5953E8"/>
<stop offset="0.8094" stop-color="#4641B5"/>
<stop offset="1" stop-color="#36328C"/>
</linearGradient>
</defs>
</svg>
