<svg width="270" height="229" viewBox="0 0 270 229" fill="none" xmlns="http://www.w3.org/2000/svg">
<path d="M207.706 120.545C207.919 120.521 208.097 120.329 208.126 120.064C208.154 119.755 207.962 119.469 207.697 119.43C198.687 117.914 191.285 114.029 185.697 107.88C178.566 100.035 174.608 91.4799 174.225 83.1248C174.122 80.8092 174.612 79.3416 175.535 79.1935C176.497 79.0345 177.926 80.4132 178.489 82.6973C179.706 87.657 182.361 92.9432 186.379 98.4144C190.667 104.257 204.347 114.064 208.471 114.876C208.731 114.929 208.972 114.719 209.014 114.414C209.048 114.104 208.862 113.818 208.599 113.765C204.595 112.979 191.287 103.408 187.096 97.6984C183.178 92.3597 180.594 87.219 179.412 82.4251C178.748 79.7377 176.951 77.8091 175.376 78.0787C174.676 78.1889 173.078 78.9016 173.271 83.1426C173.664 91.8001 177.735 100.63 185.053 108.692C190.796 115.01 198.38 118.999 207.598 120.538C207.631 120.547 207.671 120.549 207.706 120.545Z" fill="#4641B5"/>
<path d="M202.62 119.389C202.768 119.373 202.911 119.282 202.984 119.114C203.107 118.839 203.01 118.498 202.778 118.347C196.902 114.512 184.522 102.831 181.489 98.6405C178.666 94.7338 176.35 84.6578 176.173 81.6226C176.155 81.3113 175.926 81.0756 175.663 81.0852C175.393 81.0956 175.197 81.3524 175.215 81.6637C175.375 84.3743 177.598 94.9633 180.764 99.3476C183.84 103.595 196.388 115.437 202.334 119.317C202.427 119.385 202.523 119.4 202.62 119.389Z" fill="#4641B5"/>
<path d="M208.459 117.733C208.646 117.712 208.803 117.567 208.861 117.349C208.935 117.053 208.792 116.733 208.536 116.634C198.016 112.531 185.483 101.709 179.029 93.6065C178.841 93.3793 178.538 93.3606 178.349 93.5677C178.157 93.7751 178.154 94.1311 178.34 94.3651C184.88 102.569 197.585 113.532 208.263 117.702C208.328 117.728 208.401 117.739 208.459 117.733Z" fill="#4641B5"/>
<path d="M208.921 111.383C209.108 111.362 209.267 111.211 209.321 110.989C209.393 110.694 209.244 110.381 208.982 110.286C203.025 108.131 196.214 100.695 191.826 94.4485C190.818 93.0101 189.677 91.2013 188.471 89.2757C184.477 82.9304 179.951 75.7368 176.451 75.9556C176.189 75.9781 175.992 76.2349 176.017 76.5455C176.038 76.8564 176.271 77.0983 176.536 77.0754C179.509 76.8988 184.051 84.12 187.704 89.9222C188.924 91.8593 190.07 93.687 191.098 95.1494C195.574 101.523 202.558 109.132 208.731 111.352C208.797 111.384 208.86 111.39 208.921 111.383Z" fill="#4641B5"/>
<path d="M198.723 107.156C198.852 107.142 198.975 107.069 199.055 106.94C199.203 106.688 199.151 106.335 198.935 106.15C187.729 96.5516 182.469 85.3304 181.513 82.1533C181.425 81.8563 181.149 81.6976 180.902 81.7935C180.651 81.8866 180.516 82.1986 180.612 82.5013C181.593 85.7573 186.974 97.2719 198.385 107.047C198.489 107.136 198.61 107.168 198.723 107.156Z" fill="#4641B5"/>
<path d="M206.161 122.704C206.374 122.68 206.552 122.494 206.579 122.237C206.61 121.926 206.422 121.641 206.158 121.588C193.917 119.363 187.532 114.204 181.195 106.601C175.75 100.064 171.403 88.8884 171.707 82.1868C171.821 79.6872 172.676 77.6602 174.192 76.3203C176.146 74.5792 178.587 74.3933 180.081 74.7692C182.544 75.3803 187.328 81.576 192.878 91.3321C197.066 98.6872 205.827 107.111 208.36 108.139C208.61 108.245 208.883 108.087 208.961 107.791C209.037 107.502 208.897 107.182 208.643 107.076C206.57 106.242 197.907 98.1761 193.67 90.735C190.937 85.9273 184.159 74.6429 180.249 73.667C178.557 73.2412 175.799 73.4525 173.595 75.4139C171.857 76.9579 170.873 79.2669 170.743 82.0914C170.427 89.1827 174.809 100.527 180.52 107.371C186.996 115.144 193.525 120.422 206.04 122.704C206.084 122.713 206.126 122.708 206.161 122.704Z" fill="#4641B5"/>
<path d="M206.765 126.527C206.997 126.501 207.178 126.276 207.183 125.998C207.188 125.69 206.979 125.42 206.709 125.401C203.886 125.225 192.036 120.293 185.799 115.972C179.003 111.256 173.342 103.216 171.262 97.7028C168.61 90.6928 168.36 80.616 170.723 76.1468C173.105 71.6429 178.643 71.3972 182.782 73.0821C187.194 74.8673 193.877 84.5924 198.216 92.8706C202.339 100.732 205.503 103.452 208.982 105.119C209.233 105.238 209.505 105.1 209.597 104.809C209.692 104.525 209.568 104.196 209.316 104.077C206.018 102.498 203.007 99.8945 199.029 92.3105C195.61 85.7937 188.4 74.1818 183.066 72.0192C178.579 70.2032 172.554 70.5292 169.905 75.5328C167.401 80.2656 167.626 90.8216 170.385 98.1264C172.534 103.812 178.358 112.095 185.331 116.931C191.251 121.043 203.479 126.321 206.691 126.532C206.717 126.533 206.739 126.53 206.765 126.527Z" fill="#4641B5"/>
<path d="M206.08 129.227C206.293 129.204 206.471 129.011 206.497 128.747C206.528 128.437 206.333 128.152 206.071 128.112C198.532 126.85 192.428 125.38 182.456 117.926C174.533 111.997 169.92 103.044 168.437 98.6822C164.915 88.2995 164.394 80.9814 166.792 75.6499C169.533 69.5591 175.725 67.2401 182.956 69.6099C188.991 71.587 196.874 82.1515 198.844 87.1156C201.051 92.6769 205.73 100.108 209.442 102.405C209.676 102.552 209.962 102.449 210.082 102.174C210.202 101.906 210.102 101.565 209.864 101.415C206.45 99.3004 201.858 92.0913 199.713 86.6766C197.719 81.653 189.725 70.6701 183.185 68.5271C175.503 66.0081 168.893 68.527 165.94 75.0949C163.401 80.7391 163.916 88.3549 167.55 99.0679C169.441 104.638 174.354 113.179 181.957 118.869C192.1 126.451 198.304 127.943 205.969 129.227C206.008 129.229 206.041 129.232 206.08 129.227Z" fill="#4641B5"/>
<path d="M202.454 132.091C203.012 132.029 203.535 131.951 204.025 131.864C204.288 131.822 204.459 131.535 204.411 131.227C204.364 130.919 204.109 130.706 203.856 130.753C199.603 131.48 192.746 131.693 182.415 125.147C172.651 118.955 166.697 107.188 164.385 98.2342C162.252 89.9788 160.414 82.859 165.01 73.279C169.567 63.785 179.766 65.8776 183.113 66.5669C186.486 67.2565 194.591 74.562 196.39 78.0079C198.147 81.3704 205.674 91.759 209.9 94.5799C210.134 94.74 210.424 94.6491 210.553 94.3736C210.674 94.1121 210.583 93.7632 210.354 93.6059C206.544 91.0717 199.108 81.0843 197.206 77.4475C195.395 73.9832 187.215 66.2715 183.248 65.4585C173.827 63.5276 167.406 65.9602 164.17 72.7064C159.374 82.6937 161.272 90.0288 163.465 98.5257C164.616 102.987 169.354 118.13 181.983 126.138C191.387 132.095 198.012 132.584 202.454 132.091Z" fill="#4641B5"/>
<path d="M209.353 99.1996C209.443 99.1896 209.529 99.1345 209.584 99.0467C209.689 98.8687 209.655 98.6244 209.507 98.494C208.317 97.4543 206.849 95.1367 205.558 93.0868C204.52 91.4428 203.542 89.8935 202.77 89.0816C202.63 88.9372 202.415 88.9415 202.296 89.1081C202.173 89.2621 202.188 89.515 202.328 89.6594C203.046 90.4218 204.007 91.9339 205.014 93.5421C206.41 95.7338 207.837 98.0102 209.112 99.1187C209.188 99.1789 209.269 99.2089 209.353 99.1996Z" fill="#4641B5"/>
<path d="M200.07 129.725C200.222 129.708 200.344 129.574 200.365 129.385C200.381 129.175 200.251 128.97 200.065 128.942C183.016 126.131 170.96 112.489 166.974 101.009C166.902 100.801 166.711 100.698 166.534 100.777C166.359 100.848 166.28 101.079 166.352 101.28C170.413 112.967 182.669 126.855 199.994 129.717C200.018 129.731 200.044 129.728 200.07 129.725Z" fill="#4641B5"/>
<path d="M201.113 134.292C201.336 134.267 201.52 134.048 201.529 133.773C201.54 133.465 201.33 133.188 201.067 133.168C189.218 132.182 183.165 129.404 176.709 124.957C166.03 117.582 163.284 109.358 160.3 97.6464C157.692 87.3809 159.879 75.268 163.571 70.3903C167.507 65.1851 174.121 62.4635 181.258 63.1042C187.182 63.638 194.699 70.7933 197.845 74.4977C199.108 75.9895 201.937 80.1631 204.434 83.8449C206.658 87.1229 208.578 89.9516 209.391 90.9253C209.583 91.1521 209.884 91.1644 210.07 90.9512C210.255 90.7381 210.255 90.3824 210.065 90.1488C209.284 89.2206 207.29 86.2825 205.174 83.1622C202.54 79.2737 199.813 75.2553 198.509 73.7158C198.127 73.2687 189.06 62.6854 181.29 61.9844C173.862 61.3107 166.961 64.1752 162.837 69.6297C158.439 75.4408 156.886 88.146 159.376 97.935C162.421 109.911 165.246 118.331 176.241 125.92C182.655 130.339 189.04 133.289 201.028 134.285C201.058 134.298 201.084 134.295 201.113 134.292Z" fill="#4641B5"/>
<path d="M194.365 136.405C194.597 136.38 194.781 136.154 194.786 135.876C194.787 135.562 194.575 135.298 194.309 135.286C179.981 134.461 163.987 122.652 159.257 112.651C154.888 103.397 153.631 83.4255 158.405 73.2939C161.825 66.0311 169.613 60.0917 175.776 60.0506C181.223 60.0141 187.854 62.2416 192.663 65.7256C198.255 69.7656 204.391 78.556 207.689 83.2845C208.338 84.2145 208.888 84.9988 209.312 85.5784C209.485 85.8203 209.79 85.8583 209.99 85.6631C210.186 85.4618 210.206 85.1103 210.032 84.8685C209.613 84.2982 209.066 83.5168 208.422 82.5929C205.091 77.8124 198.883 68.9256 193.151 64.7738C188.19 61.186 181.353 58.8932 175.74 58.9287C169.158 58.9704 161.178 65.0259 157.558 72.7253C152.51 83.439 153.9 103.608 158.417 113.166C163.275 123.439 179.646 135.562 194.293 136.41C194.323 136.41 194.345 136.407 194.365 136.405Z" fill="#4641B5"/>
<path d="M169.082 122.945C169.176 122.935 169.263 122.873 169.321 122.778C169.418 122.594 169.375 122.351 169.218 122.228C162.393 116.785 158.618 102.918 157.866 97.0518C157.835 96.8333 157.677 96.6975 157.485 96.7057C157.299 96.7329 157.173 96.9263 157.2 97.1387C157.813 101.898 161.268 116.825 168.852 122.873C168.924 122.93 169.005 122.954 169.082 122.945Z" fill="#4641B5"/>
<path d="M184.95 137.45C185.13 137.43 185.29 137.285 185.348 137.067C185.423 136.771 185.277 136.458 185.024 136.355C184.587 136.182 183.995 135.993 183.274 135.76C178.717 134.284 169.237 131.204 161.569 122.016C150.532 108.789 151.05 88.7283 152.868 79.9658C155.012 69.6365 162.027 61.7691 167.85 59.3311C173.605 56.9267 179.598 57.2929 188.547 60.5785C195.725 63.212 202.393 71.294 205.975 75.6385C206.601 76.3916 207.133 77.0408 207.555 77.5227C207.752 77.7358 208.056 77.7412 208.236 77.5156C208.418 77.2964 208.405 76.9421 208.21 76.7221C207.793 76.2528 207.272 75.6154 206.653 74.8681C203.004 70.4526 196.22 62.2302 188.803 59.5057C179.637 56.143 173.465 55.7901 167.501 58.2732C161.444 60.8058 154.153 68.9583 151.934 79.6648C150.077 88.6373 149.558 109.194 160.894 122.783C168.75 132.198 178.409 135.333 183.051 136.842C183.752 137.071 184.328 137.255 184.75 137.417C184.819 137.452 184.885 137.457 184.95 137.45Z" fill="#4641B5"/>
<path d="M178.401 138.177C178.598 138.155 178.766 137.99 178.812 137.756C178.866 137.45 178.695 137.146 178.442 137.07C164.322 133.007 157.515 123.367 154.711 117.986C149.649 108.254 146.881 88.6919 151.24 74.0631C154.844 61.9529 165.429 54.1985 178.851 53.8252C190.542 53.5036 201.708 65.4792 205.383 69.4186L205.734 69.7876C205.933 70.0005 206.232 69.9869 206.41 69.7648C206.587 69.5395 206.564 69.1863 206.368 68.9732L206.02 68.6038C202.275 64.5905 190.88 52.3727 178.798 52.705C164.973 53.084 154.069 61.1153 150.331 73.6615C145.822 88.7964 148.608 108.37 153.899 118.55C156.781 124.082 163.776 133.994 178.243 138.165C178.298 138.182 178.35 138.183 178.401 138.177Z" fill="#4641B5"/>
<path d="M144.625 96.7558C144.631 96.7551 144.644 96.7536 144.654 96.7526C144.917 96.7103 145.084 96.4177 145.037 96.1161C142.162 78.3574 153.393 57.0064 168.144 52.1741C182.649 47.4213 197.737 57.2092 202.325 61.3769C202.538 61.5686 202.841 61.5285 202.997 61.2892C203.156 61.0432 203.111 60.6957 202.893 60.4979C202.726 60.3435 185.791 45.209 167.854 51.0901C152.683 56.057 141.133 78.0244 144.093 96.2829C144.139 96.5813 144.374 96.7837 144.625 96.7558Z" fill="#4641B5"/>
<path d="M152.527 120.357C152.582 120.351 152.632 120.332 152.676 120.288C152.833 120.176 152.868 119.934 152.763 119.75C148.877 113.024 144.785 100.971 147.364 81.7193L147.411 81.3518C147.447 81.139 147.315 80.9284 147.131 80.8868C146.948 80.8484 146.781 80.991 146.752 81.2031L146.705 81.5706C144.088 101.081 148.255 113.334 152.213 120.176C152.282 120.302 152.411 120.37 152.527 120.357Z" fill="#4641B5"/>
<path d="M173.046 138.772C173.249 138.749 173.42 138.577 173.458 138.331C173.502 138.026 173.326 137.729 173.067 137.666C161.538 134.801 152.205 125.22 146.075 109.95C145.961 109.663 145.678 109.528 145.435 109.659C145.198 109.786 145.097 110.111 145.211 110.399C151.483 126.015 161.058 135.827 172.902 138.765C172.952 138.776 172.998 138.777 173.046 138.772Z" fill="#4641B5"/>
<path d="M141.754 84.4045C141.964 84.3813 142.139 84.1953 142.169 83.9374C144.116 66.8674 154.805 52.486 168.159 48.951C182.471 45.1629 196.232 53.7597 200.104 56.4763C200.338 56.6429 200.629 56.5584 200.759 56.2894C200.89 56.0268 200.806 55.6772 200.579 55.5195C196.622 52.7407 182.578 43.9793 167.917 47.8552C154.194 51.4832 143.215 66.2462 141.215 83.7496C141.184 84.0598 141.366 84.3464 141.63 84.3987C141.667 84.4141 141.709 84.4095 141.754 84.4045Z" fill="#4641B5"/>
<path d="M196.352 50.218C196.452 50.2069 196.549 50.1439 196.603 50.0368C196.689 49.8412 196.633 49.6059 196.473 49.4898C190.762 45.5544 181.015 42.4226 172.11 44.3215C171.929 44.3612 171.811 44.5636 171.852 44.7842C171.895 44.9949 172.077 45.1411 172.252 45.102C180.99 43.2283 190.544 46.2965 196.143 50.1628C196.211 50.2173 196.284 50.2255 196.352 50.218Z" fill="#4641B5"/>
<path d="M141.688 70.7105C141.858 70.6915 142.005 70.574 142.072 70.3806C145.723 60.1091 153.417 51.0633 162.654 46.187C172.168 41.1592 184.715 41.9926 192.36 44.8844C192.615 44.9769 192.877 44.8139 192.952 44.5184C193.024 44.2232 192.878 43.9098 192.623 43.8141C184.813 40.8492 171.972 40.0061 162.239 45.1528C152.795 50.1337 144.923 59.3951 141.188 69.9141C141.085 70.1931 141.204 70.5292 141.45 70.6553C141.527 70.7022 141.61 70.7191 141.688 70.7105Z" fill="#4641B5"/>
<path d="M148.429 58.1905C148.506 58.1819 148.577 58.1414 148.628 58.0737C151.364 54.8196 161.068 48.2336 167.412 46.5798C167.589 46.534 167.697 46.3262 167.647 46.1131C167.604 45.9024 167.425 45.7624 167.242 45.8154C160.806 47.4924 150.932 54.192 148.145 57.5105C148.016 57.6717 148.02 57.9192 148.155 58.0772C148.233 58.16 148.336 58.2008 148.429 58.1905Z" fill="#4641B5"/>
<path d="M143.553 52.7132C143.627 52.705 143.696 52.6777 143.758 52.6251C160.149 40.5384 172.808 37.3221 188.919 41.1542C189.184 41.2195 189.429 41.0225 189.474 40.7173C189.518 40.4121 189.338 40.1155 189.08 40.0527C172.698 36.1528 159.841 39.4106 143.228 51.6689C143.007 51.8272 142.951 52.1729 143.095 52.4409C143.195 52.6386 143.375 52.7329 143.553 52.7132Z" fill="#4641B5"/>
<path d="M142.485 63.5231C142.611 63.5092 142.717 63.4092 142.763 63.2638C144.357 57.3623 152.311 47.0703 164.992 42.6733C165.165 42.615 165.261 42.3954 165.202 42.1833C165.144 41.9809 164.957 41.8613 164.778 41.9171C151.87 46.3914 143.761 56.9356 142.123 62.9954C142.064 63.201 142.164 63.4249 142.342 63.4998C142.387 63.5209 142.44 63.5281 142.485 63.5231Z" fill="#4641B5"/>
<path d="M143.58 49.7141C143.706 49.7002 143.828 49.6278 143.908 49.4917C145.629 46.706 151.048 44.019 157.322 40.9076C159.271 39.9439 161.286 38.9501 163.303 37.8907C172.694 32.9614 181.419 34.1798 183.872 34.6712C184.126 34.7246 184.371 34.5212 184.409 34.2103C184.444 33.9062 184.261 33.6131 183.998 33.5672C181.477 33.0571 172.516 31.8061 162.888 36.8597C160.877 37.9119 158.866 38.9054 156.924 39.8748C150.523 43.046 144.991 45.7814 143.121 48.8153C142.966 49.061 143.018 49.4142 143.238 49.6051C143.342 49.6915 143.464 49.727 143.58 49.7141Z" fill="#4641B5"/>
<path d="M186.511 38.1282C186.65 38.1128 186.77 37.9853 186.8 37.8155C186.832 37.6031 186.71 37.3914 186.526 37.3498C183.041 36.4735 174.073 34.8056 166.049 38.1374C165.875 38.2155 165.791 38.4336 165.86 38.6414C165.928 38.8427 166.123 38.9548 166.298 38.8864C174.156 35.6123 182.981 37.2569 186.412 38.1131C186.442 38.1228 186.476 38.1321 186.511 38.1282Z" fill="#4641B5"/>
<path d="M145.803 44.2712C145.897 44.2608 145.987 44.2182 146.06 44.1416C155.414 34.6177 167.711 31.928 176.37 31.3488C176.625 31.3531 176.829 31.0694 176.801 30.7592C176.776 30.4486 176.544 30.2133 176.279 30.2297C167.47 30.8189 154.963 33.5516 145.419 43.2792C145.223 43.4805 145.207 43.838 145.386 44.0727C145.495 44.2239 145.652 44.288 145.803 44.2712Z" fill="#4641B5"/>
<path d="M151.484 36.157C151.594 36.1448 151.696 36.0943 151.776 35.9973C153.892 33.3539 162.171 28.5512 169.779 29.1691C170.041 29.1856 170.264 28.9553 170.272 28.6411C170.282 28.3266 170.073 28.0626 169.81 28.0429C162.47 27.4541 153.669 31.9686 151.072 35.2105C150.892 35.4362 150.905 35.7905 151.101 36.0037C151.206 36.1258 151.352 36.1717 151.484 36.157Z" fill="#4641B5"/>
<path d="M123.256 132.613L28.0859 251.543L43.305 263.722L138.475 144.791L123.256 132.613Z" fill="#29266B"/>
<path opacity="0.5" d="M123.267 132.638L116.872 140.622C119.263 143.167 121.89 145.584 124.715 147.829C127.065 149.716 129.471 151.401 131.962 152.959L138.486 144.816L123.267 132.638Z" fill="#29266B"/>
<path opacity="0.25" d="M230.447 128.288C206.157 158.657 161.921 163.567 131.557 139.263C105.263 118.225 98.0779 82.2178 112.433 53.1995C114.639 48.7282 117.359 44.4804 120.617 40.395C144.883 10.0745 189.123 5.16472 219.449 29.4265C229.83 37.7393 237.215 48.4015 241.488 59.9933C249.767 82.3351 246.445 108.314 230.447 128.288Z" fill="#B7B4FF"/>
<path opacity="0.2" d="M229.457 83.3785C206.593 111.944 164.923 116.605 136.351 93.7441C123.177 83.2086 115.082 68.6108 112.439 53.2056C114.645 48.7342 117.366 44.4865 120.623 40.4011C144.889 10.0806 189.129 5.17079 219.456 29.4326C229.837 37.7453 237.221 48.4076 241.494 59.9994C239.16 68.2904 235.188 76.2249 229.457 83.3785Z" fill="white"/>
<path opacity="0.2" d="M123.431 52.1104C146.979 22.6724 190.054 18.0061 219.646 41.6739C232.542 52.0052 240.745 66.01 243.946 80.9779C243.637 61.221 234.814 41.7105 218.123 28.3604C188.539 4.67867 145.464 9.34505 121.913 38.7898C108.627 55.3787 104.398 76.2952 108.532 95.6375C108.303 80.3658 113.157 64.9347 123.431 52.1104Z" fill="#29266B"/>
<path d="M127.773 144.037C94.8634 117.702 89.5153 69.513 115.85 36.6C142.185 3.69667 190.375 -1.65143 223.281 24.6773C256.191 51.0153 261.54 99.2079 235.204 132.114C208.88 165.03 160.684 170.378 127.773 144.037ZM215.666 34.1974C188.008 12.048 147.502 16.5434 125.361 44.2195C103.227 71.8751 107.724 112.395 135.383 134.531C163.052 156.666 203.559 152.17 225.689 124.509C247.828 96.8459 243.331 56.3264 215.666 34.1974Z" fill="#36328C"/>
<path opacity="0.2" d="M116.228 40.0335C142.563 7.1237 190.752 1.77561 223.658 28.1043C239.63 40.8848 249.045 58.8217 251.566 77.6543C249.796 57.5863 240.216 38.2315 223.278 24.6804C190.369 -1.64793 142.18 3.70016 115.847 36.6032C102.29 53.542 97.193 74.5222 99.8627 94.4904C98.1944 75.5762 103.45 55.998 116.228 40.0335Z" fill="white"/>
<path opacity="0.2" d="M135.762 137.952C163.432 160.093 203.939 155.598 226.068 127.929C237.531 113.615 241.799 95.8734 239.47 79.0038C240.795 94.8262 236.371 111.163 225.688 124.512C203.559 152.174 163.052 156.669 135.383 134.534C122.037 123.851 114.138 108.876 111.968 93.1474C113.398 110.117 121.449 126.498 135.762 137.952Z" fill="#29266B"/>
<path d="M45.217 265.295L26.1971 250.073C24.091 248.387 23.7521 245.334 25.4375 243.228L94.3176 157.14C95.9997 155.034 99.0682 154.687 101.172 156.379L120.198 171.601C122.297 173.281 122.637 176.347 120.958 178.452L52.0616 264.536C50.3795 266.642 47.3231 266.981 45.217 265.295Z" fill="#4641B5"/>
<path opacity="0.3" d="M38.1091 249.971L103.683 168.029C103.933 167.721 104.26 167.525 104.567 167.288L100.993 164.434C99.1085 162.923 96.3759 163.24 94.8769 165.113L33.3283 242.006C31.8307 243.892 32.1341 246.626 34.0113 248.131L37.586 250.992C37.7397 250.642 37.8594 250.279 38.1091 249.971Z" fill="white"/>
<path opacity="0.2" d="M185.867 71.6985C179.621 79.5001 168.235 80.7703 160.433 74.5212C152.625 68.2729 151.361 56.8888 157.61 49.0869C163.852 41.2792 175.239 40.0155 183.051 46.2635C190.855 52.5057 192.116 63.8901 185.867 71.6985Z" fill="white"/>
</svg>
